<?xml version="1.0" standalone="no"?>
<!DOCTYPE svg PUBLIC "-//W3C//DTD SVG 20010904//EN"
 "https://www.w3.org/TR/2001/REC-SVG-20010904/DTD/svg10.dtd">
<svg version="1.0" xmlns="https://www.w3.org/2000/svg"
 width="520.000000pt" height="520.000000pt" viewBox="0 0 520.000000 520.000000"
 preserveAspectRatio="xMidYMid meet">
<metadata>
Created by potrace 1.14, written by Peter Selinger 2001-2017
</metadata>
<g transform="translate(0.000000,520.000000) scale(0.100000,-0.100000)"
fill="#000000" stroke="none">
<path d="M0 4580 c0 -618 0 -621 20 -610 11 6 20 15 20 20 0 6 9 10 20 10 11
0 20 6 20 14 0 7 22 23 49 35 32 14 55 31 63 49 8 16 23 28 38 30 13 2 38 17
54 33 16 16 38 31 48 35 10 3 18 14 18 25 0 14 7 19 28 19 23 0 33 7 48 38 18
34 39 57 47 50 8 -6 37 25 32 33 -5 7 10 30 43 64 10 11 8 14 -7 17 -19 3 -19
4 0 42 10 22 19 45 19 52 0 23 57 77 75 70 13 -4 16 -1 13 17 -4 27 30 57 64
57 24 0 48 16 48 32 0 13 -38 9 -43 -4 -4 -10 -7 -10 -18 0 -11 10 -10 12 4
12 9 0 17 4 17 8 0 5 11 14 24 20 13 6 27 20 31 31 3 12 11 21 17 21 6 0 26
11 44 25 18 14 37 25 42 25 5 0 8 15 6 34 -2 28 1 34 13 29 9 -4 21 1 29 12 7
10 20 15 29 12 9 -4 15 -1 15 8 0 8 7 15 15 15 8 0 15 8 15 18 0 30 16 45 39
37 17 -5 21 -14 21 -46 0 -37 1 -39 20 -29 11 6 18 15 15 19 -3 5 2 11 10 15
10 4 15 -1 15 -16 0 -16 3 -18 13 -10 7 6 23 9 36 5 17 -4 23 -1 28 15 3 15
16 22 44 27 21 4 39 11 39 16 0 15 40 10 46 -6 4 -8 12 -15 20 -15 8 0 14 -7
14 -15 0 -11 11 -15 40 -15 22 0 40 5 40 10 0 6 7 10 15 10 21 0 57 21 73 43
7 9 26 17 44 17 23 0 29 4 24 16 -3 8 -2 13 2 10 10 -6 113 50 105 58 -3 3 3
6 15 6 11 0 27 6 34 14 8 7 33 17 55 21 23 3 49 13 60 20 15 12 -116 14 -924
15 l-943 0 0 -620z m160 -485 c0 -8 -7 -15 -15 -15 -16 0 -20 12 -8 23 11 12
23 8 23 -8z"/>
<path d="M1920 5189 c0 -5 5 -7 10 -4 6 3 10 8 10 11 0 2 -4 4 -10 4 -5 0 -10
-5 -10 -11z"/>
<path d="M2494 4989 c-17 -6 -16 -8 10 -18 36 -15 47 -11 26 10 -11 10 -24 13
-36 8z"/>
<path d="M2550 4990 c0 -5 5 -10 11 -10 5 0 7 5 4 10 -3 6 -8 10 -11 10 -2 0
-4 -4 -4 -10z"/>
<path d="M2600 4984 c0 -12 6 -15 21 -11 13 3 28 -2 39 -13 17 -17 21 -18 34
-5 9 10 17 11 21 5 3 -5 0 -10 -7 -10 -7 0 -1 -11 13 -24 14 -12 29 -29 32
-37 4 -10 6 -11 6 -1 1 7 -4 22 -9 32 -6 11 -6 21 -1 25 5 3 12 -3 16 -13 4
-14 12 -18 29 -15 13 3 27 0 30 -6 4 -6 13 -11 21 -11 18 0 82 -42 89 -58 4
-8 -4 -7 -26 4 -29 15 -31 15 -24 -2 6 -17 6 -17 -14 1 -20 18 -20 18 -20 -9
0 -23 3 -26 24 -20 33 8 51 -3 35 -22 -9 -11 -8 -14 5 -14 9 0 16 -4 16 -10 0
-5 -4 -10 -10 -10 -5 0 -10 -5 -10 -11 0 -5 4 -8 9 -4 5 3 21 0 35 -7 31 -13
61 -65 42 -71 -6 -3 -2 -8 9 -12 60 -20 71 -51 18 -49 -31 2 -32 1 -18 -19 20
-28 19 -38 -2 -30 -12 4 -9 -2 8 -18 24 -21 49 -59 49 -72 0 -3 -8 -3 -19 0
-10 3 -22 0 -25 -6 -4 -6 -3 -11 3 -11 6 0 13 -16 17 -36 5 -26 2 -40 -10 -52
-14 -15 -14 -17 2 -36 9 -11 11 -16 5 -12 -16 9 -18 -30 -3 -39 16 -10 12 -33
-7 -38 -14 -4 -13 -5 4 -6 12 0 26 7 32 16 5 10 13 14 17 10 5 -5 2 -12 -5
-16 -9 -6 -10 -11 -2 -15 6 -4 11 -18 11 -32 0 -13 5 -24 11 -24 8 0 9 -4 0
-13 -15 -19 -2 -28 22 -16 19 11 20 9 13 -30 -5 -32 -3 -43 9 -47 8 -4 15 -13
15 -21 0 -8 -5 -11 -12 -7 -8 5 -9 2 -5 -10 4 -10 3 -15 -3 -11 -6 3 -10 -1
-10 -10 0 -9 4 -14 8 -11 4 2 9 -12 9 -32 5 -113 9 -146 21 -150 6 -2 12 -11
12 -19 0 -13 -3 -13 -15 -3 -23 19 -18 4 6 -18 l20 -20 -33 3 c-18 2 -35 4
-38 5 -3 1 -19 1 -35 0 -17 0 -43 3 -58 9 -20 8 -26 7 -24 -1 1 -7 -9 -13 -23
-14 -14 -1 -36 -5 -50 -9 -20 -5 -22 -4 -10 5 12 9 11 10 -7 5 -12 -3 -35 1
-51 9 -16 8 -31 13 -34 11 -2 -2 -26 1 -53 8 -28 7 -77 12 -110 12 -33 0 -63
4 -66 8 -3 4 -17 -3 -30 -17 -13 -14 -30 -26 -36 -26 -7 0 -13 -5 -13 -11 0
-5 4 -7 10 -4 6 3 7 -1 4 -9 -3 -9 -10 -14 -14 -11 -7 5 -41 -26 -82 -74 -9
-11 -15 -29 -13 -40 2 -12 -3 -25 -13 -31 -9 -6 -12 -13 -7 -16 6 -2 9 -51 6
-126 -7 -258 -6 -325 8 -342 7 -9 17 -14 21 -11 4 3 11 -2 14 -11 4 -12 2 -15
-9 -10 -10 4 -15 -1 -15 -15 0 -13 -4 -18 -12 -13 -7 4 -8 3 -4 -5 8 -12 -30
-50 -50 -51 -6 0 -20 -10 -31 -22 -30 -33 -76 -63 -90 -60 -6 1 -13 -5 -15
-14 -2 -14 -9 -12 -35 14 -31 31 -63 42 -63 21 0 -5 -4 -7 -10 -4 -13 8 -50
-18 -64 -47 -11 -20 -8 -28 26 -69 41 -49 47 -69 22 -69 -9 0 -14 -6 -11 -12
2 -7 11 -12 18 -10 9 1 8 -3 -3 -11 -21 -16 -24 -31 -5 -22 6 3 2 -2 -10 -11
-25 -18 -31 -39 -9 -31 10 4 7 -6 -7 -28 -12 -19 -26 -34 -31 -35 -5 0 -3 7 4
15 26 31 -2 13 -47 -30 -25 -25 -50 -45 -55 -45 -5 0 -6 -5 -3 -10 3 -5 1 -10
-4 -10 -17 0 -13 11 12 39 20 23 19 22 -18 -4 -56 -40 -63 -47 -40 -39 18 7
19 6 6 -10 -8 -9 -20 -15 -27 -12 -7 3 -17 -7 -23 -22 -15 -35 -22 -112 -10
-112 4 0 6 -6 3 -13 -2 -7 0 -24 5 -38 l10 -24 1 25 1 25 12 -23 c8 -18 8 -28
-1 -43 -16 -26 -15 -34 3 -19 17 14 21 0 4 -17 -7 -7 -8 -17 -2 -28 12 -21 4
-75 -12 -75 -6 0 -16 10 -22 22 -10 22 -10 22 -17 -10 -4 -17 -12 -32 -18 -32
-5 0 -8 6 -5 13 2 6 0 21 -6 32 -9 18 -9 19 6 6 15 -12 17 -11 17 8 0 11 5 21
10 21 15 0 -6 36 -25 44 -9 3 -13 2 -10 -3 3 -5 1 -12 -5 -16 -5 -3 -10 -1
-10 4 0 6 -8 11 -18 11 -10 0 -23 5 -30 12 -7 7 -12 10 -13 7 -6 -36 -2 -69 9
-69 7 0 10 -4 7 -10 -3 -5 -2 -10 4 -10 5 0 13 5 16 10 3 6 11 10 17 10 6 0 5
-6 -3 -16 -19 -23 -19 -53 0 -47 12 3 12 2 -1 -7 -10 -6 -18 -16 -18 -21 0
-14 26 -39 39 -39 6 0 11 -7 11 -15 0 -8 -4 -15 -10 -15 -5 0 -10 -12 -10 -26
0 -17 4 -24 13 -21 10 4 12 -3 9 -25 -4 -28 -6 -29 -16 -12 -11 20 -12 23 -16
52 -1 12 -4 10 -9 -8 -4 -14 -5 -27 -1 -30 3 -3 14 -16 23 -30 9 -13 17 -19
17 -12 0 6 4 12 9 12 6 0 6 -12 0 -32 -10 -35 -3 -51 12 -28 7 11 8 7 3 -13
-5 -22 -3 -26 9 -21 8 3 17 14 20 25 3 10 10 19 16 19 6 0 8 -7 4 -16 -5 -14
-3 -15 18 -4 l24 13 -22 -25 c-13 -13 -23 -33 -23 -45 0 -22 26 -79 41 -88 5
-4 9 -12 9 -18 0 -7 -5 -4 -11 6 -6 9 -14 15 -19 12 -13 -8 22 -43 38 -37 14
5 16 -14 2 -23 -18 -11 -10 -25 15 -25 14 0 25 -4 25 -10 0 -5 -5 -9 -11 -7
-6 1 -14 -4 -17 -12 -3 -10 2 -13 21 -9 16 3 25 1 24 -6 -1 -6 13 -17 31 -25
17 -8 32 -18 32 -23 0 -5 -10 -3 -22 3 -17 9 -14 2 11 -25 19 -20 31 -36 25
-37 -5 0 6 -6 25 -13 39 -14 58 -43 22 -33 -13 3 -19 1 -15 -5 4 -5 17 -8 31
-5 19 3 27 -1 33 -19 6 -14 18 -24 29 -24 11 0 23 -5 26 -10 12 -19 86 -51
108 -47 18 4 18 5 -5 6 -15 0 -30 6 -34 12 -5 8 4 10 27 6 57 -9 69 -13 82
-26 10 -11 7 -12 -16 -7 -19 4 -26 3 -22 -4 3 -5 0 -10 -7 -10 -31 -1 27 -22
65 -24 23 -1 51 -7 62 -13 11 -6 33 -9 49 -6 17 4 31 1 36 -7 6 -10 14 -9 38
3 28 13 30 13 25 -2 -4 -9 -3 -13 1 -9 4 3 16 -2 27 -13 10 -10 28 -19 40 -19
11 0 17 -4 14 -10 -3 -5 3 -10 15 -10 23 0 55 -26 55 -44 0 -6 15 -10 35 -8
l35 2 -25 -14 -25 -15 25 -1 c14 -1 19 -4 13 -7 -10 -4 -10 -8 0 -18 17 -16
48 -22 65 -12 7 5 27 5 45 1 17 -4 26 -9 20 -11 -7 -3 -13 -9 -13 -14 0 -6 6
-7 13 -3 6 4 9 3 4 -1 -4 -5 -17 -10 -30 -12 -25 -4 -49 -23 -28 -23 7 0 10
-4 7 -8 -2 -4 4 -9 15 -9 13 -1 17 2 12 10 -4 7 2 5 12 -3 13 -10 19 -11 22
-4 2 7 13 10 23 7 15 -4 20 0 20 13 0 15 2 16 9 5 5 -8 16 -11 25 -8 11 4 16
1 16 -12 0 -10 9 -21 19 -24 15 -4 19 -13 18 -41 -1 -23 -7 -36 -16 -36 -10 0
-11 -3 -2 -14 8 -9 8 -16 2 -20 -5 -4 -8 -15 -6 -25 2 -13 -13 -111 -24 -148
-1 -2 -1 -4 -2 -5 -6 -22 -6 -45 1 -58 6 -11 5 -21 -2 -28 -16 -16 -18 -60 -2
-73 8 -6 14 -8 14 -3 0 5 5 2 10 -6 7 -11 10 -11 10 -2 0 7 4 11 9 7 6 -3 15
4 21 15 6 11 18 20 26 20 8 0 23 13 32 30 9 16 20 30 25 30 4 0 7 4 7 9 0 15
81 131 89 127 4 -3 19 6 33 19 18 17 28 21 32 12 3 -8 10 -6 22 8 11 14 15 15
11 4 -5 -15 8 -49 15 -39 2 3 12 19 24 35 42 61 172 309 178 340 10 53 18 105
21 141 2 21 8 40 14 42 6 2 11 10 11 17 0 8 10 19 21 26 14 7 19 7 15 1 -4 -6
5 -35 19 -63 14 -29 25 -59 25 -66 0 -8 5 -11 10 -8 6 3 10 2 10 -3 0 -6 -8
-13 -17 -16 -12 -5 -14 -9 -6 -14 12 -7 16 -25 14 -55 -1 -16 -8 -18 -48 -16
-30 2 -48 -1 -51 -9 -3 -9 6 -11 32 -6 24 3 36 1 36 -7 0 -8 4 -8 15 1 8 7 15
11 16 9 7 -29 4 -111 -4 -116 -6 -3 -7 -1 -3 5 4 7 1 12 -8 12 -20 0 -31 -20
-12 -21 9 -1 22 -2 29 -3 6 0 12 -8 12 -16 0 -8 -6 -14 -14 -12 -12 3 -12 0
-2 -12 9 -11 9 -16 0 -22 -8 -5 -9 -3 -4 6 6 9 4 11 -4 6 -9 -6 -9 -12 3 -25
14 -15 14 -18 1 -18 -8 0 -11 5 -8 11 4 6 -3 3 -14 -7 -11 -9 -23 -14 -26 -10
-4 3 -7 -1 -7 -10 0 -9 5 -19 10 -22 6 -4 9 -1 8 7 -2 7 3 12 10 10 8 -1 11 2
6 10 -5 10 -4 10 6 2 9 -9 4 -20 -26 -47 -28 -26 -41 -32 -49 -23 -5 6 -9 9
-7 7 1 -2 -6 -13 -15 -24 -10 -11 -13 -17 -6 -14 13 8 12 -18 -2 -30 -4 -4 -5
-2 0 6 11 20 -16 9 -29 -12 -22 -35 42 -55 99 -31 25 10 34 10 57 -4 26 -15
45 -52 27 -52 -5 0 -9 7 -9 15 0 17 -16 20 -25 5 -4 -6 -11 -8 -16 -5 -5 3 -6
-1 -3 -9 4 -11 0 -16 -11 -16 -10 0 -15 5 -12 13 3 8 -1 14 -9 14 -12 0 -12
-4 -1 -21 7 -12 12 -33 12 -48 -1 -16 4 -28 11 -28 19 0 24 28 7 34 -19 8 -10
19 19 23 12 2 19 0 15 -3 -4 -4 1 -17 10 -28 15 -17 15 -18 2 -8 -14 10 -18
10 -23 -3 -3 -9 -2 -13 4 -10 6 3 10 -2 10 -13 0 -10 3 -22 7 -25 9 -10 34 43
26 56 -3 6 -1 7 5 3 7 -4 12 -16 12 -26 0 -23 41 -55 51 -39 6 10 23 -26 20
-43 -1 -5 4 -8 10 -8 8 0 8 -5 -1 -15 -10 -12 -10 -18 0 -30 8 -9 8 -15 2 -15
-12 0 -26 36 -18 48 6 11 -22 52 -35 52 -6 0 -8 -3 -6 -8 3 -4 1 -16 -4 -27
-5 -14 -8 -15 -8 -5 -1 10 -22 23 -55 34 -30 11 -57 25 -60 33 -3 8 -10 12
-15 8 -14 -8 -23 12 -26 54 -1 24 -6 36 -16 36 -8 0 -13 9 -12 20 2 20 1 20
-13 0 -9 -11 -21 -19 -27 -17 -7 1 -1 -6 12 -16 14 -11 21 -24 17 -31 -4 -7
-2 -10 5 -9 6 2 14 -4 16 -12 4 -13 3 -13 -6 0 -10 13 -11 13 -11 0 -1 -31
-47 68 -58 124 -17 82 -15 111 9 202 30 114 32 124 23 124 -5 0 -10 -14 -11
-31 -1 -18 -9 -39 -17 -48 -16 -18 -38 -92 -33 -112 2 -8 2 -11 0 -6 -8 13
-23 8 -23 -8 0 -8 4 -15 9 -15 4 0 6 -11 3 -25 -2 -14 -9 -25 -14 -25 -5 0 -6
10 -3 23 13 40 -11 4 -30 -46 -10 -26 -26 -52 -35 -57 -23 -12 -63 -80 -48
-80 6 0 19 7 28 15 14 13 16 12 15 -12 0 -14 -5 -28 -12 -30 -7 -3 -10 -10 -7
-17 3 -9 -5 -15 -23 -18 -15 -3 -36 -9 -46 -13 -14 -6 -16 -4 -10 11 4 12 3
15 -5 10 -16 -10 -15 -22 3 -40 13 -13 13 -15 -5 -21 -11 -4 -54 -33 -95 -66
-80 -63 -90 -67 -99 -44 -3 8 -10 15 -15 15 -6 0 -8 -6 -5 -14 8 -20 -14 -30
-33 -14 -14 11 -16 11 -9 -1 12 -19 -14 -33 -33 -18 -12 10 -14 9 -8 -5 3 -10
3 -17 -1 -17 -22 4 -42 -2 -37 -11 3 -5 1 -10 -4 -10 -6 0 -20 -9 -31 -20 -11
-11 -26 -20 -34 -20 -8 0 -18 -9 -21 -20 -3 -11 -11 -20 -16 -20 -6 0 -23 -14
-39 -32 -27 -29 -28 -33 -14 -49 16 -18 4 -36 -16 -24 -7 4 -8 -3 -4 -20 4
-18 1 -32 -11 -45 -10 -11 -13 -20 -7 -20 6 0 19 12 29 26 17 23 22 25 41 15
12 -6 22 -19 22 -27 0 -13 8 -15 43 -9 23 3 59 7 79 8 31 1 40 6 55 34 13 24
20 29 30 22 6 -6 16 -8 21 -5 5 3 9 -2 9 -10 0 -10 -7 -14 -17 -11 -14 4 -15
1 -6 -18 10 -21 14 -16 59 66 26 49 50 89 52 89 6 0 -29 -115 -36 -118 -4 -2
-6 -9 -3 -17 3 -7 1 -16 -5 -20 -21 -12 -11 -25 19 -25 19 0 29 5 27 12 -1 7
6 12 15 10 9 -1 50 6 90 16 40 10 83 18 96 17 21 -2 28 6 16 17 -3 3 -31 0
-63 -8 -84 -19 -114 -24 -107 -17 4 4 12 8 19 9 7 1 41 9 77 19 62 16 237 34
259 27 6 -2 9 -8 5 -13 -3 -5 -39 -9 -80 -9 -43 0 -74 -4 -74 -10 0 -10 18
-12 98 -13 23 0 42 -4 42 -9 0 -10 12 -9 -140 -12 -69 -1 -132 -6 -140 -11 -8
-5 -35 -13 -60 -17 -35 -5 -32 -6 15 -2 90 8 185 10 185 4 0 -3 59 -6 131 -8
75 -2 129 1 125 6 -3 5 1 9 9 9 8 0 15 -5 15 -10 0 -5 8 -3 17 4 14 12 16 12
8 0 -6 -10 -4 -12 6 -6 7 5 38 10 69 12 110 6 119 20 13 19 -60 -1 -106 3
-113 10 -7 7 6 9 44 7 30 -1 58 -3 63 -4 24 -6 125 15 130 27 3 8 9 12 13 9 5
-3 6 10 3 30 -5 29 -2 35 11 35 14 0 17 -7 14 -33 -3 -29 -1 -32 22 -29 22 3
117 40 160 61 8 5 16 23 17 42 1 19 5 42 7 52 5 22 -24 23 -65 1 -17 -8 -36
-13 -42 -11 -7 3 6 12 28 21 94 39 85 25 87 133 l2 98 3 -93 c3 -72 7 -92 18
-92 15 0 17 17 16 150 l0 55 10 -40 c5 -22 8 -64 6 -93 -2 -43 0 -52 13 -50
12 3 15 21 16 93 1 50 -2 109 -6 132 -8 44 1 55 43 57 17 1 25 21 8 21 -5 0
-13 3 -17 7 -9 10 16 39 27 32 5 -3 9 -2 9 1 0 7 -50 26 -64 24 -9 -1 -26 20
-26 34 0 5 9 6 19 2 30 -9 61 -14 61 -10 0 12 -44 43 -55 39 -7 -3 -15 -1 -18
3 -3 5 3 9 13 10 11 1 22 -3 25 -8 4 -5 11 -7 16 -3 5 3 6 11 2 17 -14 23 -11
38 10 46 l21 8 -22 5 c-13 4 -26 7 -30 8 -4 1 -12 6 -19 12 -7 5 -17 7 -23 3
-5 -3 -10 -1 -10 5 0 7 -8 9 -19 5 -13 -4 -23 0 -29 11 -8 14 -19 16 -58 11
-27 -3 -60 -8 -74 -11 -21 -5 -21 -4 5 8 17 9 42 15 58 16 26 0 34 9 21 23 -4
3 -23 0 -43 -8 -20 -7 -52 -16 -73 -20 l-36 -6 0 47 c0 42 2 45 21 40 12 -3
26 1 35 12 13 16 13 16 7 -2 -6 -19 -5 -19 14 -2 11 10 19 21 18 25 -1 3 1 7
6 9 16 5 27 2 27 -9 0 -5 -4 -8 -9 -5 -5 3 -11 -3 -14 -14 -7 -26 8 -26 27 1
13 19 18 20 46 10 28 -9 31 -9 20 4 -7 8 -18 15 -24 15 -22 0 -86 21 -86 28 0
4 11 7 25 7 14 0 25 -3 25 -7 0 -5 7 -8 15 -8 9 0 26 -7 38 -15 13 -8 48 -23
78 -34 121 -43 134 -49 134 -67 0 -9 6 -19 13 -22 6 -2 12 1 12 7 0 6 9 11 21
11 13 0 19 -5 16 -13 -3 -8 3 -13 14 -13 11 0 19 4 19 8 0 4 10 8 23 9 12 0
16 3 9 6 -19 8 -4 22 18 16 11 -3 18 -9 15 -13 -2 -4 16 -5 40 -2 29 2 45 0
45 -7 0 -7 9 -9 24 -5 25 6 66 -10 66 -26 0 -6 -3 -9 -7 -9 -5 1 -21 1 -38 0
-23 -1 -26 -4 -15 -11 8 -5 25 -6 38 -3 15 3 27 1 33 -8 7 -11 9 -11 9 2 0 9
7 20 16 23 21 8 24 8 24 -5 0 -5 -4 -8 -9 -4 -5 3 -12 1 -15 -4 -3 -5 8 -11
25 -15 22 -4 30 -10 25 -21 -3 -8 -1 -15 5 -15 6 0 9 -7 5 -15 -3 -8 -2 -16 2
-16 20 -5 98 -11 187 -15 111 -6 125 -8 125 -24 0 -6 -5 -8 -12 -3 -7 4 -60 8
-118 10 -58 1 -105 3 -105 4 0 4 -51 7 -62 4 -9 -3 -10 -11 -4 -27 5 -13 12
-43 15 -68 3 -25 10 -67 14 -95 4 -27 7 -87 7 -133 -1 -79 8 -112 21 -77 5 12
9 13 21 3 26 -21 34 11 29 112 -3 52 -8 106 -10 120 -12 69 -17 124 -12 119
14 -14 37 -163 39 -252 1 -96 1 -97 27 -98 14 -1 30 0 35 1 6 2 36 3 68 4 l57
0 0 162 c0 121 -3 164 -12 167 -10 4 -10 7 -1 14 8 5 12 29 12 59 l-2 50 -133
43 c-85 27 -141 40 -156 36 -16 -4 -19 -4 -9 3 10 7 -19 18 -101 36 -63 15
-119 26 -124 25 -5 -2 -47 9 -93 24 -78 24 -85 25 -108 10 -18 -12 -21 -18
-11 -24 10 -7 9 -9 -4 -9 -24 0 -23 16 2 33 18 12 10 17 -100 61 -146 57 -334
118 -432 142 -94 22 -114 40 -123 112 -4 31 -15 79 -25 106 -23 60 -110 174
-188 248 l-59 55 13 124 c7 68 19 160 26 204 6 44 11 86 9 94 -1 7 2 10 8 6 6
-3 11 -2 11 4 0 5 3 18 6 28 5 15 4 15 -5 3 -7 -9 -11 -10 -11 -3 0 6 5 15 10
18 6 4 8 11 5 16 -4 5 -1 17 4 26 8 14 10 15 11 3 0 -13 1 -13 10 0 6 9 5 17
-3 22 -9 6 -9 12 0 27 13 21 42 138 50 204 6 44 13 46 47 12 33 -33 90 -34
137 -2 56 38 102 109 183 288 107 235 129 299 120 358 -8 58 -47 163 -74 201
-24 34 -79 54 -129 47 l-36 -4 -1 176 c-1 138 -5 201 -23 291 -12 63 -24 124
-25 135 -9 52 -39 133 -70 189 -19 33 -44 81 -57 106 -75 147 -179 274 -309
379 -25 20 -46 39 -48 44 -2 4 -9 7 -15 7 -7 0 -28 14 -47 31 -32 28 -226 129
-249 129 -5 0 -36 11 -68 24 -86 36 -97 39 -110 37 -7 -1 -13 3 -13 9 0 7 -6
10 -12 7 -7 -2 -30 2 -52 9 -21 8 -42 11 -47 8 -5 -3 -9 0 -9 6 0 7 -12 9 -35
4 -23 -4 -41 -2 -51 7 -12 10 -17 10 -23 0 -6 -9 -15 -9 -34 -2 -22 9 -27 8
-27 -5z m363 -209 c-3 -8 -9 -15 -14 -15 -10 0 -12 24 -3 33 11 11 24 -3 17
-18z m97 3 c0 -10 -2 -18 -5 -18 -3 0 -15 8 -25 18 -19 18 -19 18 5 18 17 0
25 -6 25 -18z m-45 -14 c14 -9 25 -20 25 -23 0 -11 -33 -10 -47 1 -7 5 -17 7
-23 3 -12 -7 -12 -3 -4 19 8 20 18 20 49 0z m55 -484 c0 -5 -7 -7 -15 -4 -8 4
-15 8 -15 10 0 2 7 4 15 4 8 0 15 -4 15 -10z m385 -117 c4 -16 2 -23 -7 -23
-23 0 -35 19 -30 46 4 21 7 23 17 12 7 -7 16 -23 20 -35z m-268 -170 c-4 -3
-13 0 -22 7 -12 10 -13 16 -3 27 11 13 14 12 22 -6 5 -12 6 -24 3 -28z m23
-53 c-13 -13 -20 -15 -21 -7 0 9 -2 9 -6 -1 -2 -6 -9 -10 -14 -7 -5 4 -6 -1
-3 -9 3 -9 1 -16 -5 -16 -19 0 -12 39 9 50 11 6 22 26 26 47 l7 38 13 -38 c12
-34 11 -40 -6 -57z m-630 -164 c0 -2 -8 -10 -17 -17 -16 -13 -17 -12 -4 4 13
16 21 21 21 13z m430 -41 c0 -11 -31 -11 -39 -1 -9 10 -6 12 14 8 14 -2 25 -6
25 -7z m-130 -73 c0 -5 14 -9 32 -10 17 0 34 -6 38 -12 4 -6 14 -8 23 -4 18 6
22 -4 9 -21 -10 -14 -48 -20 -117 -19 -121 3 -144 13 -78 35 21 6 44 18 51 26
15 14 42 18 42 5z m-40 -102 c0 -5 -10 -10 -22 -9 -22 0 -22 1 -3 9 11 5 21 9
23 9 1 1 2 -3 2 -9z m53 3 c-7 -2 -21 -2 -30 0 -10 3 -4 5 12 5 17 0 24 -2 18
-5z m-83 -74 c0 -43 18 -59 65 -59 34 0 45 -4 45 -16 0 -11 6 -14 20 -9 12 4
43 1 71 -6 48 -12 49 -13 27 -26 -13 -7 -16 -13 -8 -12 36 3 50 -2 50 -20 0
-10 7 -22 16 -25 11 -4 15 -2 11 6 -23 63 -14 80 16 29 9 -16 26 -31 37 -34
24 -6 26 6 4 27 -8 9 -12 16 -7 16 5 0 14 -5 21 -12 9 -9 18 -5 39 19 16 17
38 33 50 37 14 4 20 13 18 25 -3 14 2 16 27 13 23 -4 29 -1 23 8 -5 8 -3 11 6
8 8 -3 14 -13 14 -24 0 -27 23 -64 40 -64 8 0 15 -4 15 -10 0 -5 -6 -10 -14
-10 -10 0 -13 -12 -12 -42 2 -30 -2 -47 -13 -55 -13 -9 -13 -14 -4 -24 10 -10
7 -17 -12 -35 -14 -13 -25 -29 -25 -36 0 -9 -3 -9 -10 2 -8 12 -10 11 -10 -7
0 -40 -30 -102 -46 -96 -10 4 -12 0 -8 -11 3 -9 2 -16 -3 -16 -4 0 -17 -16
-27 -35 -10 -19 -22 -32 -26 -30 -4 2 -5 -7 -2 -20 2 -15 0 -25 -7 -25 -7 0
-9 -9 -5 -25 4 -16 2 -25 -6 -25 -8 0 -11 -9 -8 -25 3 -14 1 -25 -4 -25 -12 0
-2 -64 11 -68 15 -5 1 -32 -16 -32 -12 0 -12 -2 1 -16 9 -8 16 -21 17 -27 0
-7 2 -23 3 -36 2 -14 -3 -36 -10 -49 -13 -26 -8 -56 7 -46 14 8 11 -40 -3 -54
-9 -9 -9 -12 1 -12 8 0 11 -7 8 -19 -3 -11 2 -29 10 -40 12 -18 12 -21 0 -21
-8 0 -14 -10 -14 -22 -1 -13 -2 -39 -3 -58 l-2 -35 -10 35 c-6 19 -13 29 -15
22 -3 -6 -9 -9 -15 -6 -5 4 -5 -3 2 -16 6 -12 10 -24 7 -26 -2 -2 -10 7 -17
21 -7 14 -17 25 -22 25 -5 0 -7 -4 -3 -9 3 -6 7 -31 9 -56 3 -39 -1 -51 -21
-73 l-25 -27 22 33 c12 17 19 32 16 32 -16 0 -21 -3 -19 -10 1 -4 -12 -20 -29
-36 l-31 -29 17 27 c24 38 13 201 -16 230 -10 10 -18 24 -16 31 4 22 -14 100
-21 89 -8 -14 -73 -1 -79 16 -3 9 3 10 25 2 l28 -10 -25 19 c-14 11 -27 16
-28 10 -2 -5 -8 -6 -13 -3 -6 3 -7 -5 -3 -22 5 -19 4 -25 -5 -20 -6 4 -11 2
-11 -3 0 -6 -5 -11 -11 -11 -6 0 -8 8 -4 19 3 10 -1 24 -10 31 -12 10 -15 10
-15 -1 0 -7 -15 1 -33 19 -35 34 -60 42 -51 17 3 -8 11 -13 16 -12 6 1 13 -5
15 -13 4 -12 3 -12 -5 -1 -7 10 -11 10 -17 1 -5 -8 -13 -3 -26 17 -19 29 -46
39 -41 14 3 -12 1 -12 -14 0 -16 13 -16 14 -1 17 10 2 17 8 17 13 0 6 -9 8
-19 4 -14 -4 -21 0 -26 15 -3 11 -11 20 -17 20 -5 0 -8 6 -5 14 3 8 1 17 -6
20 -9 3 -8 8 3 15 8 6 11 11 7 11 -15 0 21 30 36 30 7 0 24 20 36 44 20 39 21
47 10 85 -7 22 -16 41 -21 41 -5 0 -20 24 -32 52 -18 40 -21 60 -15 82 5 16 5
34 1 40 -3 6 -8 22 -10 35 -2 14 -7 32 -12 41 -6 10 -5 21 1 27 6 6 4 22 -6
46 -10 23 -11 37 -5 37 6 0 -1 15 -15 34 -27 36 -48 93 -37 100 4 2 37 -1 75
-6 45 -6 73 -5 85 1 15 9 14 10 -7 8 -13 -1 -26 4 -28 11 -3 7 4 12 17 12 11
0 33 11 48 25 33 30 52 32 52 4z m150 -53 c0 -2 -8 -10 -17 -17 -16 -13 -17
-12 -4 4 13 16 21 21 21 13z m1000 -68 c0 -21 4 -22 30 -8 15 8 24 6 40 -10
28 -28 26 -48 -5 -42 -14 2 -25 8 -25 13 0 5 -7 6 -15 3 -8 -4 -15 -2 -15 3 0
5 -9 9 -20 9 -11 0 -20 -3 -20 -7 0 -6 -26 -18 -74 -33 -15 -5 -17 -2 -13 14
4 15 1 20 -10 18 -19 -4 -26 12 -14 30 10 16 62 29 108 28 24 -1 33 -6 33 -18z
m165 -185 c8 -32 9 -57 3 -75 -9 -26 -33 -44 -42 -30 -9 16 -27 165 -21 180
10 26 46 -18 60 -75z m-131 -75 c-3 -4 3 -19 12 -33 24 -37 7 -45 -22 -10 -14
17 -20 33 -14 39 4 4 6 16 2 24 -5 14 -4 15 10 2 9 -8 14 -18 12 -22z m-39 12
c3 -5 -1 -10 -10 -10 -9 0 -13 5 -10 10 3 6 8 10 10 10 2 0 7 -4 10 -10z
m-1380 -82 c14 -6 25 -15 25 -19 0 -11 -31 -26 -47 -23 -7 1 -20 2 -28 3 -19
1 -19 15 1 35 18 19 17 19 49 4z m1455 -75 c0 -64 -18 -109 -54 -137 -41 -31
-73 -27 -54 7 15 27 16 50 3 59 -6 4 4 21 24 40 37 37 54 70 38 79 -5 4 -6 12
-2 19 13 21 45 -26 45 -67z m67 9 c-6 -32 -38 -114 -43 -109 -2 2 4 41 13 86
12 60 19 78 25 67 5 -9 7 -29 5 -44z m-1852 -160 c6 -22 45 -42 80 -42 13 0
31 -7 40 -16 14 -15 14 -18 -5 -34 -11 -9 -20 -28 -21 -41 l0 -24 -9 22 c-7
16 -14 21 -26 16 -13 -5 -16 -3 -11 10 3 9 2 17 -3 17 -6 0 -10 -4 -10 -10 0
-5 -5 -10 -11 -10 -5 0 -7 6 -3 13 5 7 1 7 -10 -2 -9 -8 -29 -16 -43 -17 l-25
-3 23 25 24 26 -29 -8 c-21 -5 -27 -4 -22 5 4 6 3 11 -3 11 -6 0 -7 8 -4 18 6
14 4 15 -8 5 -13 -10 -19 -10 -34 1 -23 17 -11 36 23 36 15 0 34 5 42 10 23
15 38 12 45 -8z m946 -34 c-11 -10 -13 -10 -7 0 4 6 2 12 -4 12 -6 0 -8 5 -4
11 4 8 9 8 17 0 8 -8 7 -14 -2 -23z m799 -30 c-1 -15 -50 -77 -50 -63 0 12 38
75 45 75 3 0 5 -6 5 -12z m-785 -38 c3 -5 1 -10 -4 -10 -6 0 -11 5 -11 10 0 6
2 10 4 10 3 0 8 -4 11 -10z m42 -59 c-1 -20 -6 -26 -13 -20 -6 5 -14 6 -17 2
-13 -12 -7 18 6 32 19 22 26 18 24 -14z m-1039 -18 c-2 -9 -10 -19 -18 -21
-12 -4 -13 -3 -3 10 7 8 10 18 6 21 -3 4 -1 7 6 7 7 0 11 -8 9 -17z m225 -48
c-3 -9 -8 -14 -10 -11 -3 3 -2 9 2 15 9 16 15 13 8 -4z m787 -27 c0 -6 -7 -7
-16 -4 -9 3 -18 6 -20 6 -3 0 -3 4 1 10 7 11 35 2 35 -12z m365 -18 c10 -11
16 -20 13 -20 -3 0 -13 9 -23 20 -10 11 -16 20 -13 20 3 0 13 -9 23 -20z
m-1558 -5 c0 -8 -4 -12 -9 -9 -4 3 -8 9 -8 15 0 5 4 9 8 9 5 0 9 -7 9 -15z
m443 -6 c0 -5 8 -9 18 -9 22 0 72 -22 72 -32 0 -5 -17 -5 -37 -1 -63 10 -96 6
-151 -22 -55 -27 -85 -27 -157 -3 -26 9 -38 6 -80 -16 -28 -15 -62 -36 -77
-48 -14 -11 -31 -17 -37 -14 -13 8 -15 46 -2 46 4 0 25 13 46 30 20 16 41 27
46 25 4 -3 14 4 22 15 8 12 24 19 43 18 128 -4 202 0 229 13 30 15 65 14 65
-2z m477 -161 c-3 -7 -5 -2 -5 12 0 14 2 19 5 13 2 -7 2 -19 0 -25z m-331 -5
c5 -17 3 -28 -4 -31 -25 -8 -11 -21 18 -18 23 3 28 1 20 -9 -6 -7 -21 -15 -33
-18 -12 -2 -31 -8 -41 -12 -15 -7 -17 -5 -11 6 5 7 -4 4 -19 -9 -16 -12 -35
-22 -42 -22 -8 0 -11 -6 -7 -16 5 -13 2 -15 -17 -9 -21 7 -23 5 -17 -23 4 -17
2 -34 -3 -37 -6 -4 -10 9 -10 30 0 36 -1 37 -27 30 -16 -4 -36 -7 -45 -7 -18
1 -21 -6 -19 -43 1 -19 0 -19 -8 2 -11 24 -73 43 -79 24 -5 -14 -42 -15 -42
-1 0 18 -20 11 -21 -7 0 -11 -3 -13 -6 -5 -8 19 -29 14 -41 -10 l-11 -23 -7
23 c-8 29 -21 28 -26 -3 -4 -17 -1 -25 8 -25 8 0 14 -7 14 -16 0 -8 4 -13 9
-9 6 3 13 -1 18 -8 19 -33 80 -50 156 -43 169 14 291 38 318 61 10 10 25 15
34 11 15 -5 46 23 124 113 12 13 24 21 27 18 4 -4 14 8 24 25 9 17 27 35 40
40 19 7 21 6 11 -6 -10 -12 -9 -13 9 -9 11 3 20 2 18 -3 -2 -5 5 -28 16 -51
18 -41 18 -41 -4 -63 -18 -18 -24 -19 -37 -8 -13 10 -19 8 -39 -17 -21 -26
-24 -27 -24 -10 0 16 -2 17 -10 5 -5 -8 -12 -11 -16 -7 -4 4 -13 -5 -21 -20
-14 -27 -9 -63 9 -63 7 0 6 -5 -1 -14 -14 -17 0 -29 22 -20 11 4 16 -2 19 -23
2 -20 8 -28 23 -28 11 0 21 -7 21 -15 3 -32 5 -34 14 -20 5 8 10 10 10 4 0
-18 -12 -24 -26 -13 -7 6 -10 18 -7 27 6 15 4 15 -14 -1 -19 -16 -24 -17 -62
-4 -22 8 -41 11 -41 5 0 -5 -7 -5 -17 0 -26 13 -52 -17 -42 -46 5 -12 12 -22
17 -22 5 0 9 -7 9 -15 0 -19 -5 -19 -24 1 -12 12 -18 13 -24 3 -8 -14 -1 -41
10 -34 19 11 -19 -90 -39 -107 -13 -10 -25 -30 -26 -43 -3 -30 -54 -89 -54
-63 0 9 6 19 13 21 7 3 5 6 -5 6 -10 1 -18 6 -18 11 0 7 6 7 20 0 23 -12 23
-11 24 60 1 38 4 45 21 45 14 0 19 -6 17 -19 -3 -17 -2 -18 12 -7 12 10 13 17
6 26 -8 9 -8 15 0 20 13 8 13 35 -1 35 -5 0 -8 -4 -4 -9 3 -5 2 -12 -3 -15 -4
-2 -9 4 -9 15 -1 10 4 19 12 19 16 0 8 38 -12 58 -11 11 -13 11 -14 0 -1 -7
-3 -20 -4 -28 -1 -8 -3 -24 -4 -35 -2 -14 -5 -11 -14 14 -15 44 -37 53 -37 15
0 -27 -1 -27 -16 -8 -8 10 -13 14 -10 7 4 -6 1 -15 -5 -19 -7 -4 -10 -3 -7 2
3 5 2 18 -3 29 -7 19 -8 19 -8 1 -1 -20 -1 -20 -16 0 -13 18 -14 18 -8 -6 3
-14 10 -30 14 -35 13 -17 7 -53 -8 -48 -9 4 -11 0 -7 -11 3 -9 1 -16 -5 -16
-6 0 -8 -7 -4 -17 4 -10 2 -14 -5 -9 -6 3 -13 -3 -17 -14 -3 -11 -12 -20 -18
-20 -31 0 -56 14 -62 33 -4 14 -8 17 -12 10 -6 -17 -23 -17 -23 0 0 7 -9 23
-20 34 -14 15 -16 23 -7 26 7 3 2 6 -10 6 -12 1 -27 -7 -32 -16 -9 -16 -11
-15 -11 7 -1 15 -4 19 -7 10 -9 -23 -46 -49 -69 -50 -12 0 -29 -11 -38 -25
-20 -30 -20 -30 29 -5 28 14 41 17 46 8 5 -8 12 -6 24 5 27 28 26 20 -6 -35
-20 -33 -27 -53 -19 -58 7 -4 4 -13 -9 -24 -11 -10 -17 -24 -14 -32 3 -8 1
-14 -4 -14 -14 0 -12 33 4 48 7 8 10 18 6 24 -4 7 -15 1 -30 -16 -16 -19 -23
-22 -23 -12 0 9 5 16 10 16 6 0 10 5 10 10 0 6 -9 10 -20 10 -11 0 -20 5 -20
10 0 6 8 10 18 10 9 0 23 9 30 21 17 26 10 35 -11 14 -9 -8 -20 -15 -26 -15
-5 0 -14 -8 -20 -17 -5 -10 -13 -15 -17 -11 -4 4 -1 14 6 23 12 15 4 21 -24
16 -5 -1 -6 5 -3 12 5 13 1 13 -24 0 -16 -8 -29 -19 -29 -24 0 -13 18 -11 23
4 4 9 6 9 6 0 2 -21 -22 -27 -35 -8 -11 14 -14 15 -18 4 -2 -8 -7 -21 -9 -29
-3 -8 -6 -3 -6 13 -1 15 -6 27 -11 27 -6 0 -5 6 2 14 7 8 16 12 20 10 4 -3 19
3 33 12 24 16 25 16 18 -2 -6 -18 -6 -18 14 -1 19 16 21 17 27 1 5 -12 9 -14
20 -5 7 6 16 9 19 6 4 -3 5 -2 2 1 -2 4 0 15 5 24 8 14 5 19 -15 22 -13 3 -29
0 -34 -5 -12 -12 -41 -18 -41 -9 0 4 5 14 10 22 8 13 10 12 10 -4 0 -17 5 -15
35 14 19 19 35 29 35 23 0 -6 -6 -13 -12 -15 -7 -3 -2 -7 10 -10 26 -7 28 6 7
53 -12 28 -14 30 -15 12 0 -13 -4 -23 -9 -23 -5 0 -8 11 -7 24 2 17 -1 23 -11
19 -7 -3 -11 -13 -8 -22 3 -10 -4 -22 -16 -31 -12 -8 -27 -21 -35 -27 -17 -17
-29 -16 -45 5 -13 15 -12 16 4 3 15 -12 21 -11 42 9 14 13 25 28 25 32 0 5 -7
2 -16 -7 -15 -14 -17 -14 -29 2 -12 16 -10 20 8 31 14 8 16 11 5 8 -10 -3 -18
-1 -18 5 0 7 -12 8 -32 4 l-33 -7 19 21 c12 14 15 21 6 21 -8 0 -11 9 -8 24 4
20 1 23 -19 21 -31 -3 -30 18 2 35 14 7 25 17 25 21 0 11 -42 8 -57 -4 -18
-13 -17 8 1 26 11 11 12 17 3 26 -8 8 -7 11 4 11 12 0 12 2 -1 10 -9 6 -11 13
-5 18 6 4 11 16 11 27 7 90 23 114 96 141 80 29 123 36 258 39 109 3 262 15
302 23 4 1 11 -10 14 -25z m424 -13 c0 -5 -5 -10 -11 -10 -5 0 -7 5 -4 10 3 6
8 10 11 10 2 0 4 -4 4 -10z m-353 -15 c0 -8 -4 -15 -9 -15 -10 0 -11 14 -1 23
9 10 10 9 10 -8z m-793 -30 c-4 -8 -8 -15 -10 -15 -2 0 -4 7 -4 15 0 8 4 15
10 15 5 0 7 -7 4 -15z m1152 -32 c-3 -4 -6 -1 -6 7 0 10 -4 10 -17 -1 -15 -12
-16 -12 -10 4 4 10 7 24 7 30 0 6 7 1 16 -11 9 -13 13 -26 10 -29z m314 -23
c0 -5 -2 -10 -4 -10 -3 0 -8 5 -11 10 -3 6 -1 10 4 10 6 0 11 -4 11 -10z
m-323 -42 c-3 -8 -6 -5 -6 6 -1 11 2 17 5 13 3 -3 4 -12 1 -19z m153 0 c0 -6
-6 -5 -15 2 -8 7 -15 14 -15 16 0 2 7 1 15 -2 8 -4 15 -11 15 -16z m-224 -33
c-22 -17 -66 -20 -66 -6 0 6 17 12 38 14 20 2 39 4 42 5 3 1 -4 -5 -14 -13z
m154 -55 c-8 -5 -19 -10 -25 -10 -5 0 -3 5 5 10 8 5 20 10 25 10 6 0 3 -5 -5
-10z m-1239 -63 c-8 -8 -11 -4 -11 14 0 33 14 47 18 19 2 -12 -1 -27 -7 -33z
m1087 28 c-3 -3 -9 2 -12 12 -6 14 -5 15 5 6 7 -7 10 -15 7 -18z m-25 -13 c4
9 6 7 6 -4 1 -9 4 -25 8 -35 6 -16 5 -16 -8 -3 -8 8 -21 24 -29 35 -14 18 -14
19 2 7 13 -10 17 -10 21 0z m47 -18 c0 -8 -4 -12 -10 -9 -5 3 -10 10 -10 16 0
5 5 9 10 9 6 0 10 -7 10 -16z m-1176 -20 c3 -8 2 -12 -4 -9 -6 3 -10 10 -10
16 0 14 7 11 14 -7z m111 -13 c-3 -6 -11 -11 -17 -11 -6 0 -6 6 2 15 14 17 26
13 15 -4z m3 -66 c-3 -3 -9 2 -12 12 -6 14 -5 15 5 6 7 -7 10 -15 7 -18z m876
-14 c4 -5 -3 -7 -14 -4 -23 6 -26 13 -6 13 8 0 17 -4 20 -9z m-937 -33 c-3 -7
-5 -2 -5 12 0 14 2 19 5 13 2 -7 2 -19 0 -25z m1048 22 c-3 -5 -12 -10 -18
-10 -7 0 -6 4 3 10 19 12 23 12 15 0z m-90 -62 c3 -58 3 -58 21 -58 8 0 12 -4
9 -10 -18 -29 -45 20 -45 82 0 53 12 41 15 -14z m-995 26 c0 -14 -3 -14 -15
-4 -8 7 -15 14 -15 16 0 2 7 4 15 4 8 0 15 -7 15 -16z m1070 -4 c0 -5 -4 -10
-10 -10 -5 0 -7 -7 -4 -15 4 -8 1 -15 -5 -15 -6 0 -11 11 -11 25 0 16 6 25 15
25 8 0 15 -4 15 -10z m180 -44 c0 -6 -7 -1 -15 10 -8 10 -15 23 -15 28 0 6 7
1 15 -10 8 -10 15 -23 15 -28z m-307 6 c3 8 6 8 6 2 1 -7 -11 -19 -25 -29 -20
-13 -29 -14 -38 -5 -8 9 -7 11 4 8 10 -2 15 4 14 20 -1 20 1 21 17 6 13 -12
18 -13 22 -2z m152 7 c11 -17 -1 -21 -15 -4 -8 9 -8 15 -2 15 6 0 14 -5 17
-11z m-128 -38 c-1 -17 -6 -26 -10 -21 -8 7 -1 50 8 50 2 0 3 -13 2 -29z m87
-3 c17 -25 22 -63 6 -53 -5 3 -6 13 -3 22 5 12 3 14 -7 8 -9 -5 -11 -4 -6 4 4
6 0 14 -8 17 -9 3 -16 10 -16 15 0 16 19 9 34 -13z m-154 -29 c0 -8 5 -8 15 1
12 10 15 9 15 -7 0 -22 -94 -123 -113 -122 -9 0 -9 2 1 6 7 2 17 14 23 25 10
18 9 19 -11 8 -12 -6 -23 -10 -25 -8 -7 7 7 48 16 48 5 0 6 -8 2 -17 -4 -12 5
-7 25 12 17 17 32 38 32 48 0 9 5 17 10 17 6 0 10 -5 10 -11z m-170 -9 c0 -5
-5 -10 -11 -10 -5 0 -7 5 -4 10 3 6 8 10 11 10 2 0 4 -4 4 -10z m-647 -30 c3
-11 2 -18 -3 -15 -4 3 -10 14 -13 25 -3 11 -2 18 3 15 4 -3 10 -14 13 -25z
m947 -1 c0 -5 5 -7 11 -3 7 4 10 1 7 -6 -7 -22 -25 -22 -31 0 -3 11 -1 20 4
20 5 0 9 -5 9 -11z m-23 -77 c-4 -13 -5 -12 -6 5 0 12 -5 25 -11 28 -5 3 -10
11 -10 18 0 6 7 1 16 -11 8 -12 13 -30 11 -40z m-81 23 c-11 -8 -29 -15 -40
-14 -15 0 -11 4 14 14 45 17 49 17 26 0z m48 -10 c-6 -16 -35 -35 -51 -35 -7
1 47 50 54 50 1 0 0 -7 -3 -15z m-683 -26 c-5 -13 -10 -19 -10 -12 -1 15 10
45 15 40 3 -2 0 -15 -5 -28z m604 -19 c-4 -12 -9 -19 -12 -17 -3 3 -2 15 2 27
4 12 9 19 12 17 3 -3 2 -15 -2 -27z m-585 -20 c0 -5 -2 -10 -4 -10 -3 0 -8 5
-11 10 -3 6 -1 10 4 10 6 0 11 -4 11 -10z m54 -23 c5 4 3 -2 -5 -14 -16 -26
-15 -27 -22 17 -6 32 -6 33 6 12 7 -12 17 -19 21 -15z m33 -19 c-3 -8 -6 -5
-6 6 -1 11 2 17 5 13 3 -3 4 -12 1 -19z m1512 -147 c8 -5 9 -11 3 -15 -5 -3
-15 1 -22 9 -14 16 -3 20 19 6z m-1569 -18 c0 -3 -7 -3 -15 1 -8 3 -15 0 -15
-6 0 -6 -3 -9 -6 -5 -11 10 6 26 21 20 8 -3 15 -7 15 -10z m1505 -3 c3 -5 1
-10 -4 -10 -6 0 -11 5 -11 10 0 6 2 10 4 10 3 0 8 -4 11 -10z m-1485 -39 c0
-5 8 -12 18 -14 13 -4 14 -5 1 -6 -8 0 -24 6 -35 14 -17 13 -17 14 -1 15 9 0
17 -4 17 -9z m55 -41 c3 -5 2 -10 -4 -10 -5 0 -13 5 -16 10 -3 6 -2 10 4 10 5
0 13 -4 16 -10z m55 6 c0 -2 -7 -7 -16 -10 -8 -3 -12 -2 -9 4 6 10 25 14 25 6z
m1450 -18 c8 -13 15 -30 16 -38 1 -9 4 -38 8 -65 5 -28 4 -46 0 -42 -4 4 -9
13 -10 20 -10 46 -15 61 -25 73 -6 8 -8 14 -4 14 4 0 2 7 -5 15 -7 8 -9 15 -4
15 4 0 -1 7 -12 15 -19 14 -19 14 1 15 11 0 27 -10 35 -22z m-1240 -23 c-7 -8
-17 -15 -23 -15 -5 0 -2 9 8 20 21 23 35 19 15 -5z m-15 -65 c3 -5 1 -10 -4
-10 -6 0 -11 5 -11 10 0 6 2 10 4 10 3 0 8 -4 11 -10z m1335 -53 c0 -25 -4
-36 -11 -31 -6 3 -9 15 -6 25 3 10 1 21 -3 24 -4 3 -6 14 -3 26 8 31 23 3 23
-44z m-45 -37 c8 -13 -5 -13 -25 0 -13 8 -13 10 2 10 9 0 20 -4 23 -10z m15
-36 c0 -2 -7 -4 -15 -4 -8 0 -15 4 -15 10 0 5 7 7 15 4 8 -4 15 -8 15 -10z
m307 -50 c-3 -3 -12 -4 -19 -1 -8 3 -5 6 6 6 11 1 17 -2 13 -5z m-11 -32 c-7
-7 -46 9 -46 18 0 5 11 4 25 -2 14 -6 23 -13 21 -16z m221 2 c-3 -3 -12 -4
-19 -1 -8 3 -5 6 6 6 11 1 17 -2 13 -5z m-242 -24 c4 -6 -10 -9 -35 -7 -22 1
-40 5 -40 10 0 11 68 9 75 -3z m-1075 -4 c0 -3 -4 -8 -10 -11 -5 -3 -10 -1
-10 4 0 6 5 11 10 11 6 0 10 -2 10 -4z m1080 -120 c0 -2 -7 -7 -16 -10 -8 -3
-12 -2 -9 4 6 10 25 14 25 6z m150 -5 c0 -14 -18 -23 -24 -12 -4 5 -36 1 -76
-9 -38 -10 -70 -14 -70 -9 0 5 3 9 8 9 4 1 30 7 57 15 59 16 105 19 105 6z
m654 -6 c-7 -16 -24 -21 -24 -6 0 8 7 13 27 20 1 1 0 -6 -3 -14z m-970 -63
c-5 -26 -5 -26 10 -7 9 11 16 14 16 8 0 -7 0 -16 0 -20 0 -4 -6 -8 -15 -9 -16
-2 -39 29 -28 40 3 3 -1 6 -11 6 -9 0 -15 4 -12 9 3 5 15 7 25 4 15 -4 18 -11
15 -31z m316 7 c0 -11 -4 -17 -10 -14 -5 3 -10 15 -10 26 0 11 5 17 10 14 6
-3 10 -15 10 -26z m40 4 c0 -20 -3 -24 -11 -16 -7 7 -9 19 -6 27 10 24 17 19
17 -11z m674 11 c9 -24 7 -28 -9 -14 -17 14 -20 30 -6 30 5 0 12 -7 15 -16z
m-631 -11 c-4 -11 -3 -14 5 -9 17 10 15 1 -3 -14 -13 -11 -15 -8 -15 14 0 14
4 26 10 26 5 0 6 -7 3 -17z m820 4 c3 -9 -4 -12 -22 -11 -33 2 -33 2 -26 14 9
14 42 12 48 -3z m-213 -18 c0 -6 -4 -7 -10 -4 -5 3 -10 11 -10 16 0 6 5 7 10
4 6 -3 10 -11 10 -16z m-1025 -45 c0 -16 6 -39 13 -51 12 -21 9 -27 -11 -24
-5 1 -6 -3 -2 -9 3 -6 10 -8 15 -5 5 3 12 0 16 -7 4 -7 4 -10 -1 -6 -4 4 -16
-3 -26 -16 -19 -25 -25 -41 -11 -33 4 3 8 -11 9 -31 2 -28 0 -33 -7 -20 -6 9
-12 31 -14 50 -3 18 -5 35 -7 38 -1 3 -1 8 0 13 0 4 -3 7 -9 7 -5 0 -10 6 -10
13 0 7 -11 21 -25 31 l-25 19 26 13 c14 8 29 12 34 9 4 -2 6 6 5 19 -2 17 2
23 13 21 11 -1 17 -12 17 -31z m385 7 c0 -11 3 -26 6 -35 4 -10 1 -16 -9 -16
-10 0 -15 10 -15 35 0 19 4 35 9 35 5 0 9 -9 9 -19z m-344 -14 c4 -4 13 -2 19
3 9 8 12 4 10 -12 -4 -33 -4 -34 -14 -19 -10 15 -41 24 -41 12 0 -4 6 -13 13
-21 10 -12 9 -12 -5 -1 -19 14 -20 50 -1 47 7 -1 16 -5 19 -9z m-393 -79 c3
-52 2 -56 -11 -37 -10 15 -12 33 -7 67 9 54 12 49 18 -30z m704 -47 c4 -137
-5 -144 -13 -10 -3 51 -10 96 -15 100 -6 3 -27 0 -47 -7 -20 -7 -48 -13 -62
-13 -22 0 -21 1 10 16 42 19 90 32 109 30 10 -2 15 -29 18 -116z m-745 77 c-7
-7 -12 -8 -12 -2 0 14 12 26 19 19 2 -3 -1 -11 -7 -17z m1464 -200 c4 -70 3
-118 -3 -118 -5 0 -8 30 -8 68 1 37 -2 85 -6 107 -4 22 -9 67 -12 100 l-6 60
14 -50 c8 -27 18 -103 21 -167z m-1166 192 c8 -5 11 -10 5 -10 -5 0 -17 5 -25
10 -8 5 -10 10 -5 10 6 0 17 -5 25 -10z m546 -38 c-14 -14 -14 -17 2 -29 9 -8
11 -12 4 -8 -7 4 -20 1 -29 -7 -14 -11 -15 -11 -8 2 6 8 10 22 10 30 0 23 15
41 27 34 6 -4 4 -12 -6 -22z m-610 -40 c-18 -16 -18 -16 -6 6 6 13 14 21 18
18 3 -4 -2 -14 -12 -24z m-214 -22 c10 -10 13 -22 9 -25 -5 -2 -16 6 -25 20
-20 30 -8 33 16 5z m45 -15 c0 -20 -4 -19 -17 5 -8 15 -8 18 3 14 8 -3 14 -11
14 -19z m-87 -2 c-1 -16 -39 -57 -47 -50 -4 5 -1 12 7 17 8 5 16 14 16 20 2
18 4 20 14 20 6 0 10 -3 10 -7z m-65 -83 c-3 -5 -11 -10 -16 -10 -6 0 -7 5 -4
10 3 6 11 10 16 10 6 0 7 -4 4 -10z m510 -20 c3 -5 -1 -10 -9 -10 -9 0 -16 5
-16 10 0 6 4 10 9 10 6 0 13 -4 16 -10z m12 -72 c-3 -8 -6 -5 -6 6 -1 11 2 17
5 13 3 -3 4 -12 1 -19z m1 -56 c-3 -12 -8 -8 -21 17 -22 45 -21 50 4 23 11
-13 19 -30 17 -40z m11 -53 c-6 -4 -10 -18 -7 -33 3 -14 1 -26 -3 -26 -5 0 -9
7 -9 15 0 26 -16 16 -18 -11 -1 -20 2 -25 13 -20 9 3 15 0 15 -8 0 -9 -7 -12
-20 -9 -11 3 -20 12 -20 19 0 8 -5 14 -10 14 -6 0 -3 11 6 25 9 14 21 22 28
18 6 -3 6 0 -1 8 -7 7 -13 18 -13 24 0 5 5 3 10 -5 8 -13 10 -12 10 4 0 15 2
16 15 6 12 -10 13 -15 4 -21z m-304 11 c-3 -5 -18 -10 -33 -10 -21 0 -24 2
-12 10 20 13 53 13 45 0z m225 -56 c0 -8 -19 -13 -24 -6 -3 5 1 9 9 9 8 0 15
-2 15 -3z m240 -8 c0 -11 -19 -15 -25 -6 -3 5 1 10 9 10 9 0 16 -2 16 -4z
m-1240 -106 c0 -5 -7 -10 -16 -10 -8 0 -12 5 -9 10 3 6 10 10 16 10 5 0 9 -4
9 -10z m60 -30 c23 -15 -7 -32 -34 -19 -18 8 -18 7 2 -7 30 -23 28 -31 -8 -26
-30 4 -36 16 -24 46 7 18 41 21 64 6z m130 -30 c0 -5 -4 -10 -10 -10 -5 0 -7
-7 -4 -15 5 -12 -2 -15 -31 -15 -38 0 -41 19 -2 21 17 1 18 2 5 6 -29 7 -20
23 12 23 17 0 30 -4 30 -10z"/>
<path d="M2885 3353 c17 -16 26 -18 72 -9 29 5 52 11 50 12 -2 2 -35 6 -73 10
-68 6 -69 6 -49 -13z"/>
<path d="M3057 3313 c-4 -3 -7 -11 -7 -17 0 -6 5 -5 12 2 6 6 9 14 7 17 -3 3
-9 2 -12 -2z"/>
<path d="M3187 3016 c-3 -8 -2 -18 4 -22 16 -9 22 2 11 21 -8 15 -10 16 -15 1z"/>
<path d="M3157 2991 c3 -12 9 -21 14 -21 14 0 11 16 -5 29 -12 10 -13 8 -9 -8z"/>
<path d="M3170 2940 c0 -5 5 -10 11 -10 5 0 7 5 4 10 -3 6 -8 10 -11 10 -2 0
-4 -4 -4 -10z"/>
<path d="M3146 2681 c-4 -7 -5 -15 -2 -18 9 -9 19 4 14 18 -4 11 -6 11 -12 0z"/>
<path d="M3082 2355 c0 -16 2 -22 5 -12 2 9 2 23 0 30 -3 6 -5 -1 -5 -18z"/>
<path d="M2095 2179 c-4 -6 -5 -12 -2 -15 2 -3 7 2 10 11 7 17 1 20 -8 4z"/>
<path d="M2808 1993 c7 -3 16 -2 19 1 4 3 -2 6 -13 5 -11 0 -14 -3 -6 -6z"/>
<path d="M2592 1961 c4 -13 18 -16 19 -4 0 4 -5 9 -11 12 -7 2 -11 -2 -8 -8z"/>
<path d="M2640 1960 c0 -5 5 -10 10 -10 6 0 10 5 10 10 0 6 -4 10 -10 10 -5 0
-10 -4 -10 -10z"/>
<path d="M2211 1860 c-2 -3 -5 -18 -7 -35 -4 -23 -2 -27 6 -19 7 7 10 22 7 35
-2 13 -5 22 -6 19z"/>
<path d="M2202 1735 c-6 -14 -8 -25 -4 -25 12 0 32 23 32 37 0 22 -16 15 -28
-12z"/>
<path d="M3875 651 c-3 -5 -2 -12 3 -15 5 -3 9 1 9 9 0 17 -3 19 -12 6z"/>
<path d="M2450 4980 c0 -5 5 -10 10 -10 6 0 10 5 10 10 0 6 -4 10 -10 10 -5 0
-10 -4 -10 -10z"/>
<path d="M2365 4961 c-3 -6 4 -9 15 -8 11 1 20 5 20 9 0 11 -28 10 -35 -1z"/>
<path d="M2336 4945 c4 -8 8 -15 10 -15 2 0 4 7 4 15 0 8 -4 15 -10 15 -5 0
-7 -7 -4 -15z"/>
<path d="M900 4869 c0 -5 5 -7 10 -4 6 3 10 8 10 11 0 2 -4 4 -10 4 -5 0 -10
-5 -10 -11z"/>
<path d="M2090 4839 c0 -5 5 -7 10 -4 6 3 10 8 10 11 0 2 -4 4 -10 4 -5 0 -10
-5 -10 -11z"/>
<path d="M2060 4819 c0 -5 5 -7 10 -4 6 3 10 8 10 11 0 2 -4 4 -10 4 -5 0 -10
-5 -10 -11z"/>
<path d="M2025 4800 c-3 -5 -2 -10 4 -10 5 0 13 5 16 10 3 6 2 10 -4 10 -5 0
-13 -4 -16 -10z"/>
<path d="M2001 4784 c0 -11 3 -14 6 -6 3 7 2 16 -1 19 -3 4 -6 -2 -5 -13z"/>
<path d="M1960 4755 c-7 -8 -8 -15 -2 -15 5 0 15 7 22 15 7 8 8 15 2 15 -5 0
-15 -7 -22 -15z"/>
<path d="M2870 4741 c0 -5 7 -12 16 -15 14 -5 15 -4 4 9 -14 17 -20 19 -20 6z"/>
<path d="M1920 4720 c-9 -6 -10 -10 -3 -10 6 0 15 5 18 10 8 12 4 12 -15 0z"/>
<path d="M1890 4689 c0 -5 5 -7 10 -4 6 3 10 8 10 11 0 2 -4 4 -10 4 -5 0 -10
-5 -10 -11z"/>
<path d="M1853 4655 c-15 -16 -16 -25 -5 -25 4 0 13 9 20 20 14 23 3 26 -15 5z"/>
<path d="M1804 4592 c-11 -15 -31 -45 -44 -67 -13 -22 -26 -42 -29 -45 -9 -8
-28 -44 -46 -86 -15 -37 -15 -37 5 -19 11 10 20 26 20 35 0 9 4 20 9 26 18 17
120 184 113 183 -4 0 -16 -12 -28 -27z"/>
<path d="M3000 4385 c7 -9 15 -13 17 -11 7 7 -7 26 -19 26 -6 0 -6 -6 2 -15z"/>
<path d="M1643 4303 c-6 -16 -21 -55 -32 -88 -11 -33 -27 -80 -36 -104 -9 -24
-14 -48 -12 -54 2 -6 18 34 37 88 18 55 41 119 51 143 10 23 15 42 11 42 -4 0
-12 -12 -19 -27z"/>
<path d="M3043 4183 c-1 -33 0 -35 8 -15 5 13 5 30 1 38 -5 9 -8 1 -9 -23z"/>
<path d="M3044 4129 c-3 -6 -1 -16 5 -22 8 -8 11 -5 11 11 0 24 -5 28 -16 11z"/>
<path d="M1550 4010 c0 -11 2 -20 4 -20 2 0 6 9 9 20 3 11 1 20 -4 20 -5 0 -9
-9 -9 -20z"/>
<path d="M1531 3784 c0 -11 3 -14 6 -6 3 7 2 16 -1 19 -3 4 -6 -2 -5 -13z"/>
<path d="M1945 3739 c-11 -4 -40 -8 -64 -8 -24 -1 -42 -4 -38 -7 16 -16 -53
-54 -97 -54 -18 0 -50 -7 -70 -15 -20 -8 -36 -13 -36 -9 0 3 -11 -7 -24 -23
-15 -18 -27 -47 -30 -77 -5 -39 -2 -51 16 -69 11 -12 18 -16 14 -9 -4 7 -1 15
7 18 9 3 18 17 22 31 4 16 11 23 20 20 16 -7 65 36 65 56 0 34 107 30 166 -5
51 -30 46 -38 -36 -53 -19 -3 -46 -10 -60 -16 -14 -5 -36 -11 -50 -13 -14 -3
-26 -5 -27 -7 -2 -1 -7 -2 -12 -3 -5 0 -13 -5 -18 -10 -5 -5 -2 -6 7 -1 12 6
13 5 2 -6 -7 -7 -22 -14 -35 -15 -36 -2 -56 -15 -50 -30 3 -8 1 -14 -4 -14 -6
0 -15 -11 -21 -24 -8 -19 -8 -27 2 -35 7 -6 16 -8 19 -5 3 3 9 -10 12 -30 5
-26 12 -36 26 -36 11 0 19 4 19 9 0 4 21 14 48 21 26 6 85 23 132 35 47 13
121 28 165 33 100 12 133 25 145 56 5 13 18 27 29 31 15 4 21 14 20 33 -2 45
-12 67 -58 119 -24 28 -43 54 -42 57 1 4 -13 19 -30 34 -34 28 -93 37 -134 21z
m-100 -248 c-14 -13 -92 -44 -80 -32 6 5 24 17 40 25 34 18 54 21 40 7z m15
-111 c0 -5 -2 -10 -4 -10 -3 0 -8 5 -11 10 -3 6 -1 10 4 10 6 0 11 -4 11 -10z"/>
<path d="M1858 3263 c7 -3 16 -2 19 1 4 3 -2 6 -13 5 -11 0 -14 -3 -6 -6z"/>
<path d="M1441 3201 c-11 -7 -9 -11 8 -21 21 -11 22 -17 18 -80 -3 -37 -1 -74
4 -81 4 -8 8 15 8 53 0 36 3 82 6 102 6 31 5 36 -11 36 -11 0 -25 -4 -33 -9z"/>
<path d="M1472 2945 c0 -16 2 -22 5 -12 2 9 2 23 0 30 -3 6 -5 -1 -5 -18z"/>
<path d="M1483 2908 c-5 -7 -8 -29 -7 -48 1 -19 2 -46 3 -59 0 -13 4 -21 8
-17 5 5 12 136 7 136 -1 0 -6 -6 -11 -12z"/>
<path d="M1492 2744 c0 -16 11 -78 26 -139 22 -97 26 -106 34 -80 4 17 4 31
-1 33 -6 2 -6 16 -1 33 7 25 5 35 -10 52 -11 11 -20 29 -20 39 0 10 -5 18 -11
18 -7 0 -9 10 -7 24 3 14 2 30 -2 36 -4 7 -8 0 -8 -16z"/>
<path d="M1570 2539 c0 -11 4 -18 10 -14 5 3 7 12 3 20 -7 21 -13 19 -13 -6z"/>
<path d="M1560 2480 c-8 -5 -12 -12 -9 -15 4 -3 12 1 19 10 14 17 11 19 -10 5z"/>
<path d="M1580 2461 c0 -5 7 -14 15 -21 12 -10 15 -10 15 3 0 8 -7 17 -15 21
-8 3 -15 2 -15 -3z"/>
<path d="M1560 2429 c0 -12 5 -19 12 -17 18 6 20 25 3 31 -10 5 -15 0 -15 -14z"/>
<path d="M1576 2375 c6 -31 11 -41 18 -34 2 2 -2 18 -10 34 l-14 30 6 -30z"/>
<path d="M1629 2310 c-5 -14 -4 -58 2 -54 9 5 22 -83 14 -96 -3 -5 -1 -10 5
-10 9 0 10 18 5 63 -7 56 -21 110 -26 97z"/>
<path d="M1601 2274 c0 -11 3 -14 6 -6 3 7 2 16 -1 19 -3 4 -6 -2 -5 -13z"/>
<path d="M1767 2273 c-10 -9 -9 -23 1 -23 5 0 9 7 9 15 0 17 -1 18 -10 8z"/>
<path d="M1820 2235 c-7 -8 -10 -22 -6 -30 9 -25 22 -17 22 15 0 35 0 35 -16
15z"/>
<path d="M1620 2189 c0 -11 4 -18 10 -14 5 3 7 12 3 20 -7 21 -13 19 -13 -6z"/>
<path d="M1840 2155 c0 -14 4 -25 9 -25 4 0 6 11 3 25 -2 14 -6 25 -8 25 -2 0
-4 -11 -4 -25z"/>
<path d="M1670 2140 c0 -20 -2 -22 -10 -10 -6 10 -10 11 -10 3 0 -7 10 -23 22
-35 23 -23 27 -34 32 -81 4 -42 13 -42 11 0 -1 21 -3 39 -5 41 -1 1 -3 5 -4
10 -1 4 -7 17 -14 28 -6 12 -9 24 -6 27 3 3 1 14 -5 24 -9 16 -10 15 -11 -7z"/>
<path d="M1813 1760 c-3 -11 -8 -18 -12 -15 -12 7 -6 -34 7 -47 17 -17 15 -31
-4 -24 -12 5 -15 2 -10 -11 4 -9 3 -19 -2 -22 -15 -9 -51 -91 -41 -91 5 0 9 5
9 10 0 6 5 10 11 10 6 0 9 -6 6 -12 -2 -7 0 -42 4 -78 5 -36 11 -85 14 -109 8
-68 76 -291 101 -329 10 -16 12 -27 5 -41 -8 -15 -5 -20 16 -30 15 -7 22 -15
17 -19 -7 -5 -6 -15 1 -29 7 -13 15 -20 18 -16 4 3 7 -1 7 -9 0 -9 7 -21 16
-29 8 -7 13 -21 11 -31 -3 -10 -1 -16 4 -12 5 3 9 -1 9 -9 0 -8 9 -24 20 -37
11 -13 20 -26 21 -29 0 -3 2 -15 5 -26 10 -51 11 -121 2 -132 -7 -9 -7 -13 1
-13 7 0 9 -5 6 -10 -3 -6 1 -10 9 -10 12 0 16 12 17 53 1 28 1 56 0 60 -1 5 2
6 7 3 4 -3 9 -26 11 -53 3 -55 5 -60 25 -44 10 9 15 8 19 -2 3 -9 -7 -18 -29
-26 -40 -14 -117 -88 -108 -102 3 -6 -3 -17 -14 -25 -13 -9 -18 -21 -15 -33 6
-25 -45 -91 -71 -91 -12 0 -16 -5 -12 -16 6 -16 -39 -63 -60 -64 -15 0 -25 38
-13 46 5 3 9 10 9 15 0 6 -5 7 -12 3 -8 -5 -9 -2 -5 10 4 9 3 14 -2 11 -14 -8
-25 14 -27 56 -1 20 -7 45 -14 55 -10 17 -11 17 -6 2 3 -10 3 -18 0 -18 -7 0
-174 169 -174 176 0 3 7 3 16 0 9 -4 23 -1 30 5 11 9 19 8 32 -5 10 -9 23 -16
29 -16 6 0 21 -28 33 -62 23 -63 41 -67 21 -6 -5 18 -13 56 -16 83 -3 28 -10
54 -16 60 -5 5 -9 24 -9 42 0 18 -5 33 -11 33 -6 0 -9 9 -6 19 2 10 -11 79
-30 152 -68 264 -85 405 -57 484 4 11 -16 -12 -44 -52 -60 -85 -66 -103 -64
-165 1 -37 -2 -48 -13 -48 -8 0 -15 -8 -14 -17 0 -11 3 -13 6 -5 2 6 8 12 12
12 9 0 28 -104 36 -197 6 -57 5 -62 -11 -56 -12 4 -15 3 -10 -5 4 -8 2 -10 -8
-6 -8 3 -17 15 -20 27 -9 35 -115 80 -197 84 l-68 4 -5 -33 c-18 -121 -19
-118 10 -108 57 22 114 20 165 -5 61 -31 109 -33 109 -5 0 15 7 20 25 20 22 0
24 -3 15 -19 -20 -39 -119 -46 -151 -12 -14 15 -28 19 -57 16 -40 -4 -122 -21
-127 -27 -2 -2 -8 -84 -19 -270 -3 -43 -15 -63 -17 -27 -2 30 -2 15 6 139 8
123 8 111 6 133 -2 25 -21 21 -21 -5 0 -12 -3 -18 -7 -14 -5 4 -8 13 -8 18 0
6 -5 13 -11 15 -12 4 -19 -24 -30 -122 -3 -33 -10 -62 -16 -63 -5 -2 -4 -10 3
-18 21 -25 0 -28 -26 -4 -14 13 -25 18 -25 12 0 -7 5 -12 10 -12 6 0 10 -5 10
-11 0 -11 -58 -3 -73 10 -4 4 1 26 11 49 10 23 22 39 25 35 4 -3 7 -1 7 5 0 6
-10 20 -21 31 -13 12 -19 26 -15 36 3 9 2 14 -3 10 -5 -3 -11 -2 -14 2 -2 5
-2 3 -1 -4 2 -7 -1 -15 -6 -18 -6 -4 -10 1 -10 9 0 8 -8 20 -17 25 -17 10 -16
10 2 11 11 1 14 4 7 7 -7 3 -19 0 -27 -7 -17 -14 -38 -4 -31 15 2 7 -2 16 -10
19 -9 3 -13 9 -10 14 9 14 -10 33 -39 38 -15 3 -36 9 -46 15 -11 5 -20 5 -23
0 -4 -5 -7 -83 -8 -173 -2 -175 10 -252 37 -242 8 4 15 15 15 25 0 10 5 19 10
19 6 0 9 -3 9 -7 -3 -19 2 -36 8 -30 3 4 12 2 19 -4 9 -8 11 -1 7 33 -6 59 -5
195 3 240 5 36 6 37 28 23 12 -8 26 -12 31 -8 4 5 5 2 1 -5 -4 -6 0 -19 8 -27
8 -9 14 -21 12 -28 -1 -7 -1 -9 1 -4 8 12 25 8 20 -5 -2 -7 0 -25 4 -40 8 -30
-7 -50 -22 -27 -5 8 -9 9 -9 3 0 -12 67 -74 74 -67 8 8 42 -33 38 -45 -2 -7 3
-12 10 -12 30 0 49 -26 54 -75 3 -28 7 -59 9 -70 2 -11 4 -28 4 -37 1 -10 5
-18 10 -18 5 0 7 32 4 72 -4 56 -2 70 7 62 6 -6 13 -36 14 -65 2 -38 7 -54 17
-54 8 0 12 7 10 15 -2 8 -5 34 -6 57 -1 55 16 40 24 -19 6 -41 8 -43 41 -45
57 -4 140 -25 134 -35 -8 -12 10 -10 23 3 8 8 13 8 17 0 13 -20 -2 -27 -66
-29 -35 -1 -72 -4 -83 -6 -11 -3 -26 -5 -33 -5 -7 -1 -11 -5 -7 -10 3 -6 15
-7 28 -5 12 3 55 7 96 9 41 2 77 8 81 14 4 8 13 5 25 -9 10 -11 25 -20 34 -20
9 0 38 -11 64 -24 l49 -24 -6 36 c-12 70 -16 359 -5 333 5 -14 10 -65 10 -114
0 -64 3 -87 12 -84 7 3 11 10 10 16 -2 6 1 11 6 11 5 0 13 -19 17 -43 8 -40 9
-48 13 -89 0 -10 5 -18 11 -18 5 0 9 3 8 8 -4 16 14 52 24 46 8 -5 9 3 5 24
-4 18 -5 32 -3 32 12 0 50 -44 51 -58 1 -23 57 -102 71 -102 7 0 20 -29 29
-65 10 -36 22 -68 26 -71 5 -3 6 2 3 10 -3 9 -1 17 5 17 14 2 30 6 34 9 1 1
10 3 20 5 18 3 23 -10 7 -20 -5 -3 -10 -1 -10 6 0 10 -3 10 -11 2 -14 -14 -2
-36 14 -26 7 4 17 8 22 8 6 0 9 9 7 19 -3 14 1 17 12 13 9 -4 16 -2 16 3 0 6
-6 10 -12 11 -7 0 -22 3 -33 5 -11 3 -26 6 -32 6 -25 2 0 13 30 13 41 1 47 19
7 23 -56 4 -60 5 -54 11 3 3 19 7 35 7 16 1 33 2 37 3 5 0 7 19 5 41 -3 31 -1
39 10 34 8 -3 14 -13 14 -22 0 -47 3 -50 48 -54 25 -2 50 1 55 6 6 6 10 6 10
2 0 -5 8 -2 17 5 11 10 14 10 9 2 -6 -11 6 -18 17 -11 1 1 12 -4 25 -11 20
-11 22 -9 22 11 1 18 7 12 26 -24 13 -27 27 -48 30 -48 2 0 0 9 -6 19 -7 14
-7 22 0 26 6 4 10 3 9 -2 -3 -10 19 -63 25 -63 4 0 2 25 -8 95 -1 11 4 28 12
37 13 16 13 18 -2 24 -14 5 -14 9 -4 22 11 13 11 14 -2 7 -12 -6 -13 -5 -3 5
10 11 8 17 -7 30 -20 17 -20 18 6 35 15 9 24 13 20 7 -9 -14 20 -23 47 -13 12
4 33 4 47 0 16 -4 19 -7 8 -8 -10 -1 -18 -5 -18 -10 0 -9 -57 -27 -73 -23 -5
2 -6 -2 -2 -7 3 -6 15 -7 29 -1 16 6 27 5 35 -3 10 -9 12 -9 9 2 -2 7 5 15 15
16 9 2 17 -2 17 -8 0 -8 3 -8 9 1 5 9 13 -1 25 -33 10 -25 19 -51 20 -58 11
-51 20 -68 35 -65 9 2 15 11 15 20 -1 9 5 19 13 23 10 3 13 1 10 -8 -3 -9 4
-13 23 -12 24 0 27 2 19 22 -5 13 -5 23 -1 23 4 0 2 4 -4 8 -19 11 -22 67 -4
67 9 0 14 8 12 20 -3 16 -1 17 11 6 12 -9 17 -9 23 0 5 8 3 9 -6 4 -9 -5 -11
-4 -6 3 4 7 16 12 27 12 24 0 24 21 -1 51 -16 20 -19 21 -20 7 0 -10 -5 -18
-11 -18 -7 0 -9 9 -5 24 4 18 1 25 -14 29 -13 3 -18 1 -13 -6 4 -7 0 -8 -11
-4 -10 4 -15 3 -11 -3 3 -6 0 -10 -8 -10 -8 0 -17 -7 -21 -15 -6 -16 -66 -18
-66 -2 0 5 -8 6 -19 2 -10 -3 -29 -1 -42 4 -14 6 -17 10 -9 11 8 0 -3 7 -24
15 -22 8 -43 12 -47 9 -4 -2 -16 6 -26 18 -10 13 -43 42 -75 66 -47 36 -68 60
-68 76 0 11 40 -3 67 -21 32 -24 93 -31 93 -12 0 6 -9 8 -20 4 -12 -4 -20 -2
-20 4 0 6 -11 21 -25 33 -14 12 -23 28 -21 34 3 7 -4 22 -15 35 -10 12 -19 25
-20 28 -4 32 -11 47 -25 58 -10 7 -14 13 -10 13 4 0 -2 12 -13 26 -12 15 -21
32 -21 39 0 6 -10 20 -21 31 -12 10 -25 28 -30 39 -5 11 -18 34 -29 50 -11 17
-25 41 -30 55 -6 14 -27 57 -47 95 -73 145 -102 275 -104 469 -1 133 -3 156
-16 156 -13 0 -13 3 -3 15 7 8 9 23 6 32 -6 15 -8 15 -16 3 -7 -10 -8 -3 -5
23 5 39 -3 51 -12 17z m-516 -865 c0 -8 -4 -12 -9 -9 -5 3 -6 10 -3 15 9 13
12 11 12 -6z m46 2 c3 -8 -1 -14 -8 -14 -7 0 -11 6 -8 14 3 7 6 13 8 13 2 0 5
-6 8 -13z m187 -147 c-20 -13 -43 -13 -35 0 3 6 16 10 28 10 18 0 19 -2 7 -10z
m5 -47 c-22 -16 -32 -16 -40 -3 -7 11 35 31 49 22 5 -3 1 -11 -9 -19z m-400
-98 l-14 -100 3 91 c3 80 11 123 21 112 2 -2 -3 -48 -10 -103z m252 23 c0 -35
4 -76 8 -93 9 -40 13 -125 5 -130 -4 -2 -7 1 -8 8 -1 13 -6 45 -17 112 -9 57
-13 138 -7 153 10 29 19 7 19 -50z m145 35 c-6 -2 -10 -8 -8 -12 3 -4 1 -13
-3 -20 -6 -9 -8 -4 -8 13 0 18 5 26 16 25 10 0 12 -2 3 -6z m-542 -17 c0 -3
-4 -8 -10 -11 -5 -3 -10 -1 -10 4 0 6 5 11 10 11 6 0 10 -2 10 -4z m-188 -65
c-7 -19 -7 -31 -1 -31 9 0 5 -47 -4 -57 -9 -9 -16 58 -8 80 4 12 7 30 5 41 -2
13 1 15 8 8 7 -7 7 -20 0 -41z m1382 3 c9 -3 14 -10 11 -15 -7 -10 -35 0 -35
12 0 11 3 11 24 3z m-1110 -60 c9 -3 16 -14 16 -23 -1 -14 -2 -14 -14 1 -7 10
-16 15 -19 11 -4 -3 -7 -1 -7 5 0 14 2 14 24 6z m53 -56 c-3 -8 -6 -5 -6 6 -1
11 2 17 5 13 3 -3 4 -12 1 -19z m1099 -30 c9 -13 -1 -19 -19 -12 -24 9 -30 33
-6 27 11 -3 22 -10 25 -15z m-806 -63 c0 -2 -6 -5 -13 -8 -8 -3 -14 1 -14 8 0
7 6 11 14 8 7 -3 13 -6 13 -8z m-60 -31 c30 -3 89 -6 129 -8 47 -2 76 -7 79
-15 3 -9 -17 -11 -76 -7 -44 2 -83 2 -86 -1 -3 -3 -1 -14 5 -24 7 -15 6 -19
-5 -19 -19 0 -32 20 -14 21 10 0 10 2 0 6 -6 2 -10 9 -6 14 3 5 2 9 -3 10 -15
1 -68 9 -100 14 -18 3 -35 10 -39 16 -4 7 6 8 28 4 18 -3 58 -8 88 -11z m420
-68 c0 -3 -7 -3 -15 0 -8 4 -15 13 -15 21 0 12 2 12 15 -1 8 -8 15 -17 15 -20z
m470 -1 c0 -8 -4 -15 -10 -15 -5 0 -10 7 -10 15 0 8 5 15 10 15 6 0 10 -7 10
-15z m334 -21 c3 -8 2 -12 -4 -9 -6 3 -10 10 -10 16 0 14 7 11 14 -7z m-369
-14 c3 -5 1 -10 -4 -10 -6 0 -11 5 -11 10 0 6 2 10 4 10 3 0 8 -4 11 -10z
m-108 -15 c0 -8 -4 -12 -9 -9 -5 3 -6 10 -3 15 9 13 12 11 12 -6z m153 -16 c0
-28 -15 -23 -18 7 -1 14 2 23 8 19 6 -3 10 -15 10 -26z m-475 11 c3 -5 2 -10
-4 -10 -5 0 -13 5 -16 10 -3 6 -2 10 4 10 5 0 13 -4 16 -10z m280 -21 c-5 -7
3 -9 24 -6 17 3 33 2 35 -2 3 -4 -12 -7 -31 -6 -20 0 -38 6 -40 13 -3 6 0 12
7 12 6 0 8 -5 5 -11z m462 5 c-3 -4 -1 -16 4 -27 8 -15 8 -22 -2 -28 -14 -9
-22 0 -33 39 -6 18 -4 22 15 22 12 0 19 -3 16 -6z m-697 -44 c0 -13 -1 -13
-10 0 -5 8 -10 22 -10 30 0 13 1 13 10 0 5 -8 10 -22 10 -30z m430 0 c0 -11
-4 -20 -8 -20 -4 0 -8 9 -9 20 -1 11 2 20 8 20 5 0 9 -9 9 -20z m-185 -10 c3
-5 -1 -10 -10 -10 -9 0 -13 5 -10 10 3 6 8 10 10 10 2 0 7 -4 10 -10z"/>
<path d="M1740 1530 c8 -5 20 -10 25 -10 6 0 3 5 -5 10 -8 5 -19 10 -25 10 -5
0 -3 -5 5 -10z"/>
<path d="M1698 1373 c-10 -2 -18 -9 -18 -14 0 -6 8 -5 20 1 11 6 20 13 20 15
0 3 -1 4 -2 4 -2 -1 -11 -3 -20 -6z"/>
<path d="M1745 1370 c-4 -6 -4 -10 -1 -10 2 0 11 -3 20 -6 9 -3 16 -2 16 4 0
14 -28 23 -35 12z"/>
<path d="M1730 1330 c0 -5 9 -10 20 -10 11 0 20 5 20 10 0 6 -9 10 -20 10 -11
0 -20 -4 -20 -10z"/>
<path d="M1670 1315 c0 -9 6 -12 15 -9 8 4 15 10 15 15 0 5 -7 9 -15 9 -8 0
-15 -7 -15 -15z"/>
<path d="M1373 1217 c3 -8 1 -20 -3 -28 -7 -11 -12 -10 -28 4 -10 9 -27 17
-37 17 -16 0 -16 -2 -3 -22 12 -18 26 -23 62 -24 49 -2 52 2 34 41 -11 25 -34
36 -25 12z"/>
<path d="M1334 1134 c3 -9 6 -18 6 -20 0 -2 12 -3 28 -3 24 2 25 2 4 6 -15 3
-22 10 -18 19 3 8 -1 14 -10 14 -11 0 -14 -6 -10 -16z"/>
<path d="M1720 1135 c-8 -9 -8 -15 -2 -15 12 0 26 19 19 26 -2 2 -10 -2 -17
-11z"/>
<path d="M1053 1122 c10 -10 17 -24 17 -30 0 -7 5 -12 11 -12 6 0 8 6 5 13 -3
6 -9 20 -12 30 -4 9 -13 17 -22 17 -13 0 -13 -2 1 -18z"/>
<path d="M1218 1133 c7 -3 16 -2 19 1 4 3 -2 6 -13 5 -11 0 -14 -3 -6 -6z"/>
<path d="M1012 1113 c8 -10 18 -26 21 -35 7 -19 27 -25 27 -8 0 6 -4 10 -9 10
-5 0 -12 11 -15 25 -4 14 -14 25 -23 25 -14 0 -15 -2 -1 -17z"/>
<path d="M905 1108 c-22 -5 -47 -12 -55 -15 -8 -3 -25 -5 -37 -4 -27 3 -29 -6
-7 -37 8 -12 11 -22 6 -22 -5 0 -15 11 -22 25 -16 30 -53 32 -163 11 -40 -8
-103 -20 -142 -27 -38 -7 -77 -18 -86 -26 -8 -7 -20 -13 -25 -13 -5 0 -2 5 6
11 45 32 -229 -38 -334 -86 l-51 -22 28 -13 c24 -12 30 -11 50 7 43 38 236
109 275 101 9 -2 -4 -7 -30 -12 -54 -8 -88 -35 -35 -28 17 3 28 1 24 -4 -4 -4
-31 -9 -60 -9 -55 -2 -79 -6 -87 -16 -3 -4 -23 -15 -44 -25 -52 -25 -62 -50
-12 -29 19 8 46 15 60 15 13 0 26 7 30 15 3 8 12 15 20 15 9 0 13 -6 11 -13
-4 -9 19 -12 96 -12 69 0 104 4 106 12 2 6 -4 13 -14 16 -17 4 -17 5 0 6 9 0
17 6 17 11 0 6 -8 10 -17 11 -15 0 -15 2 2 9 34 15 47 12 41 -10 -3 -11 -8
-28 -11 -39 -3 -11 0 -21 9 -24 10 -4 14 4 14 35 1 23 4 44 9 49 13 12 172 34
253 34 41 0 77 3 80 7 3 4 33 10 65 13 61 6 145 24 145 31 0 9 -26 49 -35 56
-12 9 -29 9 -80 -4z m-30 -66 c-3 -3 -11 0 -18 7 -9 10 -8 11 6 5 10 -3 15 -9
12 -12z m-585 -112 c0 -5 -5 -10 -11 -10 -5 0 -7 5 -4 10 3 6 8 10 11 10 2 0
4 -4 4 -10z m84 2 c2 -4 -9 -9 -25 -10 -16 -1 -29 2 -29 8 0 12 47 14 54 2z"/>
<path d="M1680 1099 c0 -5 5 -7 10 -4 6 3 10 8 10 11 0 2 -4 4 -10 4 -5 0 -10
-5 -10 -11z"/>
<path d="M1727 1064 c-3 -3 -3 -13 0 -22 4 -10 2 -13 -6 -8 -9 6 -11 -1 -5
-28 12 -68 41 -149 48 -137 4 6 4 11 -1 11 -4 0 -2 4 6 9 12 8 11 22 -5 95
-18 82 -23 94 -37 80z m32 -128 l0 -41 -14 50 c-18 64 -18 75 0 51 8 -11 15
-38 14 -60z"/>
<path d="M1465 1050 c-3 -5 -1 -10 4 -10 6 0 11 5 11 10 0 6 -2 10 -4 10 -3 0
-8 -4 -11 -10z"/>
<path d="M3605 1050 c-3 -5 -2 -10 4 -10 5 0 13 5 16 10 3 6 2 10 -4 10 -5 0
-13 -4 -16 -10z"/>
<path d="M3666 1023 c-3 -4 -6 -11 -6 -16 0 -6 3 -8 6 -4 3 3 17 2 30 -3 13
-5 26 -5 29 -1 6 10 -50 32 -59 24z"/>
<path d="M858 983 c6 -2 18 -2 25 0 6 3 1 5 -13 5 -14 0 -19 -2 -12 -5z"/>
<path d="M1228 983 c6 -2 18 -2 25 0 6 3 1 5 -13 5 -14 0 -19 -2 -12 -5z"/>
<path d="M1278 983 c7 -3 16 -2 19 1 4 3 -2 6 -13 5 -11 0 -14 -3 -6 -6z"/>
<path d="M1325 980 c3 -5 11 -10 16 -10 6 0 7 5 4 10 -3 6 -11 10 -16 10 -6 0
-7 -4 -4 -10z"/>
<path d="M4190 981 c0 -6 9 -9 19 -8 11 0 17 5 15 9 -7 11 -34 10 -34 -1z"/>
<path d="M4270 980 c8 -5 20 -10 25 -10 6 0 3 5 -5 10 -8 5 -19 10 -25 10 -5
0 -3 -5 5 -10z"/>
<path d="M775 968 c-2 -7 -6 -30 -10 -50 -3 -21 -11 -38 -17 -38 -22 0 8 -21
43 -30 19 -5 44 -12 56 -15 19 -6 21 -3 21 28 0 19 3 49 7 66 6 29 5 31 -24
31 -16 0 -33 5 -36 10 -9 14 -35 12 -40 -2z m65 -49 c0 -12 -7 -19 -20 -19
-21 0 -24 8 -14 34 8 20 34 9 34 -15z m-21 -50 c-16 -10 -23 -4 -14 10 3 6 11
8 17 5 6 -4 5 -9 -3 -15z"/>
<path d="M3665 970 c-3 -5 1 -10 9 -10 8 0 18 5 21 10 3 6 -1 10 -9 10 -8 0
-18 -4 -21 -10z"/>
<path d="M499 963 c-1 -5 -3 -17 -4 -28 -2 -11 -4 -26 -6 -34 -2 -7 1 -15 7
-18 10 -3 24 39 24 73 0 14 -19 20 -21 7z"/>
<path d="M1365 960 c-3 -5 -13 -7 -23 -4 -9 3 10 -9 43 -25 33 -17 65 -29 70
-27 6 1 -12 13 -38 25 -27 12 -47 24 -45 26 6 7 58 -8 58 -16 0 -5 7 -9 15 -9
26 0 16 16 -18 28 -40 14 -54 15 -62 2z"/>
<path d="M1127 924 c-10 -34 -12 -134 -3 -134 5 0 10 25 11 55 2 30 6 58 9 63
2 4 1 14 -4 21 -6 11 -9 9 -13 -5z"/>
<path d="M1167 933 c-4 -6 -6 -30 -5 -55 0 -24 -3 -55 -7 -67 -5 -16 -3 -22 5
-19 7 2 13 25 14 54 2 28 5 55 9 60 3 6 2 16 -2 23 -5 8 -11 9 -14 4z"/>
<path d="M3685 900 c-10 -11 -21 -17 -26 -15 -4 3 -10 1 -14 -4 -3 -5 -14 -8
-24 -6 -13 2 -18 -2 -16 -13 1 -9 8 -16 14 -14 6 1 11 -2 11 -8 0 -5 5 -10 11
-10 5 0 8 4 5 9 -6 9 12 28 27 30 4 1 6 3 5 5 -2 2 6 13 16 25 11 12 17 21 14
21 -3 0 -13 -9 -23 -20z"/>
<path d="M4210 910 c0 -5 7 -10 15 -10 8 0 15 5 15 10 0 6 -7 10 -15 10 -8 0
-15 -4 -15 -10z"/>
<path d="M4264 900 c0 -11 5 -20 11 -20 6 0 11 9 11 20 0 11 -5 20 -11 20 -6
0 -11 -9 -11 -20z"/>
<path d="M4567 888 c-7 -4 -22 -8 -34 -8 -13 0 -23 -5 -23 -11 0 -7 8 -9 23
-4 12 4 34 9 50 12 15 3 29 8 31 12 6 9 -32 8 -47 -1z"/>
<path d="M2962 869 c-12 -19 -11 -20 10 -17 12 2 24 11 26 21 5 24 -20 21 -36
-4z"/>
<path d="M4437 879 c7 -7 15 -10 18 -7 3 3 -2 9 -12 12 -14 6 -15 5 -6 -5z"/>
<path d="M0 870 c0 -5 5 -10 11 -10 5 0 7 5 4 10 -3 6 -8 10 -11 10 -2 0 -4
-4 -4 -10z"/>
<path d="M115 863 c-27 -8 -56 -20 -64 -26 -12 -10 -14 -8 -8 8 6 17 5 18 -5
4 -7 -9 -19 -14 -26 -11 -10 3 -12 -36 -10 -185 l3 -188 36 3 c19 2 44 5 55 6
10 2 31 0 46 -5 15 -4 30 -4 32 0 3 4 6 71 7 148 1 78 5 163 9 188 5 34 3 50
-7 61 -8 8 -15 14 -16 13 -1 0 -24 -7 -52 -16z"/>
<path d="M229 869 c-19 -11 -29 -211 -20 -384 1 -20 14 -24 79 -28 6 0 12 -3
12 -6 0 -3 17 -7 38 -7 20 -1 47 -3 60 -5 l23 -4 2 213 c2 244 15 219 -110
225 -40 2 -78 0 -84 -4z"/>
<path d="M1772 840 c-5 -21 -7 -40 -3 -42 3 -2 32 -82 63 -178 49 -149 57
-182 51 -220 -6 -41 -5 -44 10 -31 9 7 15 17 12 21 -3 5 -1 11 5 15 10 6 12 0
14 -39 1 -11 7 -21 15 -24 9 -3 11 1 7 14 -3 11 -10 60 -15 111 -8 78 -17 108
-61 203 -29 61 -53 116 -55 123 -1 7 -6 27 -10 45 -11 47 -21 47 -33 2z m109
-252 c12 -23 15 -39 9 -43 -6 -3 -15 6 -21 22 -11 31 -23 97 -13 73 4 -8 15
-32 25 -52z m23 -73 c3 -8 1 -15 -4 -15 -6 0 -10 7 -10 15 0 8 2 15 4 15 2 0
6 -7 10 -15z m10 -40 c-4 -8 -8 -15 -10 -15 -2 0 -4 7 -4 15 0 8 4 15 10 15 5
0 7 -7 4 -15z"/>
<path d="M4585 860 c-3 -5 -19 -10 -35 -10 -36 0 -39 -6 -31 -55 5 -30 3 -43
-9 -52 -12 -9 -1 -11 53 -10 65 2 84 -4 51 -17 -8 -3 -26 -3 -40 0 -30 8 -64
-3 -46 -15 13 -8 17 -21 32 -108 9 -53 15 -169 10 -188 -2 -5 0 -23 5 -39 5
-19 4 -36 -4 -49 -7 -11 -8 -16 -2 -13 7 5 8 0 2 -16 -5 -13 -15 -21 -23 -20
-36 10 -48 10 -53 1 -5 -7 39 -14 67 -10 9 1 -1 -52 -12 -63 -11 -11 -42 12
-35 24 12 19 -14 18 -30 0 -10 -11 -30 -20 -44 -21 -24 -1 -23 -2 7 -10 18 -5
30 -14 27 -18 -3 -5 5 -7 17 -3 16 4 19 2 14 -9 -4 -8 -1 -6 7 4 18 21 31 22
23 1 -3 -9 -2 -12 5 -9 7 5 9 -11 7 -46 l-3 -54 45 2 c25 1 47 2 50 2 3 1 5
13 4 29 -1 21 -6 27 -25 29 -13 0 -30 1 -37 2 -7 1 -10 6 -6 12 4 6 20 8 39 5
24 -5 34 -2 39 9 3 8 10 15 16 15 6 0 8 -4 5 -10 -10 -16 1 -12 15 6 8 8 9 14
4 13 -28 -5 -32 3 -29 58 3 51 6 59 27 64 13 3 28 2 35 -3 12 -9 30 8 19 19
-3 4 -6 0 -6 -7 0 -9 -7 -7 -21 6 -12 10 -23 18 -25 17 -11 -7 -24 -2 -22 10
4 19 21 27 34 16 8 -7 14 -7 18 0 4 6 14 8 24 4 11 -3 8 1 -6 12 -18 13 -21
20 -11 31 6 7 16 11 23 7 6 -4 5 1 -3 10 -14 18 -36 13 -25 -5 4 -6 2 -8 -4
-5 -11 8 -11 25 2 45 6 10 11 10 21 2 9 -8 15 -8 20 0 4 6 2 9 -3 8 -8 -3 -15
6 -11 15 8 19 3 54 -7 54 -10 0 -11 -4 -3 -13 6 -8 6 -14 0 -18 -5 -4 -12 -2
-16 4 -4 6 -11 8 -16 4 -5 -3 -7 -10 -4 -15 3 -5 -1 -6 -10 -2 -13 5 -14 7 -3
14 9 7 10 11 2 17 -6 4 -10 18 -9 32 1 20 7 25 28 25 15 -1 29 5 31 11 3 8 -8
11 -32 10 -36 -1 -37 0 -40 38 -2 22 1 36 6 32 5 -3 15 1 22 9 10 13 8 15 -13
15 -32 0 -44 20 -50 83 -3 27 -8 51 -11 54 -10 10 15 32 30 26 8 -3 14 0 14 6
0 15 -23 14 -38 -1 -9 -9 -12 -9 -12 0 0 15 -26 16 -35 2z m2 -50 c1 -16 -1
-17 -12 -7 -11 10 -8 19 10 27 1 0 1 -9 2 -20z m159 -322 c5 4 0 -3 -10 -15
-22 -26 -46 -30 -46 -8 0 8 6 14 13 13 6 -2 11 3 9 11 -2 11 0 12 11 3 8 -7
18 -8 23 -4z m-31 -97 c-3 -5 -1 -12 5 -16 6 -4 8 -11 4 -16 -4 -6 -11 -6 -20
2 -11 9 -11 15 -3 25 13 16 23 19 14 5z m-80 -51 c3 -5 2 -10 -4 -10 -5 0 -13
5 -16 10 -3 6 -2 10 4 10 5 0 13 -4 16 -10z m-132 -127 c-10 -30 -14 -34 -24
-27 -6 4 -3 14 7 25 21 24 25 24 17 2z m121 -122 c6 -10 -33 -20 -52 -13 -7 2
-10 8 -6 13 7 12 51 12 58 0z"/>
<path d="M439 810 c0 -27 0 -93 0 -145 0 -220 1 -235 14 -235 11 0 14 41 13
215 -1 165 -4 215 -13 215 -9 0 -13 -17 -14 -50z"/>
<path d="M486 852 c-8 -13 -5 -368 3 -397 12 -47 26 -19 24 50 -1 39 -3 72 -3
75 -1 3 -2 64 -1 137 0 118 -7 161 -23 135z"/>
<path d="M4439 833 c-7 -10 -10 -15 -5 -11 4 4 19 3 32 -2 16 -6 25 -5 30 3 4
7 3 9 -1 4 -5 -4 -16 0 -25 8 -15 14 -18 14 -31 -2z"/>
<path d="M4695 820 l-30 -8 27 -1 c15 0 30 4 33 9 3 6 5 9 3 9 -2 -1 -16 -5
-33 -9z"/>
<path d="M4744 821 c7 -10 31 -9 42 2 4 4 -5 7 -20 7 -15 0 -25 -4 -22 -9z"/>
<path d="M4805 820 c3 -5 16 -10 28 -10 18 0 19 2 7 10 -20 13 -43 13 -35 0z"/>
<path d="M3669 793 c-13 -16 -12 -17 4 -4 16 13 21 21 13 21 -2 0 -10 -8 -17
-17z"/>
<path d="M4743 793 c-25 -9 -12 -19 17 -15 17 2 28 7 25 10 -8 8 -27 10 -42 5z"/>
<path d="M4830 790 c0 -5 7 -10 16 -10 8 0 12 5 9 10 -3 6 -10 10 -16 10 -5 0
-9 -4 -9 -10z"/>
<path d="M903 772 c1 -12 6 -18 15 -15 7 3 10 9 5 12 -4 3 -11 10 -15 15 -4 4
-6 -1 -5 -12z"/>
<path d="M4400 759 c0 -5 5 -7 10 -4 6 3 10 8 10 11 0 2 -4 4 -10 4 -5 0 -10
-5 -10 -11z"/>
<path d="M4488 763 c7 -3 16 -2 19 1 4 3 -2 6 -13 5 -11 0 -14 -3 -6 -6z"/>
<path d="M4755 740 c-4 -6 -11 -7 -17 -4 -12 8 -58 -15 -58 -29 0 -5 7 -4 15
3 12 10 15 9 15 -4 0 -10 5 -14 10 -11 8 5 7 11 -1 21 -9 11 -8 14 4 14 19 0
16 -23 -6 -48 -16 -17 -16 -21 -2 -32 15 -13 11 -35 -6 -25 -5 4 -9 0 -9 -9 0
-8 8 -13 18 -12 12 2 17 12 18 35 0 17 6 37 14 44 12 10 12 9 2 -4 -10 -13 -9
-19 5 -30 9 -8 14 -9 10 -2 -4 6 -2 15 3 18 8 5 7 12 -2 23 -17 21 -17 48 1
44 7 -1 10 2 6 8 -8 13 -12 13 -20 0z"/>
<path d="M995 700 c-3 -5 -1 -10 4 -10 6 0 11 5 11 10 0 6 -2 10 -4 10 -3 0
-8 -4 -11 -10z"/>
<path d="M4464 685 c-4 -8 -10 -12 -15 -9 -5 3 -9 0 -9 -5 0 -18 19 -12 30 9
6 11 8 20 5 20 -3 0 -8 -7 -11 -15z"/>
<path d="M4417 661 c-4 -17 -3 -21 5 -13 5 5 8 16 6 23 -3 8 -7 3 -11 -10z"/>
<path d="M4681 634 c0 -11 3 -14 6 -6 3 7 2 16 -1 19 -3 4 -6 -2 -5 -13z"/>
<path d="M1030 622 c0 -11 7 -18 19 -18 15 0 17 3 7 18 -6 10 -14 18 -18 18
-5 0 -8 -8 -8 -18z"/>
<path d="M931 614 c0 -11 3 -14 6 -6 3 7 2 16 -1 19 -3 4 -6 -2 -5 -13z"/>
<path d="M4762 600 c1 -21 5 -29 14 -26 7 3 16 0 20 -6 4 -6 3 -8 -4 -4 -6 3
-13 2 -16 -3 -4 -5 -2 -12 3 -15 5 -4 12 -2 16 4 4 6 11 7 17 4 6 -4 3 5 -8
19 -10 15 -22 27 -26 27 -4 0 -5 7 -2 15 4 8 1 15 -4 15 -6 0 -10 -14 -10 -30z"/>
<path d="M997 571 c-4 -17 -3 -21 5 -13 5 5 8 16 6 23 -3 8 -7 3 -11 -10z"/>
<path d="M4384 552 c-6 -4 -14 -18 -18 -32 -3 -14 -3 -19 0 -12 3 6 11 12 18
12 6 0 12 9 12 20 0 11 0 20 -1 20 0 0 -5 -4 -11 -8z"/>
<path d="M4416 552 c-2 -4 -1 -14 5 -22 7 -12 9 -10 9 8 0 23 -5 28 -14 14z"/>
<path d="M4708 553 c7 -3 16 -2 19 1 4 3 -2 6 -13 5 -11 0 -14 -3 -6 -6z"/>
<path d="M1983 513 c-4 -10 -13 -24 -20 -31 -7 -7 -13 -18 -13 -24 0 -6 8 0
18 13 20 26 35 59 26 59 -2 0 -8 -8 -11 -17z"/>
<path d="M4824 505 c0 -13 4 -21 8 -19 4 3 8 11 8 19 0 8 -4 16 -8 19 -4 2 -8
-6 -8 -19z"/>
<path d="M2185 511 c-3 -5 -1 -12 5 -16 5 -3 10 1 10 9 0 18 -6 21 -15 7z"/>
<path d="M980 480 c0 -5 7 -7 15 -4 8 4 15 8 15 10 0 2 -7 4 -15 4 -8 0 -15
-4 -15 -10z"/>
<path d="M2230 469 c0 -5 3 -8 8 -8 46 7 100 -20 86 -43 -4 -7 -2 -8 4 -4 15
9 15 17 -3 40 -15 20 -95 33 -95 15z"/>
<path d="M4433 465 c0 -8 4 -12 9 -9 5 3 6 10 3 15 -9 13 -12 11 -12 -6z"/>
<path d="M4345 460 c-3 -5 1 -10 9 -10 9 0 16 5 16 10 0 6 -4 10 -9 10 -6 0
-13 -4 -16 -10z"/>
<path d="M32 443 l-32 -4 0 -99 0 -99 28 10 c16 5 53 11 83 13 30 2 60 4 67 5
6 0 12 8 12 16 0 8 6 15 13 15 8 0 7 3 -3 10 -9 6 -15 29 -16 67 -1 32 -3 61
-3 64 -1 7 -101 8 -149 2z m-5 -108 c0 -8 -4 -12 -9 -9 -5 3 -6 10 -3 15 9 13
12 11 12 -6z"/>
<path d="M211 431 c-8 -15 -7 -20 7 -26 16 -6 16 -7 -1 -20 -10 -7 -14 -15 -8
-16 5 -2 11 -25 12 -51 2 -26 6 -45 11 -42 4 3 8 0 8 -7 0 -7 9 -5 23 7 12 10
19 15 14 9 -12 -14 54 -33 77 -22 12 6 16 6 12 -1 -4 -7 9 -15 31 -21 38 -11
60 0 45 24 -4 5 -8 37 -9 70 -1 33 -2 63 -2 66 -1 6 -26 11 -116 26 -66 10
-75 12 -84 18 -6 3 -15 -3 -20 -14z m75 -95 c0 -14 -3 -23 -7 -20 -6 3 -6 22
0 42 3 10 7 -2 7 -22z"/>
<path d="M3240 440 c-8 -5 -12 -11 -9 -14 3 -3 14 1 25 9 21 16 8 20 -16 5z"/>
<path d="M4350 430 c-13 -8 -12 -10 3 -10 9 0 17 5 17 10 0 12 -1 12 -20 0z"/>
<path d="M4425 429 c-4 -6 -5 -12 -2 -15 2 -3 7 2 10 11 7 17 1 20 -8 4z"/>
<path d="M4509 423 c-12 -16 -12 -17 2 -6 12 10 18 10 29 0 12 -10 12 -9 1 6
-7 9 -15 17 -16 17 -1 0 -9 -8 -16 -17z"/>
<path d="M4799 428 c-5 -18 -6 -38 -1 -34 7 8 12 36 6 36 -2 0 -4 -1 -5 -2z"/>
<path d="M4385 411 c-6 -5 -19 -11 -30 -13 -13 -2 -16 -6 -9 -11 7 -4 23 2 35
13 13 11 22 19 19 20 -4 0 -10 -4 -15 -9z"/>
<path d="M830 401 c0 -5 -13 -7 -28 -5 -28 5 -28 4 -25 -43 4 -76 10 -120 17
-132 7 -11 37 -4 33 7 -2 8 7 12 24 12 5 0 7 -4 4 -10 -3 -5 3 -10 14 -10 20
0 28 22 21 55 -15 72 -22 110 -23 123 0 14 -37 17 -37 3z m9 -62 c-21 -12 -35
7 -19 26 12 15 14 15 23 -1 6 -11 5 -19 -4 -25z m13 -51 c1 -15 0 -27 -4 -28
-22 -1 -26 2 -30 24 -5 26 11 52 23 39 4 -5 9 -20 11 -35z"/>
<path d="M2290 406 c0 -2 7 -9 15 -16 13 -11 14 -10 9 4 -5 14 -24 23 -24 12z"/>
<path d="M445 388 c4 -11 7 -36 14 -145 1 -7 5 -13 11 -13 7 0 8 73 1 163 -1
4 -8 7 -16 7 -8 0 -12 -6 -10 -12z"/>
<path d="M496 331 c3 -38 7 -78 9 -88 2 -10 4 -20 4 -22 1 -3 7 4 15 15 10 13
11 23 4 31 -5 7 -9 25 -8 40 5 65 0 93 -15 93 -13 0 -14 -12 -9 -69z"/>
<path d="M2360 390 c0 -5 5 -10 11 -10 5 0 7 5 4 10 -3 6 -8 10 -11 10 -2 0
-4 -4 -4 -10z"/>
<path d="M4533 375 c0 -8 4 -12 9 -9 5 3 6 10 3 15 -9 13 -12 11 -12 -6z"/>
<path d="M556 368 c3 -5 10 -6 15 -3 13 9 11 12 -6 12 -8 0 -12 -4 -9 -9z"/>
<path d="M1877 326 c-16 -24 -16 -24 12 -13 18 6 27 16 24 24 -8 19 -19 16
-36 -11z"/>
<path d="M5127 343 c-2 -1 -26 -3 -55 -4 -60 -3 -67 -11 -71 -79 -2 -25 -4
-56 -5 -70 -1 -20 4 -25 22 -24 12 0 58 1 102 2 l80 2 0 89 0 90 -36 -2 c-19
-1 -36 -3 -37 -4z"/>
<path d="M4971 327 c-16 -20 -23 -177 -8 -171 7 2 13 21 13 42 1 20 5 61 9 90
7 54 5 61 -14 39z"/>
<path d="M4473 315 c0 -6 6 -12 12 -12 6 0 12 6 12 12 0 6 -6 12 -12 12 -6 0
-12 -6 -12 -12z"/>
<path d="M4536 315 c4 -8 8 -15 10 -15 2 0 4 7 4 15 0 8 -4 15 -10 15 -5 0 -7
-7 -4 -15z"/>
<path d="M4919 328 c0 -1 -2 -28 -4 -58 -2 -30 -6 -67 -8 -82 -3 -15 -1 -30 4
-34 19 -11 21 -2 30 125 2 29 -1 46 -9 49 -6 2 -12 2 -13 0z"/>
<path d="M4826 298 c3 -4 9 -8 15 -8 5 0 9 4 9 8 0 5 -7 9 -15 9 -8 0 -12 -4
-9 -9z"/>
<path d="M4299 298 c-1 -2 -3 -33 -4 -70 -2 -53 0 -68 11 -68 8 0 14 3 14 8 6
96 4 132 -7 132 -7 0 -13 -1 -14 -2z"/>
<path d="M1613 282 c-8 -5 -9 -13 -3 -22 11 -17 23 -8 18 14 -2 9 -8 12 -15 8z"/>
<path d="M4258 273 c-2 -14 -6 -28 -7 -33 -7 -18 -7 -81 -1 -85 4 -3 13 2 20
10 9 11 10 18 1 28 -6 8 -8 16 -5 19 10 11 13 68 4 68 -6 0 -11 -3 -12 -7z"/>
<path d="M245 250 c-20 -22 -16 -24 44 -21 29 2 32 0 22 -12 -6 -8 -25 -13
-41 -12 -17 1 -30 -2 -30 -9 0 -7 21 -11 60 -10 33 1 63 -2 66 -7 3 -5 10 -7
15 -4 5 4 9 3 9 -2 0 -4 11 -9 25 -9 42 -3 18 14 -40 27 -30 7 -55 16 -55 21
0 11 75 1 103 -14 11 -5 17 -5 17 1 0 6 -12 13 -27 17 -16 3 -37 9 -48 12 -34
10 -46 13 -98 21 -5 0 -5 6 -2 11 10 17 -1 11 -20 -10z"/>
<path d="M4438 263 c7 -3 16 -2 19 1 4 3 -2 6 -13 5 -11 0 -14 -3 -6 -6z"/>
<path d="M1225 250 c-18 -6 -18 -7 1 -11 10 -2 46 -1 79 2 33 3 51 7 40 9 -43
6 -103 6 -120 0z"/>
<path d="M149 246 c-2 -3 -28 -6 -56 -7 -28 -1 -62 -9 -75 -16 -22 -14 -21
-14 12 -7 19 4 61 7 93 8 31 1 63 8 69 14 9 9 6 12 -13 12 -14 0 -28 -2 -30
-4z"/>
<path d="M1726 237 c3 -10 9 -15 12 -12 3 3 0 11 -7 18 -10 9 -11 8 -5 -6z"/>
<path d="M1168 233 c7 -3 16 -2 19 1 4 3 -2 6 -13 5 -11 0 -14 -3 -6 -6z"/>
<path d="M1614 214 c3 -9 6 -29 6 -45 0 -16 3 -29 8 -29 4 0 7 20 7 45 0 31
-4 45 -14 45 -8 0 -11 -6 -7 -16z"/>
<path d="M2710 225 c0 -5 5 -17 10 -25 5 -8 10 -10 10 -5 0 6 -5 17 -10 25 -5
8 -10 11 -10 5z"/>
<path d="M97 199 c-48 -3 -90 -8 -92 -11 -3 -3 37 -4 90 -3 52 1 95 5 96 9 1
12 -1 12 -94 5z"/>
<path d="M1185 201 c-3 -5 -1 -12 5 -16 5 -3 10 1 10 9 0 18 -6 21 -15 7z"/>
<path d="M468 193 c7 -3 16 -2 19 1 4 3 -2 6 -13 5 -11 0 -14 -3 -6 -6z"/>
<path d="M508 193 c7 -3 16 -2 19 1 4 3 -2 6 -13 5 -11 0 -14 -3 -6 -6z"/>
<path d="M790 190 c0 -5 12 -10 26 -10 14 0 23 4 19 10 -3 6 -15 10 -26 10
-10 0 -19 -4 -19 -10z"/>
<path d="M860 190 c0 -5 9 -10 20 -10 11 0 20 5 20 10 0 6 -9 10 -20 10 -11 0
-20 -4 -20 -10z"/>
<path d="M1145 190 c-3 -5 -1 -10 4 -10 6 0 11 5 11 10 0 6 -2 10 -4 10 -3 0
-8 -4 -11 -10z"/>
<path d="M2346 182 c-3 -5 1 -9 9 -9 8 0 12 4 9 9 -3 4 -7 8 -9 8 -2 0 -6 -4
-9 -8z"/>
<path d="M4716 171 c-3 -4 6 -7 19 -7 14 0 22 2 19 5 -8 8 -34 10 -38 2z"/>
<path d="M460 166 c0 -2 7 -6 15 -10 8 -3 15 -1 15 4 0 6 -7 10 -15 10 -8 0
-15 -2 -15 -4z"/>
<path d="M510 160 c0 -5 5 -10 11 -10 5 0 7 5 4 10 -3 6 -8 10 -11 10 -2 0 -4
-4 -4 -10z"/>
<path d="M1664 145 c0 -14 7 -27 14 -30 13 -5 16 13 6 39 -9 25 -22 19 -20 -9z"/>
<path d="M794 153 c10 -11 36 -12 36 -2 0 5 -10 9 -22 9 -12 0 -18 -3 -14 -7z"/>
<path d="M865 150 c-3 -5 3 -10 14 -10 12 0 21 5 21 10 0 6 -6 10 -14 10 -8 0
-18 -4 -21 -10z"/>
<path d="M2750 139 c0 -5 5 -7 10 -4 6 3 10 8 10 11 0 2 -4 4 -10 4 -5 0 -10
-5 -10 -11z"/>
<path d="M5002 142 c-28 -9 2 -21 41 -17 23 3 66 7 95 9 92 6 71 17 -29 15
-52 -2 -100 -4 -107 -7z"/>
<path d="M4250 130 c-13 -8 -12 -10 3 -10 9 0 17 5 17 10 0 12 -1 12 -20 0z"/>
<path d="M4290 130 c0 -5 5 -10 10 -10 6 0 10 5 10 10 0 6 -4 10 -10 10 -5 0
-10 -4 -10 -10z"/>
<path d="M4454 129 c-3 -5 2 -9 10 -9 9 0 18 0 21 0 3 0 6 3 8 7 3 10 -32 12
-39 2z"/>
<path d="M4950 130 c-12 -8 -10 -10 8 -10 13 0 20 4 17 10 -7 12 -6 12 -25 0z"/>
<path d="M2766 114 c-3 -8 0 -16 7 -20 7 -4 9 -4 5 1 -4 4 0 13 8 20 15 11 15
12 1 12 -9 0 -18 -6 -21 -13z"/>
<path d="M4185 120 c-17 -8 -16 -9 7 -7 15 2 30 6 34 10 10 10 -17 8 -41 -3z"/>
<path d="M4900 120 c0 -5 4 -10 9 -10 6 0 13 5 16 10 3 6 -1 10 -9 10 -9 0
-16 -4 -16 -10z"/>
<path d="M5075 112 c-55 -3 -85 -11 -85 -21 0 -5 15 -7 33 -4 28 3 110 10 160
12 9 1 17 6 17 11 0 9 -17 10 -125 2z"/>
<path d="M2020 95 c0 -6 41 -10 107 -11 77 -1 101 1 83 8 -36 13 -190 16 -190
3z"/>
<path d="M2575 91 c-3 -5 -1 -12 5 -16 12 -7 30 2 30 16 0 12 -27 12 -35 0z"/>
<path d="M4152 84 c-25 -11 -23 -11 18 -7 25 3 49 9 55 14 13 13 -40 7 -73 -7z"/>
<path d="M4240 96 c0 -2 7 -6 15 -10 8 -3 15 -1 15 4 0 6 -7 10 -15 10 -8 0
-15 -2 -15 -4z"/>
<path d="M4290 90 c0 -5 4 -10 9 -10 6 0 13 5 16 10 3 6 -1 10 -9 10 -9 0 -16
-4 -16 -10z"/>
<path d="M4945 90 c-3 -5 1 -10 9 -10 9 0 16 5 16 10 0 6 -4 10 -9 10 -6 0
-13 -4 -16 -10z"/>
<path d="M4450 80 c0 -5 17 -10 38 -9 33 1 34 2 12 9 -36 11 -50 11 -50 0z"/>
<path d="M4905 80 c3 -5 8 -10 11 -10 2 0 4 5 4 10 0 6 -5 10 -11 10 -5 0 -7
-4 -4 -10z"/>
<path d="M1647 61 c-10 -14 -10 -14 4 -4 9 7 18 10 21 7 3 -3 8 -1 12 4 9 16
-24 9 -37 -7z"/>
<path d="M2510 63 c0 -17 11 -17 34 0 16 12 16 13 -8 13 -15 0 -26 -6 -26 -13z"/>
<path d="M2095 60 c-3 -4 -22 -6 -42 -4 -35 4 -37 4 -19 -10 10 -9 23 -13 29
-9 5 3 45 5 88 4 51 -1 79 2 79 9 0 6 -12 9 -27 7 -15 -2 -44 0 -65 3 -21 4
-41 4 -43 0z"/>
<path d="M2603 54 c-17 -17 -16 -24 1 -24 7 0 20 8 27 17 8 9 9 14 2 10 -6 -4
-13 -3 -15 2 -1 5 -9 3 -15 -5z"/>
<path d="M4033 55 c0 -9 4 -14 9 -13 5 2 10 8 10 13 0 5 -5 11 -10 13 -5 1 -9
-4 -9 -13z"/>
<path d="M2256 41 c-3 -5 1 -11 9 -15 9 -3 15 0 15 9 0 16 -16 20 -24 6z"/>
<path d="M2542 23 c5 -7 14 -10 19 -7 16 10 9 23 -10 21 -15 -1 -17 -4 -9 -14z"/>
<path d="M2306 17 c3 -10 9 -15 12 -12 3 3 0 11 -7 18 -10 9 -11 8 -5 -6z"/>
<path d="M3905 10 l-30 -8 30 -1 c17 0 37 4 45 9 13 9 13 10 0 9 -8 -1 -28 -5
-45 -9z"/>
</g>
</svg>
