<?xml version="1.0" standalone="no"?>
<!DOCTYPE svg PUBLIC "-//W3C//DTD SVG 20010904//EN"
 "http://www.w3.org/TR/2001/REC-SVG-20010904/DTD/svg10.dtd">
<svg version="1.0" xmlns="http://www.w3.org/2000/svg"
 width="1000.000000pt" height="1000.000000pt" viewBox="0 0 1000.000000 1000.000000"
 preserveAspectRatio="xMidYMid meet">
<metadata>
Created by potrace 1.14, written by Peter Selinger 2001-2017
</metadata>
<g transform="translate(0.000000,1000.000000) scale(0.100000,-0.100000)"
fill="#000000" stroke="none">
<path d="M0 5895 c0 -2258 3 -4105 8 -4105 4 0 36 9 71 20 36 12 133 38 215
59 144 37 202 50 516 121 130 29 235 56 520 135 74 21 160 41 190 45 136 20
267 41 295 47 26 5 28 4 17 -9 -7 -9 -9 -19 -5 -21 13 -8 36 9 29 22 -7 11 8
16 77 25 34 4 36 3 27 -14 -7 -13 -7 -21 2 -26 21 -13 -83 -34 -134 -28 -40 6
-48 4 -48 -10 0 -9 -5 -16 -11 -16 -6 0 -8 -9 -4 -22 5 -18 4 -20 -4 -8 -6 8
-8 25 -4 37 8 32 -12 28 -37 -7 -22 -31 -67 -50 -79 -33 -9 14 -65 27 -56 13
4 -6 17 -15 29 -20 14 -6 0 -7 -41 -5 -49 2 -63 0 -63 -11 0 -7 -6 -11 -14 -8
-7 3 -16 -2 -20 -11 -3 -10 -12 -15 -21 -11 -10 4 -15 -1 -15 -14 0 -22 -34
-44 -56 -36 -8 3 -14 13 -14 22 0 14 -3 14 -19 -4 -19 -22 -41 -29 -41 -13 0
15 -69 8 -75 -7 -4 -10 -14 -13 -34 -9 -21 4 -37 0 -54 -13 -14 -11 -32 -20
-40 -20 -9 0 -17 -5 -19 -12 -4 -10 -14 -9 -47 1 -43 12 -43 12 -74 -22 -28
-31 -37 -35 -75 -32 -33 2 -46 -2 -57 -17 -7 -11 -18 -17 -23 -14 -6 3 -12 -1
-16 -9 -3 -8 -11 -15 -17 -15 -8 0 -8 4 1 15 7 9 11 18 8 21 -8 7 -101 -25
-113 -39 -5 -7 -22 -18 -37 -24 -23 -10 -29 -10 -36 4 -12 20 -35 7 -29 -17 2
-9 -4 -22 -14 -29 -11 -6 -19 -7 -19 -2 0 5 6 11 12 14 9 3 10 8 3 15 -7 8
-28 7 -75 -4 -36 -9 -75 -16 -87 -16 -13 0 -23 -8 -26 -20 -4 -15 -11 -18 -26
-13 -12 4 -21 2 -21 -4 0 -6 -7 -11 -15 -11 -8 0 -15 7 -15 15 0 8 -4 15 -10
15 -5 0 -10 -13 -10 -30 0 -29 -13 -40 -25 -20 -3 6 -15 10 -26 10 -10 0 -19
5 -19 10 0 6 -13 10 -30 10 -22 0 -28 -4 -24 -15 4 -9 -1 -17 -12 -21 -11 -3
-27 -10 -36 -15 -14 -7 -18 -5 -18 6 0 18 -1 18 -36 5 -21 -8 -29 -8 -36 2 -4
7 -8 -373 -8 -844 l0 -858 1590 0 1590 0 0 78 c0 87 6 214 21 447 5 88 14 242
19 343 11 213 35 359 56 341 8 -6 14 -8 14 -3 1 5 7 -2 14 -15 15 -27 25 -12
20 29 -2 14 -7 104 -10 201 -6 165 -5 181 16 250 20 67 23 105 31 384 6 258
12 336 33 465 14 85 33 200 42 255 8 55 26 134 39 175 13 41 31 106 39 144 9
39 25 79 36 91 17 18 18 27 10 85 -8 59 -7 80 4 69 2 -2 7 -20 9 -39 3 -19 6
-37 8 -40 1 -3 3 -34 3 -70 1 -58 7 -78 49 -163 43 -87 51 -97 70 -91 18 5 20
4 10 -7 -21 -21 -15 -30 14 -23 21 6 25 4 20 -9 -3 -8 0 -18 8 -21 9 -3 12 0
9 8 -3 8 4 16 15 19 14 3 18 11 14 25 -3 13 3 29 15 43 18 19 23 20 35 7 23
-23 31 -58 13 -58 -8 0 -18 9 -21 20 -9 27 -27 25 -23 -2 2 -16 14 -27 38 -35
19 -7 31 -12 25 -13 -5 0 -3 -5 5 -10 23 -15 34 -12 20 5 -10 12 -10 15 4 15
9 0 16 -5 16 -11 0 -8 6 -7 18 2 9 7 14 10 10 5 -4 -5 1 -20 12 -33 10 -13 22
-45 26 -71 9 -63 36 -84 48 -37 8 30 21 32 38 6 6 -10 18 -17 25 -14 7 3 13 0
13 -7 0 -7 -8 -10 -20 -7 -25 6 -36 -9 -20 -29 10 -11 16 -12 28 -2 13 11 14
10 8 -10 -6 -18 -4 -22 14 -22 16 0 20 4 16 16 -4 12 -2 15 9 10 8 -3 15 -1
15 4 0 6 7 10 16 10 13 0 14 -3 5 -14 -12 -14 -2 -27 29 -39 8 -3 0 -6 -17 -6
-18 -1 -33 -5 -33 -10 0 -5 10 -7 22 -3 22 5 22 6 1 -60 -4 -12 0 -18 11 -18
9 0 16 8 16 19 0 24 19 38 29 22 7 -11 71 -10 101 2 35 13 59 14 65 3 3 -6 4
-2 2 9 -4 19 1 21 52 21 31 0 45 -1 31 -4 -24 -4 -40 -18 -40 -36 0 -14 71 2
84 19 12 17 46 11 46 -7 0 -6 -8 -7 -17 -3 -14 5 -15 3 -6 -6 8 -8 22 -9 50
-1 21 5 30 10 21 11 -21 1 -24 21 -4 21 8 0 16 6 19 13 3 8 10 5 22 -10 9 -13
25 -23 36 -23 21 0 24 -12 9 -41 -7 -13 -7 -19 0 -19 5 0 11 8 12 18 7 75 16
96 49 111 29 13 79 8 79 -7 0 -5 14 -7 30 -4 17 2 30 10 30 18 0 7 6 11 14 8
8 -3 17 -1 21 5 3 6 1 11 -4 11 -18 0 -13 15 25 74 35 53 58 69 66 46 2 -6 13
-2 25 10 12 11 30 20 41 20 10 0 23 5 30 12 7 7 31 14 53 15 36 2 40 1 29 -12
-7 -8 -19 -15 -26 -15 -8 0 -14 -4 -14 -10 0 -5 2 -10 5 -10 10 0 69 32 85 45
17 15 133 56 139 50 2 -3 -2 -11 -9 -20 -7 -9 -10 -19 -6 -23 4 -4 12 0 16 8
27 44 29 46 40 30 6 -8 8 -26 5 -40 l-6 -25 16 23 c9 12 13 27 10 33 -8 12 23
38 46 39 9 0 19 6 22 14 3 7 20 18 37 24 29 11 31 10 26 -11 -3 -12 -3 -17 0
-10 3 7 12 9 20 6 9 -3 14 2 15 18 1 21 2 21 6 4 3 -11 10 -26 15 -32 7 -9 7
-13 -1 -14 -6 -1 -16 -2 -23 -3 -6 0 -13 -7 -16 -15 -3 -10 5 -12 37 -9 23 2
41 -1 41 -6 0 -6 16 5 35 24 19 19 35 40 35 47 0 7 6 13 13 13 16 0 77 55 77
69 0 6 6 11 13 11 7 0 23 29 36 64 13 37 29 66 39 69 9 3 25 8 35 12 12 5 17
2 17 -10 0 -9 4 -14 10 -10 5 3 7 12 3 20 -3 10 1 15 15 15 11 0 23 -8 26 -17
6 -15 10 -12 28 15 11 18 18 36 14 39 -3 4 -6 1 -6 -6 0 -7 -4 -10 -10 -6 -6
3 -6 15 0 30 6 16 5 25 -3 29 -7 2 7 5 31 5 23 1 43 0 45 -1 2 -2 15 5 30 15
18 11 36 16 50 12 22 -7 22 -7 -1 10 -18 14 -21 20 -11 31 10 12 7 20 -16 44
-15 15 -32 27 -39 26 -6 -2 -8 -1 -3 1 4 3 5 9 1 14 -14 23 10 26 30 4 16 -17
29 -23 41 -18 15 5 17 2 13 -15 -4 -15 -2 -19 8 -15 8 3 14 0 14 -6 0 -6 11
-11 25 -11 14 0 25 5 25 10 0 6 -7 10 -15 10 -16 0 -17 4 -16 70 0 33 6 49 22
63 12 9 15 17 8 17 -7 0 -9 3 -5 7 4 5 13 1 19 -8 7 -8 21 -18 32 -21 11 -3
27 -9 36 -12 23 -10 32 41 10 55 -10 6 -12 12 -5 15 6 3 9 16 6 31 -3 18 -1
24 7 19 6 -4 11 -2 11 4 0 6 -6 10 -12 8 -7 -2 -15 2 -18 7 -3 6 10 11 28 13
17 2 32 7 32 13 0 5 -4 9 -10 9 -5 0 -10 20 -10 45 0 25 4 45 9 45 14 0 20
-37 8 -49 -8 -8 -8 -11 0 -11 23 0 43 12 43 26 0 8 4 22 9 32 14 27 29 65 36
88 3 12 15 24 26 27 21 6 21 34 0 29 -13 -3 -15 24 -1 33 5 3 6 13 3 23 -6 14
-4 15 9 4 27 -21 29 11 3 44 -22 28 -22 28 -29 6 -4 -12 -11 -20 -16 -17 -5 3
-7 12 -3 20 3 8 1 15 -3 15 -5 0 -15 -19 -22 -41 -11 -36 -11 -44 3 -59 20
-22 19 -27 -7 -25 -13 1 -31 -5 -40 -13 -16 -14 -18 -13 -18 2 0 9 -4 15 -10
11 -5 -3 -7 -12 -3 -20 6 -17 -12 -20 -22 -4 -4 5 1 19 11 30 9 10 12 19 6 19
-7 0 -9 7 -5 17 4 10 2 14 -4 10 -6 -4 -14 -24 -18 -44 -6 -31 -8 -35 -17 -20
-5 10 -7 30 -3 46 5 24 10 28 35 25 17 -2 30 -1 30 2 0 11 -26 30 -36 27 -6
-2 -14 10 -17 27 -4 16 -12 30 -18 30 -7 0 -8 -7 -4 -17 11 -27 11 -33 -3 -95
-13 -57 -33 -78 -57 -58 -10 8 -13 3 -13 -24 0 -49 -12 -64 -28 -35 l-12 24
-12 -26 c-12 -27 -42 -37 -32 -11 3 10 1 13 -6 8 -15 -9 -16 6 -1 21 7 7 8 23
3 45 -4 18 -8 35 -7 38 0 3 3 20 6 38 6 29 4 32 -18 32 -31 0 -53 44 -34 66
21 25 4 24 -26 -2 l-29 -24 35 -30 c19 -16 40 -29 47 -30 14 0 14 -18 -2 -85
-6 -27 -15 -50 -20 -50 -5 0 -10 29 -11 65 -2 72 -17 91 -26 35 -8 -50 0 -82
33 -136 15 -25 28 -57 27 -70 0 -17 -2 -20 -7 -9 -13 27 -37 60 -44 60 -5 0
-8 -11 -8 -23 0 -13 -9 -32 -20 -42 -12 -10 -18 -25 -16 -32 6 -16 -3 -43 -14
-43 -13 0 2 84 16 93 9 5 14 26 14 54 0 35 -3 43 -13 35 -9 -8 -12 1 -10 41 0
29 2 52 3 52 1 0 3 10 4 22 2 18 0 20 -11 12 -7 -6 -13 -27 -13 -45 0 -19 -4
-34 -10 -34 -5 0 -10 7 -10 15 0 8 -4 15 -9 15 -17 0 -23 -21 -10 -36 6 -8 9
-18 5 -22 -4 -4 -14 1 -21 11 -15 21 -14 142 2 158 15 15 43 0 43 -23 0 -31
25 -15 28 18 2 16 11 37 20 47 14 16 14 18 -4 31 -23 17 -32 12 -15 -8 20 -24
-8 -31 -31 -7 -22 24 -17 54 8 49 13 -2 18 7 21 37 2 22 8 44 14 50 12 12 12
25 -1 25 -5 0 -12 -11 -16 -25 -3 -14 -11 -25 -16 -25 -6 0 -7 8 -3 17 4 10
10 29 13 43 3 14 13 37 23 52 11 14 19 29 19 33 0 3 7 13 15 21 8 9 15 21 15
27 0 7 -8 3 -17 -8 -15 -20 -15 -20 -10 4 9 35 -3 81 -18 74 -10 -3 -12 2 -8
16 3 12 1 21 -5 21 -12 0 -24 -51 -23 -98 1 -19 -3 -41 -9 -50 -7 -13 -9 -2
-10 41 0 35 -4 57 -11 57 -8 0 -8 4 0 14 12 14 15 59 11 151 -1 26 -8 44 -21
53 -10 7 -19 21 -19 30 0 11 -8 18 -19 18 -15 0 -17 -5 -11 -26 4 -14 12 -24
19 -22 18 4 12 -17 -9 -30 -21 -14 -27 -34 -10 -40 6 -2 1 -9 -11 -16 -20 -13
-21 -12 -15 11 4 16 1 29 -9 37 -8 7 -15 23 -15 37 0 14 -4 22 -11 18 -6 -4
-7 -19 -4 -36 4 -18 2 -36 -6 -45 -10 -13 -14 -10 -27 17 -14 28 -17 29 -23
13 -4 -11 -5 -33 -2 -50 2 -18 0 -35 -5 -38 -6 -4 -11 2 -11 11 0 10 -5 38
-11 63 -8 35 -15 46 -30 46 -24 0 -25 -4 -3 -28 11 -12 18 -36 18 -64 0 -28 4
-44 13 -44 6 0 12 -4 12 -10 0 -5 7 -7 16 -3 13 5 15 2 10 -15 -10 -30 4 -74
20 -68 16 6 16 0 4 -29 -8 -20 -8 -20 -16 0 -4 11 -21 32 -37 48 -20 19 -31
43 -36 75 l-7 47 -8 -40 c-10 -57 -26 -79 -26 -37 0 36 -19 45 -21 10 -1 -13
-6 13 -11 57 -9 85 -14 97 -28 75 -13 -21 -13 15 1 79 13 60 -3 134 -26 125
-8 -4 -15 -1 -15 5 0 18 -18 13 -23 -6 -4 -17 -4 -17 -12 1 -5 11 -3 21 5 26
15 9 5 30 -15 30 -9 0 -12 6 -8 17 4 11 3 14 -6 9 -8 -5 -19 9 -34 43 -12 28
-28 51 -34 51 -13 0 -53 35 -53 46 0 4 9 4 20 1 11 -3 22 -2 25 3 2 4 -10 10
-27 14 -21 4 -34 2 -40 -6 -5 -9 -8 -9 -8 -2 0 7 -17 20 -37 29 -21 10 -49 29
-62 41 -13 13 -28 24 -34 24 -6 0 -4 -6 5 -12 9 -7 19 -24 23 -37 l7 -24 -28
27 c-29 26 -49 33 -57 19 -2 -5 -3 -3 -1 4 4 18 -8 24 -24 11 -11 -10 -16 -9
-23 5 -11 18 -39 24 -39 7 0 -5 8 -14 18 -20 14 -9 13 -10 -8 -4 -14 4 -36 17
-49 31 -14 13 -27 19 -30 14 -8 -13 -106 21 -137 48 -13 12 -24 32 -24 46 0
29 -7 31 -39 8 -14 -9 -21 -11 -17 -4 5 8 0 20 -13 32 -12 11 -21 24 -21 30 0
5 -11 20 -25 33 -29 27 -31 36 -9 36 12 0 14 3 6 13 -12 15 -5 58 12 69 6 4
26 8 43 8 88 0 171 64 217 167 12 27 23 40 32 36 8 -3 14 1 14 10 0 8 7 17 15
20 11 5 12 12 4 37 -6 16 -15 30 -20 30 -5 0 -21 25 -35 55 -41 86 -57 87 -28
1 23 -67 16 -169 -14 -196 -12 -12 -22 -26 -22 -33 0 -19 -103 -79 -140 -82
-45 -3 -90 -19 -90 -31 0 -19 -45 -1 -73 30 -12 14 -39 32 -59 40 -36 14 -38
14 -38 -5 0 -13 -7 -19 -23 -19 -13 0 -28 -5 -34 -11 -16 -16 -33 -2 -33 25 0
13 -11 35 -25 50 -14 16 -33 38 -41 51 -15 23 -15 23 18 11 18 -6 38 -15 45
-19 6 -4 15 -3 18 3 5 8 11 7 21 -1 8 -6 17 -9 21 -6 3 3 24 -6 47 -22 34 -23
46 -26 71 -20 17 5 46 6 65 2 19 -4 37 -7 40 -6 67 13 92 14 86 4 -4 -6 0 -11
10 -11 9 0 22 -7 28 -15 10 -13 15 -12 43 7 36 26 40 43 17 76 -8 12 -12 22
-9 22 4 0 0 7 -7 15 -29 32 -38 45 -38 53 0 20 -126 52 -207 52 -53 0 -83 4
-83 11 0 6 -6 9 -12 6 -7 -2 -12 -9 -11 -15 1 -6 -15 -13 -37 -17 -22 -4 -40
-10 -40 -15 0 -4 -16 -17 -35 -29 -34 -20 -35 -20 -35 -1 0 13 -5 18 -15 14
-8 -4 -15 -2 -15 4 0 10 -37 26 -54 23 -5 -1 -15 7 -23 19 -8 11 -25 20 -39
20 -13 0 -24 4 -24 10 0 5 -7 7 -15 4 -8 -4 -15 -1 -15 5 0 6 -11 8 -30 5 -20
-4 -30 -2 -30 5 0 36 -126 49 -174 17 -14 -9 -36 -16 -48 -16 -39 0 -118 -64
-118 -97 0 -20 -21 -16 -27 6 -6 24 -33 36 -33 16 0 -8 -4 -15 -9 -15 -11 0
-17 -18 -26 -70 -6 -32 -14 -43 -40 -54 -6 -2 -5 -9 2 -17 7 -7 13 -21 13 -31
0 -22 -1 -22 39 -2 17 9 38 17 46 18 8 1 24 13 35 27 l22 24 39 -45 c51 -59
56 -80 30 -135 -12 -25 -21 -49 -21 -55 0 -15 20 -12 21 3 0 6 4 2 10 -11 7
-20 4 -28 -22 -49 -17 -15 -28 -32 -25 -40 11 -28 -45 -103 -76 -103 -14 0
-18 -5 -14 -17 8 -27 -19 -55 -56 -59 -41 -3 -108 -31 -108 -44 0 -16 30 -12
36 5 7 16 24 21 24 6 0 -5 -7 -16 -15 -25 -8 -8 -15 -19 -15 -24 0 -11 -24
-22 -48 -22 -15 1 -14 3 2 15 11 8 17 18 13 21 -4 4 -14 1 -23 -7 -10 -8 -19
-13 -21 -11 -10 7 -21 0 -26 -18 -3 -11 -11 -20 -17 -20 -7 0 -10 7 -5 18 5
14 4 15 -6 5 -26 -26 -29 -12 -8 29 20 38 20 41 3 28 -46 -37 -85 -84 -80 -97
3 -8 -5 -25 -19 -37 -31 -29 -32 -40 -2 -33 20 5 20 5 3 -6 -61 -38 -80 -53
-84 -66 -3 -9 2 -11 17 -6 24 7 25 3 9 -28 -25 -49 -28 -58 -28 -82 0 -14 -4
-25 -10 -25 -13 0 -13 46 1 73 9 19 7 18 -10 -3 -11 -14 -21 -32 -21 -41 0 -9
-6 -19 -14 -22 -15 -6 -46 -62 -46 -84 0 -8 -6 -13 -12 -10 -13 5 -13 8 2 59
12 40 -3 42 -41 8 -19 -16 -37 -30 -40 -30 -11 0 -17 -38 -8 -47 4 -4 1 -31
-8 -58 -9 -28 -18 -57 -21 -65 -3 -8 -4 -26 -3 -40 l2 -25 -16 23 c-14 18 -15
29 -6 54 9 24 8 37 -4 61 -10 21 -12 34 -5 41 7 7 10 5 10 -7 0 -9 4 -17 10
-17 5 0 8 27 7 60 -2 46 1 60 11 60 8 0 12 -6 8 -15 -3 -8 -1 -15 4 -15 10 0
14 27 11 60 -1 9 1 11 6 4 13 -16 52 -12 45 5 -3 9 -1 12 6 7 6 -3 16 3 22 14
6 11 15 18 21 15 5 -4 17 2 27 11 16 17 16 18 -1 11 -13 -5 -17 -1 -17 20 0
22 -2 24 -16 12 -13 -10 -17 -10 -24 1 -10 17 -40 6 -40 -15 0 -9 -8 -24 -17
-33 -16 -16 -16 -16 -9 3 11 25 8 87 -4 99 -6 6 -12 -7 -16 -32 -4 -23 -10
-42 -14 -42 -4 0 -11 -7 -14 -16 -3 -8 -2 -12 4 -9 6 3 10 -3 10 -14 0 -24 -6
-26 -24 -8 -8 7 -12 34 -10 67 1 35 -3 63 -12 75 -14 18 -14 18 -14 -3 0 -11
-5 -33 -12 -47 -9 -20 -9 -28 0 -34 8 -5 9 -17 3 -41 -5 -19 -17 -70 -27 -113
-10 -43 -21 -80 -26 -83 -4 -3 -8 -21 -8 -41 0 -30 -3 -35 -20 -30 -11 3 -23
1 -26 -4 -15 -24 -25 -6 -18 36 4 29 3 45 -4 45 -7 0 -6 10 3 27 7 16 18 41
24 56 6 15 15 25 21 22 5 -3 7 -12 3 -20 -3 -8 0 -15 7 -15 6 0 3 -11 -9 -26
-23 -29 -28 -64 -10 -64 6 0 9 7 5 15 -3 8 5 26 19 41 13 14 24 33 24 42 7
134 7 134 -11 111 -20 -23 -23 -14 -9 24 8 21 6 26 -10 30 -10 3 -19 11 -19
19 0 11 2 11 9 0 6 -10 10 -9 14 7 3 12 1 21 -4 21 -4 0 -6 7 -3 15 8 20 24 9
24 -16 0 -28 23 -23 37 9 21 47 26 82 13 82 -6 0 -8 4 -5 10 6 10 43 -6 58
-25 4 -6 11 -4 17 5 14 22 12 29 -7 29 -42 1 -54 5 -70 23 -13 14 -14 23 -6
41 17 34 24 59 15 54 -4 -3 -16 -1 -27 4 -17 7 -17 8 8 8 32 1 37 26 6 34 -16
4 -20 11 -16 26 3 11 0 22 -7 24 -8 3 -8 9 0 24 10 16 9 22 -8 32 -10 6 -28 9
-39 6 -14 -5 -19 -2 -19 10 0 14 6 16 27 10 23 -5 25 -4 14 9 -8 9 -20 16 -28
16 -13 0 -13 3 -2 16 11 14 10 19 -9 34 -12 10 -22 28 -22 39 0 17 -5 20 -30
17 -18 -2 -30 1 -29 8 3 26 -2 35 -16 30 -12 -5 -15 5 -15 52 0 33 -5 66 -10
74 -8 13 -13 11 -32 -9 -16 -16 -19 -25 -10 -28 14 -6 16 -29 2 -38 -23 -14
-55 117 -51 213 2 45 33 114 48 108 7 -3 15 -1 18 5 7 10 -12 33 -35 41 -11 4
-7 9 13 17 15 6 27 17 27 25 0 83 36 350 61 452 12 45 19 95 17 110 -2 22 -10
7 -31 -63 l-29 -92 -46 14 c-48 15 -62 13 -62 -11 0 -23 -38 -16 -55 10 -35
53 14 174 88 220 42 26 52 28 89 20 37 -8 44 -13 49 -39 8 -38 12 -25 34 100
30 177 32 198 28 305 -6 143 -6 133 11 242 8 54 22 111 31 128 14 27 28 181
25 275 -1 36 36 203 58 260 44 119 52 141 52 153 0 7 11 37 24 65 13 29 27 71
31 94 3 22 17 56 31 74 13 18 24 40 24 50 0 9 7 22 15 29 8 7 15 20 15 29 0 9
12 34 25 56 14 22 25 47 25 55 0 8 11 28 25 44 14 16 25 35 25 41 0 7 8 23 19
36 10 13 21 34 25 47 4 12 19 35 32 49 14 15 23 32 20 39 -3 9 1 11 11 7 13
-5 15 -1 11 21 -4 22 -1 29 18 36 36 14 29 22 -13 15 -31 -5 -35 -4 -20 5 11
7 30 10 45 7 14 -3 31 1 39 8 17 18 17 25 -2 25 -8 0 -15 -5 -15 -11 0 -8 -14
-10 -40 -6 -23 3 -40 1 -40 -5 0 -12 -83 -6 -87 7 -2 7 13 9 38 7 22 -3 46 1
52 7 11 11 18 51 8 51 -4 0 -12 9 -19 20 -20 32 -1 54 47 55 39 1 41 0 42 -29
1 -18 3 -23 6 -13 4 16 7 15 24 -7 25 -31 24 -39 -2 -31 -15 5 -19 4 -15 -4 4
-6 2 -11 -3 -11 -6 0 -11 -4 -11 -10 0 -11 62 -1 70 11 12 18 141 146 176 174
20 17 45 37 54 46 9 9 31 25 49 35 17 10 31 22 31 26 0 5 10 13 23 18 12 6 45
24 72 40 105 62 373 187 450 209 44 13 94 29 110 36 17 8 53 17 80 21 28 4 59
11 70 17 11 6 31 12 45 13 14 1 50 5 80 8 115 13 463 10 547 -5 45 -8 85 -17
89 -22 4 -4 20 -7 36 -7 16 0 62 -14 103 -31 40 -16 85 -31 99 -33 13 -1 31
-7 38 -13 7 -6 31 -16 53 -23 22 -7 49 -19 60 -25 11 -7 31 -16 45 -20 24 -7
46 -16 135 -55 22 -10 58 -24 80 -31 22 -8 42 -16 45 -19 11 -11 51 -30 63
-30 8 0 27 -11 43 -25 16 -14 33 -25 37 -25 14 0 127 -72 135 -85 4 -7 25 -22
47 -34 76 -42 114 -67 153 -101 33 -31 83 -70 131 -105 14 -10 117 -113 185
-185 46 -48 196 -236 196 -244 0 -4 17 -33 39 -64 54 -80 75 -115 76 -127 0
-5 16 -37 36 -71 20 -34 43 -79 50 -100 7 -21 19 -46 26 -55 7 -8 13 -22 13
-30 0 -15 84 -121 101 -127 5 -2 8 7 7 20 -2 14 2 22 10 20 6 -1 12 2 12 8 0
5 -5 10 -11 10 -6 0 -1 9 12 21 13 11 17 18 9 14 -8 -4 -4 3 9 14 27 24 79 28
87 7 3 -8 12 -12 20 -9 8 3 14 0 14 -6 0 -6 11 -16 25 -21 14 -5 25 -14 25
-19 0 -16 42 -57 78 -75 33 -17 43 -51 21 -73 -8 -8 -8 -17 1 -33 10 -18 9
-24 -1 -31 -8 -5 -17 -9 -21 -9 -5 0 -8 -9 -8 -19 0 -11 -3 -27 -6 -36 -5 -13
-8 -14 -15 -3 -7 10 -9 9 -9 -4 0 -10 -6 -18 -14 -18 -8 0 -17 -12 -20 -26 -4
-14 -12 -24 -18 -22 -6 2 -32 -15 -57 -39 -31 -29 -47 -39 -52 -31 -18 29 -19
-11 -4 -203 19 -260 19 -483 -1 -679 -8 -85 -16 -164 -17 -174 -2 -18 6 -20
63 -23 100 -4 205 -66 245 -142 35 -70 97 -282 104 -359 10 -103 3 -139 -54
-282 -77 -191 -117 -267 -233 -445 -208 -319 -270 -389 -406 -460 -75 -39
-147 -46 -207 -21 -39 16 -76 52 -65 64 4 4 13 -1 20 -10 7 -10 16 -15 19 -11
4 3 -1 13 -11 22 -10 9 -26 33 -35 53 -9 20 -21 38 -27 40 -5 2 -16 28 -23 58
l-14 55 -17 -57 c-20 -70 -20 -66 5 -87 l21 -17 -24 -54 c-13 -30 -34 -89 -47
-130 -12 -41 -26 -84 -31 -96 -4 -11 -4 -28 2 -38 7 -13 7 -20 -1 -25 -15 -10
-41 -88 -41 -127 0 -18 -4 -44 -9 -57 -14 -37 -49 -349 -61 -542 -6 -93 -15
-209 -20 -258 -9 -87 -9 -87 19 -117 36 -40 98 -165 111 -226 6 -27 19 -76 30
-109 98 -306 105 -359 94 -665 -4 -129 -7 -291 -6 -360 3 -163 -7 -209 -69
-332 -29 -57 -59 -116 -67 -133 -8 -16 -34 -59 -57 -95 -39 -61 -75 -124 -75
-133 0 -2 7 -4 15 -4 8 0 12 4 9 8 -2 4 0 9 4 11 5 1 25 40 46 85 41 86 94
150 119 140 49 -19 25 -358 -42 -607 -25 -94 -87 -401 -101 -500 -10 -70 -44
-222 -90 -401 -11 -42 -20 -81 -20 -88 0 -8 428 -11 1640 -11 l1640 0 0 815
c-1 765 -2 815 -18 815 -9 0 -23 9 -30 20 -14 23 -37 27 -28 5 4 -12 2 -13
-14 -2 -25 15 -25 24 -2 30 16 4 16 5 0 6 -10 0 -18 5 -18 10 0 5 -42 8 -96 6
-88 -4 -97 -2 -101 15 -3 11 -10 17 -16 13 -6 -4 -8 2 -5 15 7 24 -3 27 -34
11 -14 -8 -23 -8 -31 0 -6 6 -21 11 -33 11 -13 0 -26 5 -29 10 -9 14 -52 12
-58 -2 -2 -7 -8 -10 -12 -5 -5 4 0 13 10 21 17 12 16 13 -10 20 -19 5 -31 3
-37 -6 -6 -10 -10 -10 -16 -1 -4 7 -39 22 -77 33 -39 12 -84 28 -102 36 -17 8
-39 14 -50 14 -10 0 -56 9 -103 19 -137 30 -253 51 -287 51 -18 0 -33 4 -33 8
0 5 -36 9 -80 11 -44 1 -91 6 -104 11 -14 5 -26 5 -28 1 -2 -4 -55 -5 -119 0
-246 17 -304 24 -324 39 -5 4 -34 11 -62 15 -29 4 -53 12 -53 17 0 7 -5 6 -14
-1 -9 -8 -21 -8 -39 -2 -14 5 -28 7 -32 3 -4 -4 -5 -1 -3 7 1 7 -3 16 -11 19
-8 3 -11 0 -7 -7 4 -6 1 -11 -8 -11 -9 0 -13 8 -11 25 2 25 -5 32 -19 18 -11
-12 -108 -13 -129 -2 -10 6 -16 16 -14 24 3 7 1 17 -5 23 -6 6 -6 12 0 16 6 4
17 -3 25 -15 11 -14 27 -21 51 -22 52 -1 63 14 33 47 -13 14 -28 26 -33 26 -4
0 -17 9 -28 19 -20 18 -76 50 -221 126 -78 41 -125 75 -125 92 0 8 -5 11 -10
8 -9 -6 -33 36 -34 60 -1 6 -8 15 -16 22 -8 6 -16 16 -16 22 -1 6 -2 16 -3 21
0 6 -8 10 -16 10 -8 0 -15 5 -15 11 0 15 -48 92 -82 134 -16 18 -28 37 -28 41
0 5 -14 29 -30 53 -63 92 -18 68 53 -29 144 -196 220 -280 349 -386 182 -150
188 -154 318 -222 112 -58 117 -60 215 -66 278 -17 620 -76 960 -166 39 -10
131 -34 205 -53 74 -20 158 -43 185 -51 28 -9 66 -19 85 -22 19 -3 82 -18 140
-34 58 -15 121 -31 140 -35 19 -3 55 -13 80 -20 25 -7 60 -17 78 -20 l32 -7 0
4141 0 4141 -5000 0 -5000 0 0 -4105z m3510 3161 c0 -11 -19 -15 -25 -6 -3 5
1 10 9 10 9 0 16 -2 16 -4z m7 -123 c-3 -3 -20 -2 -37 2 -35 8 -30 21 10 27
23 3 40 -15 27 -29z m-7 -87 c0 -11 -19 -15 -25 -6 -3 5 1 10 9 10 9 0 16 -2
16 -4z m4998 -847 c12 0 11 -3 -5 -9 -26 -11 -30 -28 -8 -36 12 -5 13 -9 4
-20 -10 -12 -15 -11 -30 7 -23 27 -24 35 -1 48 16 10 16 10 0 11 -10 0 -18 5
-18 11 0 6 7 9 15 5 8 -3 16 0 16 7 1 7 3 4 6 -5 2 -10 12 -18 21 -19z m729
-55 c23 -3 44 -13 47 -20 3 -8 15 -14 26 -14 11 0 20 -7 20 -15 0 -9 9 -15 24
-15 14 0 28 -4 31 -10 3 -5 17 -10 31 -10 17 0 23 -4 18 -12 -5 -7 -3 -8 5 -4
7 5 21 0 31 -9 10 -9 24 -14 29 -10 6 3 12 -2 12 -12 1 -17 2 -17 6 0 4 14 8
16 19 6 7 -6 11 -15 9 -20 -3 -4 4 -13 15 -19 11 -6 20 -17 20 -25 0 -8 7 -18
15 -23 32 -17 63 -190 68 -372 1 -44 7 -80 14 -88 16 -16 17 -32 3 -32 -16 0
-12 -27 6 -45 16 -15 16 -16 -2 -13 -12 2 -18 -2 -16 -10 1 -8 -7 -16 -18 -19
-11 -3 -20 -14 -20 -24 0 -11 -7 -22 -15 -25 -8 -4 -15 -15 -15 -26 0 -12 -8
-27 -17 -35 -17 -14 -17 -14 0 -9 23 7 22 1 -8 -28 -15 -15 -32 -23 -41 -19
-12 4 -14 0 -9 -23 l5 -29 -11 28 c-11 29 -29 37 -29 12 0 -8 5 -15 11 -15 5
0 7 -4 4 -10 -3 -5 -17 -10 -30 -10 -13 0 -27 -5 -31 -11 -4 -8 -9 -8 -17 0
-6 6 -21 11 -34 11 -13 0 -23 4 -23 9 0 4 12 6 26 3 20 -4 25 -2 19 8 -4 7
-20 10 -36 8 -24 -4 -28 -1 -26 16 1 15 -5 22 -22 24 -21 3 -23 0 -19 -22 4
-20 1 -26 -13 -26 -12 0 -18 7 -17 18 1 9 0 28 0 41 -2 23 -3 23 -15 7 -15
-21 -49 -12 -45 13 2 10 -5 17 -19 19 -22 3 -33 32 -13 32 6 0 10 -4 10 -9 0
-5 14 -4 30 2 32 12 43 32 12 23 -10 -4 -26 0 -37 7 -16 13 -15 14 13 9 38 -5
42 5 6 18 -14 6 -23 14 -20 19 9 14 -4 41 -20 41 -8 0 -15 -8 -15 -17 -1 -17
-2 -17 -6 0 -6 25 -31 21 -36 -5 -2 -13 -5 3 -6 35 -1 57 -1 57 -32 57 -23 0
-30 4 -26 14 5 12 -24 35 -29 24 -1 -2 -10 4 -20 14 -24 20 -70 28 -66 11 2
-15 -8 -16 -42 -4 -17 7 -26 7 -29 -2 -3 -7 -8 -4 -13 8 -11 26 -45 54 -66 55
-22 0 -23 8 -1 32 15 17 15 18 -5 18 -12 0 -22 5 -22 10 0 6 7 10 15 10 8 0
15 7 15 15 0 8 -6 15 -14 15 -9 0 -12 8 -8 25 4 21 1 25 -21 25 -14 0 -28 -6
-30 -12 -3 -7 -6 -3 -6 8 -1 12 -8 27 -17 35 -13 11 -14 9 -9 -13 9 -37 -13
-46 -26 -11 l-11 28 -9 -24 c-8 -19 -12 -22 -22 -12 -9 9 -9 14 2 20 22 14 5
41 -29 48 -33 6 -32 15 3 20 12 2 28 -4 35 -14 13 -17 14 -17 10 2 -2 11 -12
21 -23 23 -45 7 -49 12 -26 31 14 12 18 22 11 26 -5 3 -13 -1 -16 -10 -6 -14
-8 -14 -20 2 -7 10 -14 28 -14 41 0 12 -4 22 -10 22 -5 0 -10 -11 -10 -25 0
-24 -10 -32 -23 -19 -9 10 15 54 30 54 8 0 11 5 8 10 -4 6 -14 9 -23 8 -11 -2
-18 5 -20 22 -3 20 -1 22 10 12 18 -15 28 -6 28 25 0 13 5 23 10 23 6 0 10 -4
10 -9 0 -18 33 -21 51 -5 11 10 19 14 19 9 0 -4 6 -2 14 4 7 6 21 9 30 5 10
-4 16 -1 16 8 0 11 18 17 73 21 100 9 142 18 126 28 -16 10 -11 16 16 21 14 2
20 -2 19 -14 -1 -10 2 -15 7 -12 6 3 26 8 47 10 20 3 52 9 71 14 23 6 39 6 47
-1 8 -7 14 -6 17 3 4 10 10 8 21 -6 14 -18 15 -17 22 8 4 19 10 24 18 17 7 -6
31 -13 53 -17z m-197 6 c0 -5 -2 -10 -4 -10 -3 0 -8 5 -11 10 -3 6 -1 10 4 10
6 0 11 -4 11 -10z m-593 -26 c-3 -3 -12 -4 -19 -1 -8 3 -5 6 6 6 11 1 17 -2
13 -5z m97 -39 c-4 -8 -8 -15 -10 -15 -2 0 -4 7 -4 15 0 8 4 15 10 15 5 0 7
-7 4 -15z m23 -7 c-3 -8 -6 -5 -6 6 -1 11 2 17 5 13 3 -3 4 -12 1 -19z m93 1
c0 -14 -17 -10 -23 5 -4 10 -1 13 9 9 7 -3 14 -9 14 -14z m-733 -66 c-3 -10
-5 -4 -5 12 0 17 2 24 5 18 2 -7 2 -21 0 -30z m123 -83 c0 -5 -4 -10 -10 -10
-5 0 -10 5 -10 10 0 6 5 10 10 10 6 0 10 -4 10 -10z m-35 -29 c3 -5 1 -12 -5
-16 -5 -3 -10 1 -10 9 0 18 6 21 15 7z m595 -133 c0 -17 -3 -18 -14 -8 -8 6
-12 18 -9 26 7 19 23 7 23 -18z m0 -48 c0 -11 -4 -20 -9 -20 -13 0 -32 26 -24
33 13 14 33 6 33 -13z m210 -155 c11 -13 10 -14 -4 -9 -9 3 -16 10 -16 15 0
13 6 11 20 -6z m-5974 -1212 c-10 -10 -19 5 -10 18 6 11 8 11 12 0 2 -7 1 -15
-2 -18z m2123 -483 c0 -10 -3 -8 -9 5 -12 27 -12 43 0 25 5 -8 9 -22 9 -30z
m4811 -14 c0 -30 16 -42 34 -27 11 9 15 5 19 -19 4 -17 13 -30 21 -30 9 0 29
-13 46 -30 17 -16 27 -30 22 -30 -4 0 -8 -9 -8 -20 0 -11 4 -20 8 -20 4 0 8 5
8 10 0 6 5 10 11 10 8 0 8 -4 1 -12 -12 -16 -44 -125 -44 -155 0 -13 -5 -23
-12 -23 -22 -1 -58 -40 -52 -56 5 -13 1 -15 -19 -10 -18 5 -25 2 -25 -9 0 -8
-6 -15 -14 -15 -8 0 -16 -6 -19 -12 -3 -10 -8 -10 -21 1 -14 12 -19 12 -26 2
-4 -8 -13 -10 -21 -5 -7 4 -22 8 -33 9 -12 1 -39 5 -61 9 -36 6 -38 6 -18 -6
22 -13 22 -14 3 -26 -29 -17 -46 -16 -30 3 12 14 6 15 -48 10 -48 -4 -62 -2
-62 8 0 7 -6 19 -12 25 -7 7 -13 18 -13 25 -2 36 -19 67 -36 67 -10 0 -19 -6
-19 -13 0 -9 -10 -12 -30 -9 -17 2 -30 10 -30 18 0 8 -9 14 -19 14 -11 0 -28
3 -38 7 -15 6 -13 9 12 14 l30 7 -30 1 -30 2 30 14 30 13 -26 1 c-34 1 -42 11
-21 27 10 8 12 13 5 14 -17 0 -17 55 0 72 8 7 17 27 22 43 7 26 9 27 14 10 7
-22 56 -31 77 -14 8 7 14 7 19 -1 3 -5 15 -10 25 -10 10 0 21 -6 23 -12 4 -10
7 -10 14 -1 6 8 14 9 23 3 8 -6 26 -10 40 -10 l25 -1 -24 -20 c-13 -11 -25
-30 -26 -43 -3 -20 1 -22 24 -17 18 3 21 6 9 9 -10 2 -18 10 -18 18 0 17 5 17
47 5 23 -7 35 -6 42 3 6 7 8 16 4 19 -3 4 0 13 7 22 9 11 9 15 1 15 -7 0 -9 5
-6 10 4 6 12 4 21 -5 17 -17 30 -19 38 -6 3 5 -1 11 -9 15 -27 10 -16 25 25
36 29 8 44 18 51 37 7 18 15 24 29 20 16 -4 20 0 20 19 0 13 5 24 10 24 6 0
10 -11 10 -24z m-333 -38 c-3 -8 -6 -5 -6 6 -1 11 2 17 5 13 3 -3 4 -12 1 -19z
m233 -8 c0 -13 -5 -18 -15 -14 -8 4 -15 12 -15 20 0 8 7 14 15 14 8 0 15 -9
15 -20z m-69 -21 c-28 -26 -35 -24 -14 5 10 13 22 22 26 19 5 -3 -1 -14 -12
-24z m244 21 c3 -5 1 -10 -4 -10 -6 0 -11 5 -11 10 0 6 2 10 4 10 3 0 8 -4 11
-10z m-5307 -12 c19 -19 14 -29 -8 -16 -20 13 -27 28 -12 28 4 0 13 -5 20 -12z
m4972 -9 c0 -5 -7 -6 -15 -3 -8 4 -15 2 -15 -4 0 -6 6 -12 12 -14 9 -3 8 -9
-4 -21 -21 -21 -35 -22 -18 -2 7 9 9 19 5 23 -4 4 -10 1 -12 -6 -4 -10 -8 -10
-19 -1 -8 6 -14 17 -14 23 0 6 4 5 9 -3 8 -12 11 -12 25 1 8 9 13 18 10 21 -3
3 3 3 15 0 12 -3 21 -9 21 -14z m-100 -4 c0 -8 -7 -15 -15 -15 -16 0 -20 12
-8 23 11 12 23 8 23 -8z m-103 -11 c-3 -3 -12 -4 -19 -1 -8 3 -5 6 6 6 11 1
17 -2 13 -5z m-6387 -98 c0 -3 -4 -8 -10 -11 -5 -3 -10 -1 -10 4 0 6 5 11 10
11 6 0 10 -2 10 -4z m-60 -30 c0 -8 -7 -16 -15 -20 -12 -4 -13 -2 -2 14 14 24
17 25 17 6z m7072 -28 c-9 -9 -12 -7 -12 12 0 19 3 21 12 12 9 -9 9 -15 0 -24z
m-6979 -39 c4 -15 2 -19 -10 -15 -8 3 -17 6 -19 6 -2 0 -4 9 -4 20 0 25 26 16
33 -11z m1032 21 c-3 -5 -10 -10 -16 -10 -5 0 -9 5 -9 10 0 6 7 10 16 10 8 0
12 -4 9 -10z m-1109 -55 c-7 -37 -26 -48 -26 -15 0 21 21 62 28 55 3 -2 1 -20
-2 -40z m1978 3 c-3 -5 -11 -5 -18 1 -7 6 -17 7 -21 3 -5 -4 -5 -2 -2 5 4 6
16 9 27 6 11 -3 17 -9 14 -15z m-1934 -2 c0 -8 7 -17 16 -20 19 -7 11 -22 -15
-29 -16 -4 -19 1 -18 29 1 32 17 51 17 20z m1940 -69 c0 -5 -7 -2 -15 7 -8 8
-15 20 -15 27 0 14 29 -20 30 -34z m-1845 23 c3 -5 -1 -10 -9 -10 -9 0 -16 5
-16 10 0 6 4 10 9 10 6 0 13 -4 16 -10z m1 -36 c-3 -8 3 -24 14 -36 11 -12 18
-24 15 -26 -8 -8 -55 47 -55 64 0 7 7 14 16 14 10 0 14 -5 10 -16z m-46 -26
c0 -6 -8 -20 -17 -31 -17 -19 -17 -20 5 -15 12 4 22 2 22 -3 0 -12 27 -12 32
1 6 17 48 -1 48 -21 0 -21 -11 -24 -27 -8 -8 8 -17 8 -31 0 -25 -13 -35 -14
-28 -2 3 5 -3 11 -14 14 -13 3 -20 0 -20 -9 0 -8 -4 -14 -10 -14 -5 0 -10 -10
-10 -22 l1 -23 19 23 19 23 -5 -38 c-4 -30 -2 -33 5 -17 5 12 23 28 39 36 27
14 29 14 25 -3 -3 -11 1 -21 11 -25 20 -8 20 -21 0 -41 -12 -12 -18 -13 -27
-4 -9 9 -8 14 3 21 22 14 5 23 -19 11 -25 -14 -57 -71 -44 -80 10 -7 13 -61 3
-61 -21 0 -72 79 -87 135 -13 46 -3 121 15 118 7 -2 12 2 12 8 0 5 8 9 18 8
32 -3 42 1 42 16 0 8 5 15 10 15 6 0 10 -5 10 -12z m950 2 c0 -12 -28 -25 -36
-17 -9 9 6 27 22 27 8 0 14 -5 14 -10z m1120 -15 c0 -12 -19 -12 -23 0 -4 9
-1 12 9 8 7 -3 14 -7 14 -8z m4775 -5 c3 -5 1 -10 -4 -10 -6 0 -11 5 -11 10 0
6 2 10 4 10 3 0 8 -4 11 -10z m-4805 -39 c0 -41 27 -88 66 -115 19 -12 31 -26
26 -31 -4 -4 4 -2 16 4 13 7 27 9 30 5 4 -4 1 -9 -5 -11 -21 -8 -15 -25 6 -18
11 3 22 1 25 -4 4 -6 12 -8 19 -6 18 7 35 -7 42 -38 5 -18 3 -27 -5 -27 -6 0
-9 3 -7 8 3 4 -25 8 -61 8 -57 2 -155 27 -172 44 -3 3 -18 6 -35 8 -16 2 -52
11 -80 22 -156 58 -243 80 -284 74 -23 -4 -44 -11 -47 -15 -3 -5 -19 -9 -36
-9 -17 0 -36 -7 -43 -16 -9 -13 -29 -16 -92 -16 -45 1 -90 5 -100 10 -59 31
-122 53 -143 51 -49 -4 -60 0 -60 24 0 13 9 32 19 41 19 17 20 17 33 -3 16
-27 24 -27 31 0 5 18 11 20 34 15 78 -19 127 -25 218 -25 82 -1 108 3 140 19
47 24 45 24 45 5 0 -22 23 -18 44 7 l19 21 11 -22 c11 -20 14 -21 25 -7 15 18
33 12 25 -8 -6 -15 43 -26 122 -26 29 0 65 -7 80 -15 26 -14 30 -13 43 3 9 12
15 13 18 5 3 -7 9 -13 15 -13 7 0 9 17 6 45 -3 24 -2 42 3 39 5 -3 9 -18 9
-33z m-1217 12 c-6 -16 -5 -16 10 -4 9 7 17 9 17 3 0 -16 -28 -22 -39 -8 -11
13 -5 26 10 26 5 0 5 -8 2 -17z m243 -19 c-6 -16 13 -64 26 -64 15 0 8 -21 -9
-26 -22 -7 -43 -16 -108 -44 -79 -34 -89 -38 -112 -38 -16 -1 -23 5 -23 19 0
10 5 19 10 19 6 0 10 -5 10 -11 0 -6 9 -8 23 -3 27 8 28 9 31 26 1 7 5 19 9
26 5 6 5 17 1 24 -5 8 -2 9 9 5 11 -4 17 -1 17 8 0 8 7 15 16 15 9 0 23 8 30
18 11 15 16 15 35 4 19 -12 21 -12 16 2 -8 20 2 48 15 40 5 -3 7 -12 4 -20z
m1014 -2 c0 -15 -2 -15 -10 -2 -13 20 -13 33 0 25 6 -3 10 -14 10 -23z m4617
22 c-3 -3 -12 -4 -19 -1 -8 3 -5 6 6 6 11 1 17 -2 13 -5z m-4777 -14 c0 -5 -7
-10 -15 -10 -8 0 -15 5 -15 10 0 6 7 10 15 10 8 0 15 -4 15 -10z m265 -39 c-8
-8 -35 22 -35 38 0 12 5 10 20 -9 10 -14 17 -27 15 -29z m-365 29 c0 -5 -5
-10 -11 -10 -5 0 -7 5 -4 10 3 6 8 10 11 10 2 0 4 -4 4 -10z m-1003 -32 c7 19
29 14 29 -7 0 -11 -5 -17 -14 -14 -7 3 -22 -3 -32 -12 -21 -19 -28 -7 -8 13 9
9 9 12 0 12 -7 0 -12 5 -12 11 0 8 6 7 17 -2 13 -11 17 -11 20 -1z m1328 -8
c3 -5 1 -10 -4 -10 -6 0 -11 5 -11 10 0 6 2 10 4 10 3 0 8 -4 11 -10z m-1265
-70 c0 -5 -4 -10 -10 -10 -5 0 -10 5 -10 10 0 6 5 10 10 10 6 0 10 -4 10 -10z
m-300 -25 c-7 -8 -19 -15 -27 -15 -13 0 -13 3 -3 15 7 8 19 15 27 15 13 0 13
-3 3 -15z m1964 -11 c3 -8 2 -12 -4 -9 -6 3 -10 10 -10 16 0 14 7 11 14 -7z
m-1974 -93 c0 -5 -7 -11 -15 -15 -15 -5 -20 5 -8 17 9 10 23 9 23 -2z m-572
-42 c-6 -16 -13 -28 -15 -25 -8 8 6 56 17 56 5 0 5 -13 -2 -31z m1942 -9 c64
7 158 -3 192 -21 10 -5 26 -9 36 -9 10 0 22 -3 25 -6 4 -4 35 -8 69 -10 41 -2
70 -9 88 -22 14 -11 34 -22 46 -26 21 -7 62 -66 45 -66 -6 0 -11 -7 -11 -15 0
-11 7 -14 25 -9 15 4 25 2 25 -5 0 -6 -7 -8 -15 -5 -8 4 -15 2 -15 -3 0 -15
23 -33 41 -33 11 0 20 -11 24 -31 4 -17 14 -33 23 -36 29 -10 41 -24 35 -39
-3 -7 -9 -11 -15 -8 -5 3 -18 -2 -29 -12 -19 -17 -19 -19 -3 -31 14 -10 14
-13 3 -13 -12 0 -12 -2 1 -10 11 -7 3 -10 -30 -10 -37 -1 -42 -3 -29 -13 8 -7
18 -22 21 -34 5 -18 2 -23 -14 -23 -18 0 -18 -3 8 -50 15 -28 24 -53 21 -57
-4 -3 -7 -1 -7 6 0 7 -4 10 -9 7 -5 -3 -11 3 -14 14 -6 23 -37 27 -37 5 0 -8
6 -15 13 -15 9 0 8 -3 -2 -9 -11 -7 -10 -13 5 -34 11 -14 29 -31 42 -38 12 -7
22 -19 22 -27 0 -10 -9 -5 -26 13 -23 25 -27 27 -36 12 -18 -33 -68 -14 -68
26 0 10 -4 15 -10 12 -6 -4 -7 1 -3 11 5 14 1 15 -25 10 -18 -4 -33 -3 -37 3
-3 6 1 11 9 11 9 0 16 7 16 15 0 20 -7 19 -36 -4 l-24 -19 32 -27 33 -27 -28
6 c-26 6 -27 5 -15 -14 7 -11 20 -21 28 -21 10 -1 8 -3 -4 -6 -10 -3 -28 -14
-40 -25 l-21 -21 43 6 42 5 6 -40 c5 -27 10 -35 15 -26 5 7 9 11 9 8 8 -50 6
-68 -7 -63 -8 3 -12 12 -9 19 3 9 -1 14 -12 14 -10 0 -23 5 -30 10 -6 6 -10 7
-7 4 2 -4 -3 -13 -11 -21 -8 -9 -13 -22 -10 -29 8 -21 -11 -17 -36 8 -14 14
-23 17 -26 10 -2 -8 -12 -6 -30 5 -27 17 -27 17 -10 -2 9 -11 24 -39 34 -62
10 -24 24 -43 30 -43 7 0 10 -8 7 -20 -3 -11 0 -27 7 -35 8 -9 10 -29 7 -50
-3 -19 -2 -35 4 -35 5 0 9 5 9 10 0 6 5 10 10 10 18 0 11 -29 -10 -42 -11 -7
-20 -19 -20 -26 0 -7 -11 -24 -24 -37 -14 -14 -26 -41 -30 -69 -8 -54 -3 -58
20 -13 9 17 22 35 28 39 24 17 27 6 6 -28 -18 -28 -21 -44 -16 -82 3 -26 1
-54 -4 -62 -7 -11 -10 0 -10 38 0 46 -2 52 -20 52 -19 0 -21 5 -16 56 4 47 2
54 -10 43 -8 -6 -14 -17 -14 -24 0 -7 -7 -18 -15 -25 -9 -8 -15 -9 -15 -2 0 6
5 14 11 18 6 3 9 14 6 24 -2 9 0 25 5 34 7 13 13 14 29 6 17 -10 22 -6 40 34
15 36 18 57 13 96 -4 27 -10 50 -15 50 -5 0 -9 11 -9 25 0 14 -11 37 -25 51
-14 14 -25 31 -25 39 0 8 -6 16 -12 16 -45 5 -70 4 -81 -3 -9 -6 -8 -8 3 -8 8
0 23 -14 33 -31 l17 -31 -25 6 c-22 6 -25 3 -25 -18 0 -14 -4 -28 -10 -31 -6
-4 -10 7 -10 24 0 31 -6 37 -26 23 -17 -12 -45 -93 -39 -113 4 -10 3 -29 -1
-41 -7 -22 -7 -22 -16 -3 -6 15 -7 12 -2 -10 3 -16 10 -31 15 -33 5 -2 6 -16
3 -30 -6 -26 -6 -26 12 -9 15 14 19 30 17 74 -1 31 2 64 7 72 7 12 9 6 10 -22
0 -23 4 -36 10 -32 7 4 7 -3 0 -20 -7 -17 -7 -24 0 -20 15 9 12 -1 -10 -47
-11 -23 -20 -48 -20 -56 0 -7 -8 -12 -17 -10 -12 2 -18 13 -18 31 -1 16 -7 32
-14 37 -8 4 -10 13 -7 19 4 6 1 11 -6 11 -16 0 -13 66 3 76 15 9 10 34 -5 28
-8 -3 -17 -1 -21 5 -6 10 7 15 28 12 8 -1 2 42 -7 58 -4 5 -2 12 4 16 5 3 10
1 10 -6 0 -7 2 -10 5 -8 11 11 -9 49 -26 49 -12 0 -16 -5 -13 -15 4 -8 2 -15
-4 -15 -14 0 -24 -50 -28 -145 -7 -146 -4 -135 -26 -113 -22 22 -23 32 -3 48
17 14 20 72 5 100 -7 13 -6 19 6 24 10 4 14 16 13 33 -2 16 0 33 3 38 11 19 6
84 -8 96 -8 6 -14 8 -15 3 0 -5 -4 -1 -8 10 -7 17 -8 17 -24 2 -9 -10 -21 -14
-27 -11 -16 10 -12 47 8 62 15 13 15 13 -6 3 -18 -9 -27 -8 -39 2 -14 11 -15
9 -8 -22 9 -45 13 -79 8 -62 -3 6 -9 12 -14 12 -5 0 -9 -6 -10 -12 0 -10 -2
-10 -5 -1 -3 7 0 22 6 33 15 27 6 37 -16 19 -15 -12 -16 -11 -11 11 4 14 4 19
1 12 -8 -18 -35 5 -27 24 3 8 -1 14 -11 14 -9 0 -16 5 -16 11 0 5 -5 7 -10 4
-8 -5 -8 -11 0 -20 10 -12 5 -56 -9 -80 -3 -5 -7 -19 -8 -29 -5 -30 -13 -33
-13 -5 0 19 -2 21 -10 9 -5 -8 -7 -32 -3 -53 4 -30 2 -42 -14 -57 -18 -16 -22
-17 -35 -3 -14 13 -15 12 -10 -13 4 -20 2 -25 -8 -19 -8 5 -10 21 -5 51 4 26
2 44 -3 44 -15 0 -33 -59 -26 -86 5 -19 1 -24 -20 -30 -17 -4 -26 -13 -26 -26
0 -13 -5 -18 -14 -15 -7 3 -19 0 -25 -6 -6 -6 -12 -8 -12 -4 -1 4 -3 12 -4 17
-1 6 -3 15 -4 21 0 6 -8 9 -16 5 -8 -3 -15 -1 -15 4 0 6 -7 10 -16 10 -10 0
-14 6 -11 14 8 19 -13 38 -28 26 -21 -18 -46 -1 -39 27 6 22 4 23 -22 17 -27
-7 -28 -6 -15 10 8 9 20 15 28 12 7 -3 13 1 13 10 0 10 -6 14 -15 10 -10 -4
-15 1 -15 15 0 11 -4 17 -10 14 -5 -3 -10 2 -10 12 0 14 -2 15 -9 4 -5 -8 -18
-12 -30 -8 -12 3 -24 1 -27 -4 -3 -5 4 -9 15 -9 11 0 22 -4 25 -8 8 -13 -5
-52 -15 -46 -5 3 -9 -2 -9 -10 0 -9 -4 -16 -10 -16 -5 0 -10 -7 -10 -15 0 -8
-7 -15 -16 -15 -24 0 -104 -52 -104 -67 0 -15 -16 -17 -24 -4 -9 15 51 69 84
76 35 8 47 22 31 38 -14 14 -14 52 -1 78 6 10 7 19 3 19 -14 -1 -43 -27 -43
-39 0 -6 -4 -11 -9 -11 -5 0 -12 -10 -16 -22 -3 -13 -9 -18 -11 -11 -3 7 -12
9 -20 6 -21 -8 -17 6 8 26 14 12 19 24 14 36 -6 18 -39 18 -106 -1 -15 -4 -22
-3 -17 2 5 5 14 9 20 9 5 0 12 6 15 14 3 10 0 12 -11 8 -9 -3 -19 -2 -23 4 -3
5 -14 7 -24 4 -10 -3 -21 -1 -25 5 -8 12 -16 13 -35 0 -12 -8 -13 -11 -1 -19
11 -7 10 -15 -4 -45 -19 -40 -50 -49 -52 -15 -2 16 3 20 17 16 13 -3 21 1 26
15 8 27 0 32 -27 17 -17 -9 -24 -9 -27 0 -5 16 -47 14 -61 -3 -10 -12 -51 -29
-51 -21 0 1 19 15 43 31 41 28 56 34 127 51 20 5 36 16 38 25 3 16 1 16 -27 2
-17 -8 -43 -14 -58 -12 -26 4 -24 6 24 29 29 13 53 30 53 37 0 6 4 12 10 12 5
0 7 7 4 15 -4 10 0 15 14 15 11 0 22 -7 26 -15 6 -17 66 -21 66 -5 0 5 12 13
28 16 15 4 33 12 41 18 12 9 13 8 8 -6 -3 -10 -3 -18 1 -18 4 0 17 -3 30 -6
18 -5 22 -2 22 15 0 35 41 52 132 56 104 4 252 22 297 35 19 5 58 7 87 5 34
-3 62 1 80 10 15 8 31 12 36 9 4 -3 14 -2 21 3 6 4 17 8 22 8 6 1 29 5 53 10
35 6 41 11 37 26 -7 21 19 39 46 32 15 -4 20 2 25 26 6 29 24 44 24 19 0 -6 3
-9 6 -6 3 4 -2 27 -11 53 -18 55 -14 73 6 23 l13 -33 4 35 c2 19 8 41 14 47
13 17 -7 43 -33 43 -14 0 -19 -7 -20 -27 0 -27 -1 -27 -9 -5 -7 16 -18 22 -40
22 -17 0 -30 5 -30 13 0 8 -3 8 -8 1 -4 -6 -24 -10 -45 -9 -21 1 -40 -2 -43
-7 -5 -8 -81 -3 -117 8 -13 4 -17 1 -15 -9 2 -9 -1 -16 -7 -16 -5 0 -9 8 -9
19 2 24 -12 26 -24 5 -6 -13 -14 -14 -34 -6 -16 6 -47 7 -77 2 -28 -4 -51 -4
-51 0 0 5 -7 9 -15 9 -9 0 -15 -9 -15 -23 0 -31 -19 -50 -37 -36 -7 7 -13 18
-13 26 0 11 -11 14 -47 11 -36 -2 -47 0 -45 10 2 9 -7 13 -25 11 -16 -1 -41 2
-56 6 -17 4 -33 3 -39 -3 -7 -7 -18 -7 -34 0 -17 8 -27 8 -38 -1 -8 -7 -17 -8
-20 -3 -3 5 -19 9 -36 10 -17 0 -28 -4 -25 -9 4 -5 0 -9 -8 -9 -8 0 -25 -9
-38 -20 -19 -15 -20 -19 -8 -20 9 0 19 -6 22 -13 3 -9 -7 -13 -39 -13 -24 -1
-44 2 -44 5 0 6 60 59 82 72 18 11 -2 29 -33 29 -26 0 -28 -2 -20 -19 13 -23
-3 -46 -41 -60 -16 -6 -28 -16 -28 -23 0 -22 18 -43 37 -43 17 0 19 -6 22 -63
1 -17 6 -22 19 -18 18 5 54 -41 67 -86 4 -16 0 -13 -17 12 l-23 35 -3 -27 c-3
-29 -16 -36 -28 -17 -4 8 -9 7 -15 -2 -7 -11 -9 -11 -9 -1 0 16 -24 42 -39 42
-6 0 -11 -9 -11 -19 0 -11 -5 -23 -12 -27 -11 -7 -9 10 7 49 4 10 3 17 -5 17
-6 0 -17 -13 -23 -30 -14 -38 -35 -46 -46 -17 -12 31 -37 51 -46 37 -8 -13
-25 -3 -25 16 0 8 7 14 15 14 17 0 18 2 9 24 -3 9 -12 16 -19 16 -8 0 -16 18
-20 43 -4 23 -11 50 -17 60 -6 11 -5 17 3 17 7 0 9 10 7 25 -3 14 -2 25 1 25
4 0 7 9 7 20 0 11 -4 20 -8 20 -4 0 -8 4 -8 9 0 13 57 34 70 26 6 -4 20 1 31
11 17 16 19 16 19 1 0 -10 7 -17 15 -17 8 0 15 6 15 13 0 7 14 24 32 37 28 21
32 22 43 6 11 -15 14 -15 25 -1 9 11 16 13 24 5 13 -13 26 -13 26 0 0 6 -7 10
-16 10 -11 0 -14 5 -10 16 3 9 6 20 6 25 0 5 6 9 14 9 8 0 16 6 19 13 8 20
140 22 171 2 19 -13 29 -14 43 -6 16 10 15 10 -6 8 -13 -1 -26 4 -28 11 -8 21
118 7 135 -15 6 -9 12 -12 12 -5 0 14 158 14 176 0 7 -5 14 -3 17 5 4 10 37
16 119 21 62 4 125 7 141 7 15 -1 27 3 27 8 0 5 12 4 28 -3 19 -10 46 -11 92
-6z m756 -46 c-3 -8 -10 -13 -16 -9 -6 3 -5 16 3 32 9 21 13 23 15 9 2 -9 1
-24 -2 -32z m-78 -44 l0 -25 -8 25 c-4 14 -8 36 -8 50 l0 25 8 -25 c4 -14 8
-36 8 -50z m-2400 35 c-6 -14 -13 -24 -14 -22 -6 6 9 47 17 47 5 0 3 -11 -3
-25z m3882 5 c0 -5 -2 -10 -4 -10 -3 0 -8 5 -11 10 -3 6 -1 10 4 10 6 0 11 -4
11 -10z m-4075 -29 c-14 -28 -33 -47 -39 -40 -8 10 26 69 39 69 14 0 14 -3 0
-29z m455 9 c0 -5 -2 -10 -4 -10 -3 0 -8 5 -11 10 -3 6 -1 10 4 10 6 0 11 -4
11 -10z m4 -31 c11 17 23 13 29 -10 4 -15 -1 -23 -19 -31 -13 -6 -24 -14 -24
-18 0 -4 -11 -5 -25 -2 -23 4 -25 1 -25 -29 l-1 -34 -14 40 c-8 22 -15 41 -15
43 0 1 12 2 28 2 37 0 54 13 46 36 -4 14 -3 15 4 5 7 -9 12 -10 16 -2z m-74
-9 c0 -5 -2 -10 -4 -10 -3 0 -8 5 -11 10 -3 6 -1 10 4 10 6 0 11 -4 11 -10z
m-23 -102 c-3 -7 -5 -2 -5 12 0 14 2 19 5 13 2 -7 2 -19 0 -25z m-264 -70 c2
-38 2 -68 -1 -68 -2 0 -11 8 -18 18 -12 15 -14 13 -12 -16 1 -19 6 -36 10 -38
4 -3 8 -23 8 -45 0 -27 -4 -38 -11 -33 -6 3 -9 17 -6 30 6 35 -18 52 -43 29
-11 -10 -20 -14 -20 -8 0 5 9 18 19 27 19 17 28 46 37 121 12 91 29 83 37 -17z
m947 12 c0 -13 -5 -18 -15 -14 -8 4 -15 1 -15 -7 0 -7 -3 -9 -7 -6 -5 6 24 47
34 47 1 0 3 -9 3 -20z m217 -6 c-3 -3 -12 -4 -19 -1 -8 3 -5 6 6 6 11 1 17 -2
13 -5z m1753 -15 c0 -6 -4 -7 -10 -4 -5 3 -10 11 -10 16 0 6 5 7 10 4 6 -3 10
-11 10 -16z m-1932 -39 c-15 -24 -22 -19 -13 9 3 12 11 19 16 16 5 -4 3 -14
-3 -25z m742 9 c0 -6 -4 -7 -10 -4 -5 3 -10 11 -10 16 0 6 5 7 10 4 6 -3 10
-11 10 -16z m-400 -34 c0 -8 -4 -15 -10 -15 -5 0 -7 7 -4 15 4 8 8 15 10 15 2
0 4 -7 4 -15z m437 -67 c-3 -8 -6 -5 -6 6 -1 11 2 17 5 13 3 -3 4 -12 1 -19z
m-1656 -11 c-10 -9 -11 -8 -5 6 3 10 9 15 12 12 3 -3 0 -11 -7 -18z m-75 -15
c-18 -16 -18 -16 -6 6 6 13 14 21 18 18 3 -4 -2 -14 -12 -24z m38 -98 c-21
-32 -39 -54 -41 -48 -2 6 13 39 34 72 21 34 39 55 41 48 2 -8 -14 -40 -34 -72z
m96 26 c-15 -51 -34 -71 -75 -80 -35 -8 -36 -7 -20 10 9 10 22 17 29 14 18 -7
39 39 31 67 -4 16 -3 20 3 11 7 -11 11 -8 15 9 4 16 10 20 16 14 7 -7 7 -22 1
-45z m2756 -25 c6 -36 6 -39 -9 -26 -11 9 -17 28 -17 55 1 48 14 33 26 -29z
m-2296 40 c-7 -9 -15 -13 -17 -11 -7 7 7 26 19 26 6 0 6 -6 -2 -15z m20 -20
c-7 -9 -15 -13 -17 -11 -7 7 7 26 19 26 6 0 6 -6 -2 -15z m105 -55 c-6 -9 -9
-9 -16 1 -10 17 0 34 13 21 6 -6 7 -16 3 -22z m-75 10 c0 -5 -4 -10 -10 -10
-5 0 -10 5 -10 10 0 6 5 10 10 10 6 0 10 -4 10 -10z m173 -15 c10 -14 15 -25
11 -25 -11 0 -44 32 -44 42 0 15 15 8 33 -17z m1587 -30 c0 -17 -2 -17 -10 -5
-5 8 -10 24 -10 35 0 17 2 17 10 5 5 -8 10 -24 10 -35z m-2230 20 c0 -17 -56
-55 -82 -55 -10 0 -18 5 -18 10 0 6 6 10 13 10 6 0 26 11 42 25 35 28 45 31
45 10z m296 0 c-11 -8 -33 -15 -50 -15 -36 0 -29 10 16 20 49 12 55 11 34 -5z
m-486 -5 c0 -5 -2 -10 -4 -10 -3 0 -8 5 -11 10 -3 6 -1 10 4 10 6 0 11 -4 11
-10z m654 -9 c5 -8 -35 -31 -54 -31 -18 0 -10 17 13 28 28 13 35 14 41 3z
m1986 -20 c0 -11 -4 -23 -10 -26 -6 -4 -10 5 -10 19 0 14 5 26 10 26 6 0 10
-9 10 -19z m-1950 -1 c0 -5 -5 -10 -11 -10 -5 0 -7 5 -4 10 3 6 8 10 11 10 2
0 4 -4 4 -10z m-666 -18 c2 -4 -2 -15 -9 -25 -10 -13 -14 -15 -18 -5 -8 26 14
51 27 30z m41 -39 c-8 -42 -34 -93 -49 -93 -5 0 -2 8 7 18 10 10 17 31 17 46
0 27 16 66 26 66 4 0 3 -17 -1 -37z m2715 5 c0 -6 -7 -5 -15 2 -8 7 -15 17
-15 22 0 6 7 5 15 -2 8 -7 15 -17 15 -22z m-2630 -33 c-13 -14 -24 -34 -25
-44 -2 -22 -34 -75 -42 -68 -2 3 3 19 11 36 9 16 16 41 16 56 0 14 6 25 14 25
7 0 19 7 26 15 7 9 15 13 18 10 3 -3 -5 -16 -18 -30z m2476 8 c-7 -7 -26 7
-26 19 0 6 6 6 15 -2 9 -7 13 -15 11 -17z m-321 -22 c3 -5 1 -12 -5 -16 -5 -3
-10 1 -10 9 0 18 6 21 15 7z m-22 -36 c9 -13 13 -26 9 -29 -5 -3 -16 8 -26 25
-21 35 -8 38 17 4z m-707 -52 c-11 -11 -19 6 -11 24 8 17 8 17 12 0 3 -10 2
-21 -1 -24z m622 -39 c-10 -10 -28 6 -28 24 0 15 1 15 17 -1 9 -9 14 -19 11
-23z m-1408 15 c0 -5 5 -7 12 -3 6 4 8 3 5 -4 -4 -5 -16 -8 -27 -5 -11 3 -17
9 -14 14 7 12 24 11 24 -2z m2630 1 c0 -5 -4 -10 -10 -10 -5 0 -10 5 -10 10 0
6 5 10 10 10 6 0 10 -4 10 -10z m-2500 -10 c0 -10 -32 -30 -49 -30 -6 0 -3 9
6 20 18 21 43 27 43 10z m1923 -30 c3 -10 -1 -24 -7 -29 -10 -8 -11 -3 -8 19
5 35 8 37 15 10z m-2053 -10 c0 -5 -4 -10 -9 -10 -6 0 -13 5 -16 10 -3 6 1 10
9 10 9 0 16 -4 16 -10z m210 -12 c0 -7 -7 -22 -15 -32 -14 -19 -15 -19 -15 5
0 14 3 29 7 32 10 11 23 8 23 -5z m1065 -58 c-4 -11 -12 -20 -19 -20 -8 0 -15
-17 -19 -42 -2 -24 -8 -52 -13 -63 -7 -18 -6 -18 9 -6 26 21 22 -8 -8 -65 -14
-26 -25 -56 -25 -68 0 -12 -10 -32 -21 -46 -11 -14 -18 -20 -15 -14 10 21 24
94 16 89 -14 -8 -18 109 -6 169 7 33 15 56 18 50 6 -9 3 -51 -7 -94 -4 -17 -3
-20 4 -10 5 8 14 49 21 90 15 88 36 115 58 75 7 -14 10 -35 7 -45z m275 50 c0
-5 -4 -10 -10 -10 -5 0 -10 5 -10 10 0 6 5 10 10 10 6 0 10 -4 10 -10z m-100
-25 c0 -9 -6 -12 -15 -9 -8 4 -15 10 -15 15 0 5 7 9 15 9 8 0 15 -7 15 -15z
m1024 -82 c-18 -29 -39 -32 -24 -4 5 11 10 30 10 44 0 36 14 42 22 10 5 -18 3
-35 -8 -50z m-42 45 c-7 -7 -12 -8 -12 -2 0 14 12 26 19 19 2 -3 -1 -11 -7
-17z m-1002 -29 c0 -17 -5 -39 -11 -51 -11 -20 -11 -20 -26 2 -8 12 -12 24 -9
27 3 4 6 1 6 -5 0 -7 7 -12 16 -12 14 0 16 7 11 40 -3 23 -1 38 4 34 5 -3 9
-19 9 -35z m-1970 16 c-7 -8 -16 -12 -21 -9 -13 8 -1 24 18 24 13 0 13 -3 3
-15z m574 -10 c-10 -8 -23 -14 -29 -14 -5 0 -1 6 9 14 11 8 24 15 30 15 5 0 1
-7 -10 -15z m174 -20 c-16 -13 -28 -29 -28 -35 0 -5 -4 -10 -10 -10 -19 0 -10
24 18 47 37 30 54 29 20 -2z m1100 -35 c2 -30 -2 -58 -8 -64 -9 -8 -10 -2 -5
25 5 25 3 39 -6 44 -8 6 -10 4 -4 -5 5 -8 4 -11 -3 -6 -6 4 -9 13 -5 21 3 9 0
21 -6 28 -8 11 -6 13 12 12 19 -1 22 -8 25 -55z m1252 50 c0 -5 -5 -10 -11
-10 -5 0 -7 5 -4 10 3 6 8 10 11 10 2 0 4 -4 4 -10z m-683 -58 c-19 -18 -22
-7 -10 38 l6 24 10 -22 c8 -18 7 -27 -6 -40z m543 34 c0 -7 -9 -21 -20 -31
-22 -20 -26 -9 -9 29 12 25 29 26 29 2z m-643 -23 c-3 -10 -5 -4 -5 12 0 17 2
24 5 18 2 -7 2 -21 0 -30z m403 2 c0 -8 -4 -15 -10 -15 -5 0 -7 7 -4 15 4 8 8
15 10 15 2 0 4 -7 4 -15z m-1720 -14 c0 -6 -4 -13 -10 -16 -5 -3 -10 1 -10 9
0 9 5 16 10 16 6 0 10 -4 10 -9z m-630 -16 c-7 -8 -18 -15 -24 -15 -6 0 -2 7
8 15 25 19 32 19 16 0z m2210 -1 c0 -8 -4 -12 -10 -9 -5 3 -10 10 -10 16 0 5
5 9 10 9 6 0 10 -7 10 -16z m456 -10 c-4 -9 -9 -15 -11 -12 -3 3 -3 13 1 22 4
9 9 15 11 12 3 -3 3 -13 -1 -22z m-1946 7 c0 -6 -4 -13 -10 -16 -5 -3 -10 1
-10 9 0 9 5 16 10 16 6 0 10 -4 10 -9z m-510 -32 c0 -10 -4 -19 -10 -19 -5 0
-9 11 -8 24 3 28 18 24 18 -5z m2052 9 c-7 -7 -12 -8 -12 -2 0 14 12 26 19 19
2 -3 -1 -11 -7 -17z m-114 -8 c-7 -11 -17 -20 -22 -20 -5 0 -1 9 9 20 10 11
20 20 22 20 2 0 -2 -9 -9 -20z m-218 6 c0 -3 -4 -8 -10 -11 -5 -3 -10 -1 -10
4 0 6 5 11 10 11 6 0 10 -2 10 -4z m644 -54 c-8 -27 -16 -28 -32 -2 -10 17
-10 20 3 20 8 0 15 5 15 12 0 8 3 9 10 2 5 -5 7 -19 4 -32z m-1483 -5 c-8 -8
-11 -7 -11 4 0 20 13 34 18 19 3 -7 -1 -17 -7 -23z m579 14 c0 -11 -4 -23 -10
-26 -6 -4 -10 5 -10 19 0 14 5 26 10 26 6 0 10 -9 10 -19z m960 -2 c0 -5 -7
-9 -15 -9 -15 0 -20 12 -9 23 8 8 24 -1 24 -14z m-2446 -4 c-4 -8 -11 -12 -16
-9 -6 4 -5 10 3 15 19 12 19 11 13 -6z m76 -5 c-6 -11 -12 -20 -14 -20 -2 0
-2 9 1 20 3 11 9 20 15 20 5 0 4 -9 -2 -20z m-170 1 c0 -5 -7 -11 -15 -15 -15
-5 -20 5 -8 17 9 10 23 9 23 -2z m1120 -28 c-11 -17 -11 -17 -6 0 3 10 6 24 7
30 0 9 2 9 5 0 3 -7 0 -20 -6 -30z m-143 -8 c-4 -8 -11 -15 -17 -15 -7 0 -7 6
0 21 13 23 26 19 17 -6z m1350 3 c-3 -8 -6 -5 -6 6 -1 11 2 17 5 13 3 -3 4
-12 1 -19z m-2092 3 c3 -5 1 -12 -5 -16 -5 -3 -10 1 -10 9 0 18 6 21 15 7z
m-45 -15 c0 -2 -7 -6 -15 -10 -8 -3 -15 -1 -15 4 0 6 7 10 15 10 8 0 15 -2 15
-4z m1031 -119 c-8 -8 -11 -6 -11 6 0 9 -3 16 -7 16 -19 -3 -33 2 -33 12 0 6
9 9 20 6 16 -4 20 0 20 18 0 54 15 59 18 6 2 -30 -2 -59 -7 -64z m1129 97 c0
-8 -4 -12 -10 -9 -5 3 -10 10 -10 16 0 5 5 9 10 9 6 0 10 -7 10 -16z m-813
-26 c-3 -7 -5 -2 -5 12 0 14 2 19 5 13 2 -7 2 -19 0 -25z m-384 -25 c-3 -27
-12 -55 -20 -63 -12 -13 -13 -13 -7 4 4 10 8 30 9 45 4 56 5 61 14 61 5 0 6
-21 4 -47z m679 25 c-7 -7 -12 -8 -12 -2 0 14 12 26 19 19 2 -3 -1 -11 -7 -17z
m388 5 c0 -14 -19 -38 -25 -32 -8 8 5 39 16 39 5 0 9 -3 9 -7z m-910 -72 c-26
-53 -42 -53 -37 -1 5 49 17 65 17 24 l1 -29 16 35 c8 19 17 30 20 23 2 -6 -5
-30 -17 -52z m-249 18 c-9 -22 -10 -22 -10 -3 -1 11 2 24 6 27 12 12 14 0 4
-24z m-971 1 c0 -13 -28 -25 -38 -16 -3 4 0 11 8 16 20 13 30 12 30 0z m2304
-32 c6 -4 -2 -7 -19 -7 -16 0 -24 3 -17 6 6 2 12 12 13 21 0 14 2 14 6 2 3 -8
11 -18 17 -22z m-1194 2 c0 -5 -5 -10 -11 -10 -5 0 -7 5 -4 10 3 6 8 10 11 10
2 0 4 -4 4 -10z m-120 -4 c0 -3 -4 -8 -10 -11 -5 -3 -10 -1 -10 4 0 6 5 11 10
11 6 0 10 -2 10 -4z m380 -11 c0 -8 -4 -15 -10 -15 -5 0 -7 7 -4 15 4 8 8 15
10 15 2 0 4 -7 4 -15z m241 -8 c-10 -9 -11 -8 -5 6 3 10 9 15 12 12 3 -3 0
-11 -7 -18z m529 -46 c0 -12 -20 -25 -27 -18 -7 7 6 27 18 27 5 0 9 -4 9 -9z
m105 -67 c0 -18 -5 -31 -12 -31 -7 0 -13 8 -13 18 0 9 -3 25 -6 34 -5 13 -2
16 12 13 14 -2 19 -12 19 -34z m-134 -69 c11 -24 13 -37 5 -45 -18 -18 -24
-11 -20 20 3 17 1 30 -5 30 -6 0 -11 7 -11 15 0 25 14 16 31 -20z m-406 -33
c-15 -16 -16 -15 -4 12 7 15 15 23 17 16 3 -7 -3 -19 -13 -28z m-1985 -50 c0
-4 -9 -13 -20 -20 -16 -10 -20 -10 -20 2 0 8 6 17 13 19 19 8 27 8 27 -1z
m-15 -70 c6 -4 15 -16 21 -28 10 -17 9 -22 -7 -32 -17 -11 -19 -9 -19 12 0 14
-4 28 -10 31 -12 7 -13 25 -2 25 4 0 12 -4 17 -8z m2105 -121 c-6 -12 -15 -19
-21 -16 -5 4 -6 12 -2 18 4 7 8 15 9 20 1 4 2 10 3 14 0 4 6 2 12 -4 8 -8 8
-17 -1 -32z m-46 10 c3 -4 -6 -19 -20 -32 -22 -21 -24 -21 -18 -4 7 20 24 45
30 45 1 0 5 -4 8 -9z m-1964 -31 c0 -5 -5 -10 -11 -10 -5 0 -7 5 -4 10 3 6 8
10 11 10 2 0 4 -4 4 -10z m1990 -29 c0 -5 -7 -14 -15 -21 -16 -14 -18 -10 -9
14 6 17 24 22 24 7z m-1944 -53 c1 -36 0 -39 -7 -19 -8 19 -4 61 4 61 1 0 3
-19 3 -42z m1762 23 c-7 -11 -16 -17 -20 -14 -10 5 10 33 23 33 5 0 4 -9 -3
-19z m1570 -42 c7 -12 11 -24 8 -27 -6 -6 -35 27 -36 41 0 14 15 7 28 -14z
m-2238 -169 c0 -5 -2 -10 -4 -10 -3 0 -8 5 -11 10 -3 6 -1 10 4 10 6 0 11 -4
11 -10z m50 -17 c-1 -10 -72 -64 -77 -59 -6 6 51 64 65 65 6 0 12 -2 12 -6z
m-730 -27 c0 -2 -7 -7 -16 -10 -8 -3 -12 -2 -9 4 6 10 25 14 25 6z m166 -70
c18 -14 18 -15 0 -22 -10 -4 -21 -2 -25 3 -3 5 -15 15 -26 21 -19 11 -19 11 6
12 14 0 34 -6 45 -14z m-36 -41 c0 -8 -4 -15 -9 -15 -5 0 -14 7 -21 15 -10 13
-9 15 9 15 12 0 21 -6 21 -15z m-1340 -286 c0 -16 -44 -22 -182 -25 -81 -1
-152 -5 -157 -8 -5 -3 -72 -10 -149 -16 -77 -5 -151 -14 -165 -19 -16 -6 -28
-6 -35 1 -6 6 -16 7 -24 2 -7 -5 -32 -9 -55 -10 -24 -1 -49 -6 -55 -12 -20
-15 -95 -25 -115 -14 -14 9 -11 12 22 20 59 14 259 41 345 47 41 3 111 9 155
15 44 5 132 12 194 15 63 3 116 7 118 9 7 7 103 2 103 -5z m-96 -80 c-9 -18
-26 -41 -38 -51 -22 -19 -41 -24 -32 -9 4 5 -3 7 -14 4 -11 -3 -20 -14 -20
-25 0 -14 5 -18 19 -13 12 3 21 0 25 -10 3 -8 11 -15 19 -15 7 0 14 -12 15
-26 2 -21 -1 -24 -18 -19 -11 3 -20 2 -20 -2 0 -5 -27 -10 -61 -11 -34 -2 -71
-9 -84 -18 -13 -9 -29 -13 -36 -9 -8 6 -7 10 2 16 11 7 11 9 -2 9 -9 0 -21
-10 -26 -22 -10 -22 -11 -22 -9 4 1 19 7 28 17 28 9 0 19 10 22 22 8 30 4 31
-21 8 -18 -17 -28 -19 -61 -11 -25 5 -43 5 -50 -2 -5 -5 -18 -10 -28 -11 -34
-4 -78 -19 -91 -33 -16 -16 -44 -17 -59 -2 -8 8 -17 5 -34 -12 -19 -19 -34
-24 -73 -23 -29 0 -52 6 -54 12 -3 9 -9 9 -24 1 -16 -9 -19 -8 -16 3 3 8 17
12 37 10 17 -1 31 2 31 8 0 5 -9 10 -21 10 -11 0 -18 4 -15 9 4 5 0 12 -6 15
-7 3 -1 3 14 1 18 -2 35 4 52 20 22 20 25 21 29 7 4 -13 5 -13 6 3 3 39 30 60
91 71 49 9 60 8 60 -3 0 -11 5 -10 25 3 14 9 32 14 40 10 8 -3 15 -2 15 3 0
14 64 7 78 -9 10 -13 11 -13 6 3 -5 15 1 17 44 17 55 0 85 8 77 20 -3 5 4 6
15 3 11 -3 20 0 20 6 0 6 5 11 11 11 6 0 9 -7 6 -15 -5 -11 2 -13 35 -10 23 2
44 9 48 16 4 6 13 8 19 5 6 -4 11 0 11 8 0 9 7 16 15 16 8 0 15 5 15 12 0 6 3
9 6 6 3 -4 -2 -21 -12 -39z m-814 -73 c0 -3 -4 -8 -10 -11 -5 -3 -10 -1 -10 4
0 6 5 11 10 11 6 0 10 -2 10 -4z m183 -10 c4 -10 1 -13 -7 -10 -7 3 -18 -5
-24 -18 -6 -13 -11 -17 -11 -10 -1 18 18 52 28 52 5 0 11 -7 14 -14z m-103
-30 c0 -16 -12 -29 -37 -44 -20 -11 -23 -10 -23 7 0 10 7 21 15 25 8 3 15 12
15 20 0 10 6 13 15 10 8 -4 15 -11 15 -18z m-280 -16 c0 -5 -9 -10 -20 -10
-11 0 -20 5 -20 10 0 6 9 10 20 10 11 0 20 -4 20 -10z m320 1 c0 -6 -4 -13
-10 -16 -5 -3 -10 1 -10 9 0 9 5 16 10 16 6 0 10 -4 10 -9z m-183 -43 c-3 -7
-5 -2 -5 12 0 14 2 19 5 13 2 -7 2 -19 0 -25z m5683 22 c0 -5 -2 -10 -4 -10
-3 0 -8 5 -11 10 -3 6 -1 10 4 10 6 0 11 -4 11 -10z m-5550 -20 c0 -5 -5 -10
-11 -10 -5 0 -7 5 -4 10 3 6 8 10 11 10 2 0 4 -4 4 -10z m-633 -82 c-3 -7 -5
-2 -5 12 0 14 2 19 5 13 2 -7 2 -19 0 -25z m533 12 c0 -5 -7 -10 -16 -10 -8 0
-12 5 -9 10 3 6 10 10 16 10 5 0 9 -4 9 -10z m6127 -25 c0 -8 -4 -15 -9 -15
-10 0 -11 14 -1 23 9 10 10 9 10 -8z m-7030 -67 c-3 -8 -6 -5 -6 6 -1 11 2 17
5 13 3 -3 4 -12 1 -19z m8108 -88 c-27 -12 -43 -12 -25 0 8 5 22 9 30 9 10 0
8 -3 -5 -9z m-8725 -64 c0 -3 -4 -8 -10 -11 -5 -3 -10 -1 -10 4 0 6 5 11 10
11 6 0 10 -2 10 -4z m9364 -101 c-4 -8 -10 -12 -15 -9 -14 8 -10 24 6 24 9 0
12 -6 9 -15z"/>
<path d="M9040 7899 c0 -5 5 -7 10 -4 6 3 10 8 10 11 0 2 -4 4 -10 4 -5 0 -10
-5 -10 -11z"/>
<path d="M8660 7830 c0 -5 5 -10 10 -10 6 0 10 5 10 10 0 6 -4 10 -10 10 -5 0
-10 -4 -10 -10z"/>
<path d="M8581 7744 c0 -11 3 -14 6 -6 3 7 2 16 -1 19 -3 4 -6 -2 -5 -13z"/>
<path d="M8737 7573 c-13 -12 -7 -24 11 -22 9 1 25 -1 35 -6 32 -14 29 3 -4
19 -37 19 -34 18 -42 9z"/>
<path d="M9532 7021 c2 -7 7 -12 11 -12 12 1 9 15 -3 20 -7 2 -11 -2 -8 -8z"/>
<path d="M9436 5494 c-5 -12 -2 -15 10 -10 8 3 18 6 20 6 3 0 2 5 -1 10 -9 15
-22 12 -29 -6z"/>
<path d="M9600 5484 c0 -8 5 -12 10 -9 6 4 8 11 5 16 -9 14 -15 11 -15 -7z"/>
<path d="M9549 5439 c-10 -6 -7 -9 14 -9 29 0 35 5 14 13 -8 3 -20 1 -28 -4z"/>
<path d="M9448 5353 c6 -2 18 -2 25 0 6 3 1 5 -13 5 -14 0 -19 -2 -12 -5z"/>
<path d="M9751 5244 c0 -11 3 -14 6 -6 3 7 2 16 -1 19 -3 4 -6 -2 -5 -13z"/>
<path d="M2920 5169 c0 -5 5 -7 10 -4 6 3 10 8 10 11 0 2 -4 4 -10 4 -5 0 -10
-5 -10 -11z"/>
<path d="M3992 4780 c0 -14 2 -19 5 -12 2 6 2 18 0 25 -3 6 -5 1 -5 -13z"/>
<path d="M3790 4680 c0 -5 5 -10 11 -10 5 0 7 5 4 10 -3 6 -8 10 -11 10 -2 0
-4 -4 -4 -10z"/>
<path d="M3845 4681 c-3 -6 12 -10 35 -9 22 0 40 4 40 9 0 12 -67 12 -75 0z"/>
<path d="M3873 4634 l-22 -24 33 0 c34 0 47 13 39 38 -7 18 -25 13 -50 -14z"/>
<path d="M3831 4594 c0 -11 3 -14 6 -6 3 7 2 16 -1 19 -3 4 -6 -2 -5 -13z"/>
<path d="M5345 4370 c3 -5 8 -10 11 -10 2 0 4 5 4 10 0 6 -5 10 -11 10 -5 0
-7 -4 -4 -10z"/>
<path d="M5350 4310 c0 -5 7 -7 15 -4 8 4 15 8 15 10 0 2 -7 4 -15 4 -8 0 -15
-4 -15 -10z"/>
<path d="M4982 4139 c10 -31 33 -48 46 -35 3 4 2 10 -4 14 -6 4 -16 17 -23 30
-17 33 -32 27 -19 -9z"/>
<path d="M5066 4145 c-3 -9 -10 -13 -16 -10 -5 3 -10 1 -10 -5 0 -7 8 -9 23
-4 30 9 33 12 20 25 -7 7 -12 5 -17 -6z"/>
<path d="M4173 4133 c-18 -6 -16 -23 1 -23 17 0 30 16 19 23 -5 2 -14 2 -20 0z"/>
<path d="M4940 4128 c0 -4 7 -8 15 -8 8 0 15 4 15 8 0 5 -7 9 -15 9 -8 0 -15
-4 -15 -9z"/>
<path d="M4631 4104 c0 -11 3 -14 6 -6 3 7 2 16 -1 19 -3 4 -6 -2 -5 -13z"/>
<path d="M5097 4090 c-3 -12 2 -20 14 -23 27 -7 31 6 9 25 -17 15 -19 15 -23
-2z"/>
<path d="M4907 4065 c3 -8 9 -12 14 -9 12 7 11 11 -5 17 -10 4 -13 1 -9 -8z"/>
<path d="M4355 3950 c-3 -5 -1 -10 4 -10 6 0 11 5 11 10 0 6 -2 10 -4 10 -3 0
-8 -4 -11 -10z"/>
<path d="M4430 3859 c0 -5 5 -7 10 -4 6 3 10 8 10 11 0 2 -4 4 -10 4 -5 0 -10
-5 -10 -11z"/>
<path d="M5152 3940 c0 -14 2 -19 5 -12 2 6 2 18 0 25 -3 6 -5 1 -5 -13z"/>
<path d="M5108 3774 c-5 -4 -8 -23 -7 -43 0 -34 1 -34 10 -11 11 27 8 66 -3
54z"/>
<path d="M2740 2160 c0 -5 5 -10 10 -10 6 0 10 5 10 10 0 6 -4 10 -10 10 -5 0
-10 -4 -10 -10z"/>
<path d="M2338 2083 c7 -3 16 -2 19 1 4 3 -2 6 -13 5 -11 0 -14 -3 -6 -6z"/>
<path d="M2240 2049 c0 -5 5 -7 10 -4 6 3 10 8 10 11 0 2 -4 4 -10 4 -5 0 -10
-5 -10 -11z"/>
<path d="M3560 9010 c0 -5 5 -10 10 -10 6 0 10 5 10 10 0 6 -4 10 -10 10 -5 0
-10 -4 -10 -10z"/>
<path d="M3569 8968 c-7 -23 -5 -38 5 -38 6 0 12 9 12 20 0 16 -13 29 -17 18z"/>
<path d="M7610 7930 c0 -5 5 -10 10 -10 6 0 10 5 10 10 0 6 -4 10 -10 10 -5 0
-10 -4 -10 -10z"/>
<path d="M7622 7735 c0 -16 2 -22 5 -12 2 9 2 23 0 30 -3 6 -5 -1 -5 -18z"/>
<path d="M7630 7675 c0 -14 4 -25 9 -25 4 0 6 11 3 25 -2 14 -6 25 -8 25 -2 0
-4 -11 -4 -25z"/>
<path d="M3070 7399 c0 -11 5 -17 10 -14 6 3 10 13 10 21 0 8 -4 14 -10 14 -5
0 -10 -9 -10 -21z"/>
<path d="M3070 7355 c0 -8 5 -15 10 -15 6 0 10 7 10 15 0 8 -4 15 -10 15 -5 0
-10 -7 -10 -15z"/>
<path d="M4900 7339 c0 -5 5 -7 10 -4 6 3 10 8 10 11 0 2 -4 4 -10 4 -5 0 -10
-5 -10 -11z"/>
<path d="M4970 7320 c-25 -21 -40 -26 -40 -11 0 5 -12 11 -26 14 -32 6 -72
-31 -81 -74 -7 -34 -23 -39 -24 -6 -1 13 -6 5 -12 -21 -7 -23 -19 -47 -27 -52
-12 -7 -9 -14 15 -36 24 -22 26 -28 13 -35 -15 -8 -14 -49 1 -49 5 0 5 -110 0
-136 -4 -20 14 -73 26 -78 8 -3 11 -13 8 -24 -2 -11 0 -23 5 -26 6 -3 8 -14 5
-25 -3 -12 2 -20 16 -24 12 -3 21 -11 22 -19 0 -7 33 -39 72 -70 64 -50 73
-55 85 -40 6 8 12 11 12 5 0 -6 17 -9 40 -8 22 1 40 -2 40 -7 0 -5 5 -6 11 -2
6 3 21 1 34 -6 20 -11 26 -10 40 4 19 19 31 20 40 5 4 -6 13 -8 21 -5 9 3 11
-1 8 -12 -3 -9 1 -7 8 6 9 14 17 19 23 13 6 -6 34 -12 63 -15 28 -3 69 -10 90
-15 49 -13 193 -7 219 10 32 20 8 34 -82 48 -44 7 -87 16 -95 19 -8 3 -20 6
-26 7 -6 0 -18 8 -27 17 -24 24 0 39 65 43 29 2 54 8 56 14 5 15 192 15 192 0
0 -6 7 -8 16 -5 21 8 104 -31 104 -49 0 -19 70 -57 97 -52 13 2 23 0 23 -5 0
-5 4 -6 10 -3 5 3 22 -2 36 -12 35 -22 104 -28 104 -8 0 11 7 12 32 4 18 -5
55 -9 83 -9 91 0 102 34 15 46 -29 4 -47 11 -44 16 4 6 0 14 -7 19 -10 6 -9
10 6 15 25 10 79 63 72 71 -3 3 -19 2 -34 -2 -52 -14 -127 -6 -142 16 -7 10
-20 19 -28 19 -17 0 -103 60 -103 72 0 4 -7 8 -15 8 -8 0 -15 4 -15 9 0 5 -16
12 -36 16 -33 6 -40 20 -11 20 7 0 11 11 10 23 -2 17 3 22 20 23 l22 0 -23 10
c-13 5 -28 6 -33 3 -5 -3 -12 2 -15 10 -3 9 -10 13 -16 10 -5 -3 -15 2 -22 11
-9 13 -32 19 -85 23 -39 2 -73 8 -75 11 -7 10 105 13 133 3 14 -5 52 -17 84
-27 31 -10 57 -22 57 -27 0 -19 29 -38 57 -38 16 0 35 -6 42 -12 11 -11 12
-10 7 0 -6 10 -1 11 21 6 15 -4 36 -11 46 -16 36 -19 15 1 -35 33 -62 38 -98
69 -98 82 0 6 5 5 13 -1 6 -5 29 -19 49 -30 49 -28 40 -5 -15 39 -60 48 -102
69 -141 69 -18 0 -53 7 -76 15 -51 18 -62 13 -26 -10 29 -19 36 -40 9 -26 -37
19 -116 32 -127 21 -13 -13 -46 -13 -46 0 0 6 -8 10 -17 10 -22 1 -55 25 -47
33 4 3 -20 18 -51 32 -55 24 -87 26 -55 4 11 -8 9 -9 -10 -4 -14 3 -33 8 -42
10 -9 2 -25 8 -35 13 -10 5 -33 10 -52 10 -19 0 -38 7 -42 14 -5 7 -12 13 -16
13 -4 1 -18 6 -30 13 -14 8 -38 10 -61 6 -25 -4 -42 -2 -46 5 -4 6 -15 11 -25
11 -10 0 -32 7 -47 15 -16 8 -37 15 -47 15 -10 0 -15 5 -12 10 11 18 -31 10
-55 -10z m945 -220 c3 -5 -1 -10 -9 -10 -9 0 -16 5 -16 10 0 6 4 10 9 10 6 0
13 -4 16 -10z m74 -26 c13 -13 -10 -12 -35 2 l-29 16 30 -7 c16 -4 32 -9 34
-11z m-134 -84 c-3 -5 -10 -10 -16 -10 -5 0 -9 5 -9 10 0 6 7 10 16 10 8 0 12
-4 9 -10z m65 -50 c0 -5 -7 -7 -15 -4 -8 4 -15 8 -15 10 0 2 7 4 15 4 8 0 15
-4 15 -10z m-460 -188 c0 -5 -7 -9 -15 -9 -8 0 -15 4 -15 9 0 4 7 8 15 8 8 0
15 -4 15 -8z m55 -12 c3 -5 -1 -10 -9 -10 -8 0 -18 5 -21 10 -3 6 1 10 9 10 8
0 18 -4 21 -10z"/>
<path d="M3060 7313 c1 -18 18 -35 24 -24 4 6 4 16 1 21 -7 12 -25 13 -25 3z"/>
<path d="M4165 7301 c-17 -17 -28 -18 -79 -11 -57 8 -86 5 -86 -9 0 -4 -13 -6
-30 -3 -18 3 -30 0 -30 -7 0 -8 -13 -9 -40 -5 -25 4 -40 3 -40 -4 0 -6 6 -12
13 -15 6 -2 -19 -7 -58 -11 -76 -7 -102 -17 -91 -35 5 -7 -4 -12 -26 -12 -18
-1 -40 -3 -48 -4 -8 -1 -23 -3 -32 -4 -10 0 -18 -6 -18 -12 0 -7 12 -10 30 -7
35 5 41 -9 8 -16 -92 -19 -161 -21 -166 -5 -3 6 -9 6 -18 -2 -11 -9 -14 -9
-14 1 0 13 -56 5 -77 -12 -9 -7 -15 -5 -19 6 -5 12 -10 14 -19 6 -9 -8 -14 -7
-17 2 -3 9 -14 5 -36 -12 -17 -14 -31 -28 -31 -32 -1 -3 -20 -34 -43 -67 -30
-44 -42 -72 -43 -100 -1 -29 2 -38 12 -34 22 9 14 -14 -12 -35 -22 -18 -23
-21 -7 -27 15 -6 14 -8 -8 -20 -15 -9 -19 -15 -10 -15 10 0 5 -9 -15 -25 l-29
-24 33 -41 c18 -23 31 -44 28 -47 -3 -3 -22 -5 -41 -5 -20 0 -36 -4 -36 -9 0
-5 -5 -9 -11 -9 -6 0 -9 9 -6 20 3 11 2 20 -3 20 -12 0 -20 -27 -20 -65 0 -45
24 -57 100 -51 50 5 60 3 60 -10 0 -12 10 -14 54 -11 55 5 116 25 116 40 0 4
15 5 33 2 17 -3 56 -1 85 3 52 9 81 0 41 -13 -14 -5 -18 -10 -11 -17 6 -6 17
-6 32 2 12 7 76 13 141 15 66 3 124 7 129 10 5 3 26 8 47 11 20 2 48 10 62 17
28 13 71 11 71 -3 0 -5 6 -7 14 -4 8 3 16 -3 19 -15 4 -18 9 -19 37 -11 18 5
37 7 41 4 20 -12 111 72 164 150 32 47 75 132 75 147 0 30 46 133 72 161 33
36 34 38 8 38 -11 0 -20 5 -20 10 0 6 7 10 15 10 8 0 15 5 15 10 0 6 -9 10
-20 10 -11 0 -20 5 -20 10 0 6 -8 10 -19 10 -15 0 -18 7 -16 40 1 22 -2 43 -6
46 -5 3 -9 14 -9 24 0 10 -6 21 -12 23 -10 4 -10 8 1 15 8 6 9 12 3 16 -6 3
-12 1 -14 -5 -3 -8 -12 -7 -30 5 -16 11 -28 13 -32 7 -4 -6 -13 -8 -21 -4 -8
3 -15 1 -15 -5 0 -6 6 -13 13 -15 7 -3 5 -6 -5 -6 -12 -1 -18 6 -18 19 0 25
-20 26 -45 1z m22 -37 c-3 -3 -12 -4 -19 -1 -8 3 -5 6 6 6 11 1 17 -2 13 -5z
m-632 -154 c-3 -5 -11 -10 -16 -10 -6 0 -7 5 -4 10 3 6 11 10 16 10 6 0 7 -4
4 -10z m-365 -350 c0 -5 -9 -10 -21 -10 -11 0 -17 5 -14 10 3 6 13 10 21 10 8
0 14 -4 14 -10z m494 -45 c-4 -8 -10 -12 -15 -9 -14 8 -10 24 6 24 9 0 12 -6
9 -15z m-104 -15 c0 -5 -4 -10 -10 -10 -5 0 -10 5 -10 10 0 6 5 10 10 10 6 0
10 -4 10 -10z m506 -102 c-10 -6 -20 -7 -24 -3 -9 8 20 25 31 18 5 -3 2 -10
-7 -15z"/>
<path d="M5380 7260 c0 -5 5 -10 11 -10 5 0 7 5 4 10 -3 6 -8 10 -11 10 -2 0
-4 -4 -4 -10z"/>
<path d="M3062 7205 c0 -16 2 -22 5 -12 2 9 2 23 0 30 -3 6 -5 -1 -5 -18z"/>
<path d="M5733 7173 c-24 -5 -32 -23 -10 -23 6 0 23 -3 37 -6 20 -5 22 -3 10
5 -13 10 -13 12 0 21 13 9 13 10 0 8 -8 0 -25 -3 -37 -5z"/>
<path d="M5808 7163 c6 -2 18 -2 25 0 6 3 1 5 -13 5 -14 0 -19 -2 -12 -5z"/>
<path d="M4440 7100 c0 -5 4 -10 9 -10 6 0 13 5 16 10 3 6 -1 10 -9 10 -9 0
-16 -4 -16 -10z"/>
<path d="M6168 6963 c7 -3 16 -2 19 1 4 3 -2 6 -13 5 -11 0 -14 -3 -6 -6z"/>
<path d="M6188 6933 c-7 -25 27 -47 63 -41 24 4 24 5 -5 17 -16 6 -35 19 -41
28 -11 14 -12 14 -17 -4z"/>
<path d="M6208 6843 c6 -2 18 -2 25 0 6 3 1 5 -13 5 -14 0 -19 -2 -12 -5z"/>
<path d="M7010 6536 c0 -13 -6 -26 -12 -29 -10 -3 -9 -12 4 -39 10 -22 13 -40
7 -49 -5 -8 -9 -26 -9 -41 0 -16 -5 -28 -11 -28 -6 0 -8 8 -4 20 6 18 -19 80
-32 80 -3 0 -3 -18 1 -39 4 -27 2 -41 -7 -44 -9 -3 -7 -13 6 -42 17 -35 17
-40 3 -51 -18 -13 -21 -34 -5 -34 8 0 7 -5 -1 -15 -10 -12 -10 -19 -2 -27 7
-7 12 -20 12 -31 0 -10 4 -15 10 -12 12 8 24 -38 15 -63 -3 -11 -1 -23 5 -27
5 -3 10 -15 10 -26 0 -11 7 -22 15 -25 17 -7 21 -54 4 -54 -7 0 -9 9 -6 21 3
12 1 19 -6 16 -6 -2 -20 6 -30 17 -18 21 -18 20 -12 -23 3 -24 14 -62 25 -84
21 -42 27 -102 11 -111 -5 -3 -12 10 -15 29 -9 44 -26 55 -26 16 0 -16 -5 -33
-10 -36 -10 -6 -30 34 -30 62 0 13 3 13 15 3 16 -14 18 -6 6 25 -5 13 -18 20
-35 20 -20 1 -26 -4 -26 -21 0 -13 5 -26 10 -29 6 -3 10 -19 10 -36 0 -16 -4
-29 -10 -29 -5 0 -10 11 -10 25 0 14 -4 25 -10 25 -5 0 -10 -13 -10 -30 0 -16
4 -30 9 -30 9 0 -3 -83 -15 -101 -3 -6 -12 -8 -19 -5 -7 2 -15 -4 -18 -14 -3
-13 2 -19 19 -23 29 -5 39 7 36 45 -2 28 12 46 23 28 13 -21 24 -9 18 21 -4
21 -1 34 8 40 21 13 29 11 29 -8 0 -36 44 -108 68 -111 12 -2 22 -8 22 -14 0
-6 3 -8 8 -4 4 4 7 40 8 79 0 41 6 83 14 97 8 14 15 59 17 100 6 147 9 345 6
323 -3 -13 -8 -23 -13 -23 -18 0 -28 36 -21 70 7 35 7 35 20 12 7 -13 15 -21
18 -19 2 3 0 14 -5 24 -9 16 -21 126 -22 190 0 12 -5 25 -10 28 -6 4 -10 -7
-10 -24 0 -33 -11 -39 -29 -17 -8 10 -9 16 -1 21 13 8 13 42 0 50 -6 3 -10 -5
-10 -19z m40 -467 c0 -5 -4 -9 -10 -9 -5 0 -10 7 -10 16 0 8 5 12 10 9 6 -3
10 -10 10 -16z"/>
<path d="M6500 6531 c0 -12 6 -21 16 -21 9 0 14 7 12 17 -5 25 -28 28 -28 4z"/>
<path d="M6905 6510 c3 -5 8 -10 11 -10 2 0 4 5 4 10 0 6 -5 10 -11 10 -5 0
-7 -4 -4 -10z"/>
<path d="M7575 6263 c-11 -2 -43 -13 -72 -24 -58 -23 -100 -73 -110 -131 -7
-44 9 -56 39 -28 15 14 33 20 54 18 18 -1 38 3 45 8 8 6 30 11 49 11 37 0 69
-28 70 -59 0 -10 3 -18 8 -18 9 0 42 -58 42 -75 0 -7 5 -15 11 -17 29 -10 92
-254 93 -359 0 -48 -33 -142 -70 -198 -24 -35 -118 -111 -138 -111 -19 0 -86
-66 -86 -84 0 -42 79 0 166 90 60 61 107 143 184 319 12 28 35 60 52 72 41 29
55 106 23 129 -8 6 -15 16 -15 23 0 6 -4 11 -9 11 -13 0 -21 43 -25 131 -5
101 -40 201 -82 239 -53 46 -155 70 -229 53z"/>
<path d="M4044 6176 c-38 -21 -54 -38 -54 -57 0 -23 9 -24 40 -2 30 21 49 44
50 61 0 14 -8 14 -36 -2z"/>
<path d="M7326 5968 c-28 -55 -29 -98 -7 -165 12 -34 21 -77 21 -94 0 -26 2
-29 14 -20 11 10 18 7 30 -11 14 -19 19 -21 35 -11 11 7 21 8 23 4 2 -5 20
-27 41 -51 29 -32 41 -39 51 -31 8 6 20 10 27 8 8 -2 11 -2 6 0 -4 3 -4 9 -1
14 3 6 11 5 20 -2 11 -9 14 -8 14 5 0 9 5 16 11 16 5 0 8 4 4 9 -3 5 0 13 6
17 7 4 -4 15 -27 28 -29 16 -39 28 -39 46 0 14 -4 28 -10 32 -5 4 -1 8 10 8
17 0 17 2 5 10 -8 5 -16 20 -16 32 -1 14 -18 36 -45 58 -24 19 -65 56 -92 83
-26 26 -51 47 -56 47 -5 0 -17 -14 -25 -32z"/>
<path d="M2857 5893 c-12 -21 -15 -64 -8 -123 6 -60 7 -63 19 -42 14 25 18 64
10 124 -5 39 -13 55 -21 41z"/>
<path d="M4608 5893 c7 -3 16 -2 19 1 4 3 -2 6 -13 5 -11 0 -14 -3 -6 -6z"/>
<path d="M6830 5734 c0 -14 4 -23 10 -19 6 3 10 15 10 26 0 10 -4 19 -10 19
-5 0 -10 -12 -10 -26z"/>
<path d="M6770 5725 c0 -27 1 -28 23 -19 18 7 10 44 -9 44 -8 0 -14 -10 -14
-25z"/>
<path d="M2946 5675 c4 -8 8 -15 10 -15 2 0 4 7 4 15 0 8 -4 15 -10 15 -5 0
-7 -7 -4 -15z"/>
<path d="M6791 5674 c0 -11 3 -14 6 -6 3 7 2 16 -1 19 -3 4 -6 -2 -5 -13z"/>
<path d="M4560 5640 c0 -5 5 -10 11 -10 5 0 7 5 4 10 -3 6 -8 10 -11 10 -2 0
-4 -4 -4 -10z"/>
<path d="M6940 5627 c0 -8 9 -22 20 -32 20 -18 20 -17 20 13 0 25 -4 32 -20
32 -11 0 -20 -6 -20 -13z"/>
<path d="M2970 5610 c0 -5 5 -10 11 -10 5 0 7 5 4 10 -3 6 -8 10 -11 10 -2 0
-4 -4 -4 -10z"/>
<path d="M6821 5613 c-1 -7 -8 -13 -16 -13 -16 0 -21 -35 -5 -45 5 -3 7 -12 4
-20 -3 -7 -1 -22 5 -32 9 -16 10 -14 11 11 0 23 3 27 18 21 13 -5 14 -3 5 6
-6 6 -9 17 -7 23 3 7 0 23 -5 37 -5 13 -10 18 -10 12z"/>
<path d="M2920 5579 c0 -5 5 -7 10 -4 6 3 10 8 10 11 0 2 -4 4 -10 4 -5 0 -10
-5 -10 -11z"/>
<path d="M2973 5573 c-7 -2 -13 -12 -13 -20 0 -10 6 -13 16 -9 9 3 18 6 20 6
2 0 4 7 4 15 0 15 -6 17 -27 8z"/>
<path d="M7023 5558 c2 -7 0 -24 -5 -36 -12 -34 2 -48 17 -18 14 26 10 66 -7
66 -5 0 -8 -6 -5 -12z"/>
<path d="M6980 5540 c0 -11 5 -20 10 -20 6 0 10 9 10 20 0 11 -4 20 -10 20 -5
0 -10 -9 -10 -20z"/>
<path d="M6746 5522 c3 -16 0 -41 -5 -55 -6 -15 -6 -29 -2 -32 5 -3 7 -15 4
-26 -6 -21 -7 -21 -20 -4 -13 18 -13 18 -28 -1 -20 -26 -19 -34 4 -34 30 0 51
-11 51 -26 0 -30 19 -12 26 24 4 20 11 43 17 50 7 9 3 30 -14 72 -25 64 -40
78 -33 32z"/>
<path d="M7232 5495 c-35 -38 -40 -50 -18 -42 8 3 17 1 19 -6 8 -20 38 16 42
51 5 41 -4 40 -43 -3z"/>
<path d="M6838 5500 c-12 -39 -10 -76 3 -63 6 6 9 28 7 49 -3 35 -4 36 -10 14z"/>
<path d="M4830 5499 c0 -5 5 -7 10 -4 6 3 10 8 10 11 0 2 -4 4 -10 4 -5 0 -10
-5 -10 -11z"/>
<path d="M6710 5503 c0 -15 18 -35 23 -27 3 5 -1 15 -9 22 -8 7 -14 9 -14 5z"/>
<path d="M4970 5338 c0 -18 5 -28 15 -28 19 0 19 11 0 36 -14 18 -14 18 -15
-8z"/>
<path d="M6600 5335 c0 -5 5 -17 10 -25 5 -8 10 -10 10 -5 0 6 -5 17 -10 25
-5 8 -10 11 -10 5z"/>
<path d="M7195 5330 c-18 -8 -17 -9 8 -9 16 -1 26 3 22 9 -3 6 -7 10 -8 9 -1
0 -11 -4 -22 -9z"/>
<path d="M6691 5314 c0 -11 3 -14 6 -6 3 7 2 16 -1 19 -3 4 -6 -2 -5 -13z"/>
<path d="M6747 5313 c-2 -5 -1 -17 3 -27 6 -19 7 -19 12 2 6 21 -6 40 -15 25z"/>
<path d="M4995 5291 c-3 -5 -1 -12 5 -16 5 -3 10 1 10 9 0 18 -6 21 -15 7z"/>
<path d="M3745 5260 c-3 -5 1 -10 10 -10 9 0 13 5 10 10 -3 6 -8 10 -10 10 -2
0 -7 -4 -10 -10z"/>
<path d="M5387 5189 c7 -7 15 -10 18 -7 3 3 -2 9 -12 12 -14 6 -15 5 -6 -5z"/>
<path d="M3156 5133 c-11 -11 -6 -23 9 -23 8 0 15 4 15 9 0 13 -16 22 -24 14z"/>
<path d="M6557 5013 c-3 -5 -2 -15 2 -22 7 -10 10 -10 16 -1 4 6 3 16 -3 22
-5 5 -12 6 -15 1z"/>
<path d="M5620 4990 c0 -5 5 -10 11 -10 5 0 7 5 4 10 -3 6 -8 10 -11 10 -2 0
-4 -4 -4 -10z"/>
<path d="M3290 4960 c0 -4 9 -10 20 -13 11 -3 20 -2 20 3 0 4 -9 10 -20 13
-11 3 -20 2 -20 -3z"/>
<path d="M5643 4955 c0 -8 7 -17 15 -20 23 -8 24 0 4 18 -15 14 -19 15 -19 2z"/>
<path d="M3350 4944 c0 -14 3 -14 15 -4 8 7 15 14 15 16 0 2 -7 4 -15 4 -8 0
-15 -7 -15 -16z"/>
<path d="M5964 4857 c4 -11 9 -30 12 -43 3 -13 10 -24 15 -24 13 0 11 11 -12
50 -11 19 -18 27 -15 17z"/>
<path d="M6137 4813 c-4 -3 -7 -19 -7 -35 0 -25 2 -27 18 -17 12 8 17 20 14
35 -4 24 -13 30 -25 17z"/>
<path d="M6036 4764 c-4 -20 -5 -38 -2 -41 2 -3 8 11 12 31 3 21 4 39 1 42 -2
3 -8 -11 -11 -32z"/>
<path d="M6171 4722 c8 -23 16 -31 26 -28 8 3 17 6 19 6 2 0 4 5 4 11 0 8 -5
8 -15 -1 -8 -7 -15 -8 -15 -3 0 5 -7 18 -15 29 -13 17 -14 16 -4 -14z"/>
<path d="M6860 4683 c0 -38 12 -36 24 3 4 15 2 24 -9 28 -12 4 -15 -2 -15 -31z"/>
<path d="M6120 4700 c0 -5 5 -10 10 -10 6 0 10 5 10 10 0 6 -4 10 -10 10 -5 0
-10 -4 -10 -10z"/>
<path d="M6541 4480 c0 -29 1 -32 10 -17 7 11 7 23 0 35 -9 14 -10 11 -10 -18z"/>
<path d="M6350 4425 c-8 -45 -8 -47 2 -37 5 5 8 18 5 28 -3 11 -6 15 -7 9z"/>
<path d="M6117 4362 c-15 -16 -15 -18 1 -18 10 0 18 8 18 18 0 10 -1 18 -2 18
0 0 -8 -8 -17 -18z"/>
<path d="M6395 4239 c0 -21 3 -39 8 -39 4 0 7 15 7 34 0 19 -3 37 -7 39 -5 3
-8 -12 -8 -34z"/>
<path d="M6360 4244 c0 -8 5 -12 10 -9 6 3 10 10 10 16 0 5 -4 9 -10 9 -5 0
-10 -7 -10 -16z"/>
<path d="M6321 4224 c0 -11 3 -14 6 -6 3 7 2 16 -1 19 -3 4 -6 -2 -5 -13z"/>
<path d="M6245 4190 c-3 -5 -1 -10 4 -10 6 0 11 5 11 10 0 6 -2 10 -4 10 -3 0
-8 -4 -11 -10z"/>
<path d="M6300 4181 c0 -12 5 -21 10 -21 6 0 10 6 10 14 0 8 -4 18 -10 21 -5
3 -10 -3 -10 -14z"/>
<path d="M6720 4190 c0 -5 5 -10 11 -10 5 0 7 5 4 10 -3 6 -8 10 -11 10 -2 0
-4 -4 -4 -10z"/>
<path d="M6420 4138 c0 -14 -3 -35 -7 -45 -6 -16 -5 -16 10 -4 19 15 22 38 7
61 -8 12 -10 9 -10 -12z"/>
<path d="M6517 4154 c-4 -4 -7 -14 -7 -23 0 -11 3 -12 11 -4 6 6 10 16 7 23
-2 6 -7 8 -11 4z"/>
<path d="M6288 4136 c-19 -19 -24 -56 -8 -56 6 0 10 6 10 14 0 8 5 16 11 18 6
2 10 12 8 23 -4 18 -5 18 -21 1z"/>
<path d="M6660 4055 c-11 -14 -11 -18 2 -31 12 -13 16 -13 20 -2 3 7 2 21 -1
31 -6 18 -8 18 -21 2z"/>
<path d="M6260 4020 c0 -16 5 -30 10 -30 6 0 10 6 10 14 0 8 3 21 6 30 4 11 1
16 -10 16 -11 0 -16 -9 -16 -30z"/>
<path d="M6225 4020 c-3 -5 -1 -10 4 -10 6 0 11 5 11 10 0 6 -2 10 -4 10 -3 0
-8 -4 -11 -10z"/>
<path d="M6150 4009 c0 -5 5 -7 10 -4 6 3 10 8 10 11 0 2 -4 4 -10 4 -5 0 -10
-5 -10 -11z"/>
<path d="M6616 4007 c-11 -8 -17 -23 -14 -40 3 -27 4 -27 26 -11 16 11 20 20
14 26 -6 6 -8 17 -5 24 6 17 2 18 -21 1z"/>
<path d="M6611 3864 c0 -11 3 -14 6 -6 3 7 2 16 -1 19 -3 4 -6 -2 -5 -13z"/>
<path d="M6500 3699 c0 -5 5 -7 10 -4 6 3 10 8 10 11 0 2 -4 4 -10 4 -5 0 -10
-5 -10 -11z"/>
<path d="M5957 3159 c-15 -17 -16 -20 -2 -25 19 -8 20 -6 29 24 9 27 -3 27
-27 1z"/>
<path d="M3790 2859 c0 -31 4 -38 23 -41 15 -2 21 -9 19 -22 -5 -27 21 -15 32
16 13 37 -11 81 -46 83 -26 1 -28 -2 -28 -36z m60 -9 c0 -5 -7 -10 -15 -10 -8
0 -15 5 -15 10 0 6 7 10 15 10 8 0 15 -4 15 -10z"/>
<path d="M5274 2866 c-11 -11 -38 -35 -60 -53 -52 -42 -38 -52 18 -14 48 33
61 46 71 74 8 22 -3 20 -29 -7z"/>
<path d="M3735 2850 c3 -5 8 -10 11 -10 2 0 4 5 4 10 0 6 -5 10 -11 10 -5 0
-7 -4 -4 -10z"/>
<path d="M5136 2813 c-6 -14 -5 -15 5 -6 7 7 10 15 7 18 -3 3 -9 -2 -12 -12z"/>
<path d="M5080 2768 c-14 -17 -26 -36 -28 -42 -2 -6 2 -3 8 7 6 9 16 17 23 17
15 0 40 37 29 44 -4 2 -19 -9 -32 -26z"/>
<path d="M5275 2760 c-3 -5 -2 -10 4 -10 5 0 13 5 16 10 3 6 2 10 -4 10 -5 0
-13 -4 -16 -10z"/>
<path d="M5001 2741 c-9 -16 -8 -18 9 -14 11 3 20 12 20 19 0 20 -18 17 -29
-5z"/>
<path d="M6359 2693 c-13 -15 -12 -15 9 -4 23 12 28 21 13 21 -5 0 -15 -7 -22
-17z"/>
<path d="M4035 2690 c3 -5 8 -10 11 -10 2 0 4 5 4 10 0 6 -5 10 -11 10 -5 0
-7 -4 -4 -10z"/>
<path d="M4072 2660 c0 -14 2 -19 5 -12 2 6 2 18 0 25 -3 6 -5 1 -5 -13z"/>
<path d="M4087 2634 c-9 -10 2 -24 19 -24 8 0 14 7 14 15 0 15 -21 21 -33 9z"/>
<path d="M4292 2573 c-23 -4 -23 -5 -6 -24 29 -32 72 -21 58 15 -6 16 -10 17
-52 9z"/>
<path d="M4506 2561 c-14 -15 -14 -20 -3 -24 15 -6 41 29 28 37 -5 3 -16 -3
-25 -13z"/>
<path d="M4367 2554 c-4 -4 -4 -11 -1 -15 8 -14 31 -10 38 6 5 15 -24 22 -37
9z"/>
<path d="M3970 2501 c0 -10 19 -25 25 -20 1 2 -3 10 -11 17 -8 7 -14 8 -14 3z"/>
<path d="M4377 2477 c-3 -8 -1 -20 4 -28 8 -12 10 -12 19 1 5 8 8 19 7 24 -5
16 -24 18 -30 3z"/>
<path d="M4870 2335 c0 -8 7 -15 16 -15 14 0 14 3 4 15 -7 8 -14 15 -16 15 -2
0 -4 -7 -4 -15z"/>
<path d="M4318 2163 c7 -3 16 -2 19 1 4 3 -2 6 -13 5 -11 0 -14 -3 -6 -6z"/>
<path d="M5530 2110 c-8 -5 -10 -10 -5 -10 6 0 17 5 25 10 8 5 11 10 5 10 -5
0 -17 -5 -25 -10z"/>
<path d="M8138 2093 c7 -3 16 -2 19 1 4 3 -2 6 -13 5 -11 0 -14 -3 -6 -6z"/>
<path d="M8270 2060 c0 -5 7 -10 15 -10 8 0 15 5 15 10 0 6 -7 10 -15 10 -8 0
-15 -4 -15 -10z"/>
<path d="M1403 2043 c-15 -5 -17 -23 -4 -23 5 0 11 7 15 15 3 8 4 15 3 14 -1
0 -8 -3 -14 -6z"/>
<path d="M1085 2000 c3 -5 12 -7 20 -3 21 7 19 13 -6 13 -11 0 -18 -4 -14 -10z"/>
<path d="M1059 1964 c-12 -14 -11 -16 5 -13 11 2 21 10 24 17 5 17 -13 15 -29
-4z"/>
<path d="M9763 1733 c9 -2 23 -2 30 0 6 3 -1 5 -18 5 -16 0 -22 -2 -12 -5z"/>
<path d="M4555 1629 c-55 -17 -146 -52 -203 -80 -98 -48 -110 -57 -285 -227
-327 -318 -457 -452 -509 -524 l-21 -30 22 13 c11 8 21 17 21 20 0 4 11 10 25
13 14 4 23 11 20 16 -3 6 3 10 14 10 15 0 19 4 14 18 -6 15 -5 15 11 2 16 -12
20 -11 37 10 10 14 19 19 19 13 0 -20 17 -15 23 6 4 17 13 19 58 17 30 -2 59
1 64 5 6 4 39 9 73 10 34 1 62 6 62 11 0 4 11 8 25 8 13 0 40 9 60 20 27 15
41 18 55 10 12 -7 20 -6 22 0 2 7 14 7 36 -1 21 -7 37 -8 43 -2 6 6 5 10 -3
10 -7 0 -53 19 -101 43 -62 30 -87 47 -83 57 3 7 -1 16 -9 19 -8 3 -17 14 -20
24 -3 10 -16 21 -29 24 -18 4 -24 12 -22 31 0 16 6 24 16 22 8 -1 15 4 15 11
0 7 10 24 23 37 33 34 55 23 144 -69 69 -72 80 -88 98 -151 24 -84 36 -109
117 -245 66 -110 111 -232 123 -333 3 -31 11 -62 17 -68 9 -9 7 -20 -4 -44
-13 -27 -14 -51 -5 -156 8 -101 7 -129 -5 -152 l-14 -27 356 0 356 0 -16 31
c-9 16 -22 66 -30 110 -8 44 -16 83 -19 87 -8 13 14 347 28 422 45 244 131
493 175 507 9 3 37 13 63 24 59 24 99 24 129 1 27 -21 59 -34 59 -25 0 20
-206 208 -338 309 -106 81 -315 172 -332 145 -8 -14 -67 -17 -128 -6 -47 8
-60 19 -34 30 15 7 14 9 -8 15 -47 15 -105 9 -205 -21z"/>
<path d="M4040 1235 c-11 -13 -10 -14 4 -9 9 3 16 10 16 15 0 13 -6 11 -20 -6z"/>
<path d="M5784 965 c4 -12 -3 -15 -29 -15 -18 0 -36 -4 -39 -9 -4 -5 3 -7 15
-4 12 4 32 -3 49 -16 16 -11 35 -18 43 -15 8 3 18 1 22 -5 3 -6 1 -11 -4 -11
-6 0 -11 -5 -11 -12 0 -6 3 -8 7 -5 3 4 12 -1 19 -11 8 -9 14 -12 14 -5 0 9 9
8 35 -3 19 -7 37 -14 40 -14 3 0 -29 32 -72 70 -77 70 -100 84 -89 55z m26
-35 c0 -5 -2 -10 -4 -10 -3 0 -8 5 -11 10 -3 6 -1 10 4 10 6 0 11 -4 11 -10z"/>
</g>
</svg>
